<?xml version="1.0" encoding="UTF-8"?>
<svg id="Capa_2" data-name="Capa 2" xmlns="http://www.w3.org/2000/svg" viewBox="0 0 189.67 47.97">
  <defs>
    <style>
      .cls-1 {
        fill: #fff;
      }
    </style>
  </defs>
  <g id="Capa_1-2" data-name="Capa 1">
    <g>
      <path class="cls-1" d="m111.82,0c1.53,1.05,3.26,1.81,4.6,3.14,2.29,2.27,3.6,5.03,3.58,8.25-.01,2.06.6,2.01,2.22,1.27,11.28-5.18,24.35,1.29,26.82,13.21,2.21,10.63-5.93,21.26-16.78,21.94-4.17.26-8.16-.25-11.75-2.56-.84-.54-1.46-.61-2.26.13-1.34,1.25-3.08,1.77-4.8,2.3-1.6.5-2.2,0-2.19-1.7.06-5.66.01-11.32.02-16.98.02-9.67.06-19.34.1-29.01h.43Zm28.79,29.51c.01-5.78-4.4-10.14-10.25-10.12-5.89.02-10.34,4.35-10.32,10.07.01,5.41,4.71,9.99,10.27,10.01,5.54.02,10.3-4.58,10.31-9.96Z"/>
      <path class="cls-1" d="m189.62,36.82c0,3.71-.02,6.36,0,9.01.02,1.64-.65,2.22-2.27,1.7-1.43-.47-2.97-.8-4.05-1.88-1.13-1.15-2.01-1.01-3.33-.24-9.39,5.46-21.67,1.86-26.61-7.71-5.74-11.13,1.23-24.69,13.63-26.53,10.45-1.55,19.71,4.43,22,14.31.94,4.08.59,8.26.61,11.35Zm-8.99-7.31c0-5.8-4.35-10.13-10.18-10.12-5.89,0-10.39,4.33-10.39,9.98,0,5.42,4.66,10.04,10.18,10.1,5.83.06,10.39-4.32,10.39-9.96Z"/>
      <path class="cls-1" d="m38.34,37.11c0,2.93-.02,5.87,0,8.8.02,1.55-.63,2.1-2.13,1.64-1.37-.42-2.89-.71-3.86-1.78-1.34-1.48-2.42-1.02-3.88-.22-7.81,4.3-17.67,2.73-23.55-3.92C.16,36.24-1.36,29.93,1.3,23.07c2.61-6.75,7.74-10.71,14.83-11.93,11.75-2.03,22.66,7.15,22.22,19.53-.07,2.14-.01,4.29-.01,6.44h0Zm-29.31-7.76c.02,5.76,4.41,10.09,10.24,10.11,5.5.02,10.31-4.61,10.33-9.95.03-5.77-4.52-10.15-10.49-10.12-5.76.03-10.1,4.32-10.08,9.97Z"/>
      <path class="cls-1" d="m107.63,21.45c0,2.86.05,5.73-.01,8.59-.21,9.33-7.98,17.29-16.78,17.86-11.23.73-18.88-8.36-19.57-16.54-.44-5.22-.19-10.44-.24-15.66-.02-2.02.53-2.31,2.34-1.38,4.17,2.13,6.5,5.5,6.69,10.23.07,1.64-.02,3.29.05,4.94.21,5.08,3.95,9.32,8.43,9.61,5.14.34,9.01-2.87,9.99-8.31.6-3.34.25-6.71.26-10.07.02-5.13,2.69-8.41,7-10.68,1.26-.66,1.86-.38,1.86,1.1-.02,3.44,0,6.87,0,10.31,0,0,0,0-.01,0Z"/>
      <path class="cls-1" d="m41.65,30.96c0-4.8.05-9.59-.03-14.39-.03-1.81.62-2.82,2.33-1.97,2.84,1.41,4.94.43,7.39-1.11,4.35-2.74,9.22-3.28,14.26-2.06,1.65.4,2.45,1.25,2.36,3-.09,1.71,0,3.44-.02,5.15-.03,2.29-.06,2.3-2.25,1.22-4.67-2.3-10.06-1.06-13.1,3.01-1.29,1.73-1.85,3.67-1.83,5.82.03,5.01.01,10.02,0,15.03q0,3.17-3.27,3.18c-1.15,0-2.3-.09-3.43.02-1.93.18-2.47-.7-2.44-2.52.09-4.79.03-9.59.03-14.39Z"/>
    </g>
  </g>
</svg>