<?xml version="1.0" encoding="UTF-8"?>
<svg id="Capa_2" data-name="Capa 2" xmlns="http://www.w3.org/2000/svg" viewBox="0 0 40 40">
  <defs>
    <style>
      .cls-1 {
        fill: #fff;
      }
    </style>
  </defs>
  <g id="Capa_1-2" data-name="Capa 1">
    <path class="cls-1" d="m20,0C8.96,0,0,8.96,0,20s8.96,20,20,20,20-8.95,20-20S31.05,0,20,0Zm-11.74,11.88c.18-.07.38-.07.57-.07h22.34c.21,0,.41,0,.6.08.08.03.19.05.2.15.02.09-.09.12-.15.17-1.18.86-2.37,1.73-3.55,2.59-2.68,1.95-5.36,3.91-8.03,5.87-.17.12-.28.12-.45,0-3.86-2.82-7.73-5.63-11.59-8.44-.08-.05-.21-.08-.18-.2.02-.09.14-.12.24-.15Zm-.7,14.82c-.09-.05-.04-.17-.04-.25-.01-2.15-.01-4.29-.01-6.44s0-4.29.01-6.43c0-.09-.05-.21.04-.25.09-.04.16.06.23.12,2.88,2.09,5.77,4.19,8.66,6.28q.34.25.01.5c-2.89,2.12-5.78,4.24-8.67,6.36-.07.05-.14.15-.23.11Zm24.29,1.4c-.22.09-.46.1-.69.1H8.88c-.24,0-.48,0-.7-.1-.21-.09-.22-.13-.03-.26.55-.41,1.11-.82,1.67-1.23,2.59-1.9,5.19-3.81,7.78-5.71.16-.13.28-.13.45-.01.48.36.97.71,1.45,1.07.42.3.62.29,1.03-.01.5-.36.99-.71,1.48-1.08.14-.11.24-.1.38,0,2.63,1.93,5.25,3.86,7.88,5.79.54.39,1.08.78,1.61,1.18.19.14.19.17-.03.26Zm.65-1.32c-1.93-1.41-3.86-2.83-5.79-4.25-1.08-.79-2.17-1.58-3.25-2.38-.22-.16-.22-.18.01-.34,2.98-2.18,5.97-4.36,8.95-6.54.03-.01.06-.03.08-.05v13.56Z"/>
  </g>
</svg>