<?xml version="1.0" encoding="UTF-8"?>
<svg id="Capa_2" data-name="Capa 2" xmlns="http://www.w3.org/2000/svg" viewBox="0 0 189.67 100">
  <defs>
    <style>
      .cls-1 {
        fill: #fff;
      }
    </style>
  </defs>
  <g id="Capa_1-2" data-name="Capa 1">
    <g>
      <path class="cls-1" d="m137.81,82.84c-.01-3.85,1.1-7.34,3.44-10.4,2.67-3.49,6.21-5.61,10.53-6.41,3.53-.65,6.99-.36,10.32.98,4.23,1.71,7.28,4.68,9.08,8.89.91,2.12,1.34,4.33,1.37,6.63.03,2.08-.26,4.1-.95,6.07-.71,2.02-1.76,3.83-3.15,5.45-1.53,1.78-3.36,3.16-5.47,4.17-1.99.96-4.1,1.47-6.3,1.66-2.84.24-5.58-.18-8.23-1.2-2.35-.91-4.38-2.29-6.09-4.13-2.48-2.65-3.92-5.81-4.42-9.4-.11-.77-.11-1.55-.12-2.32Zm17.32-8.64c-4.7.05-8.56,3.58-8.58,8.62-.02,4.75,3.58,8.63,8.62,8.64,4.94,0,8.62-3.69,8.64-8.62.02-5-3.85-8.64-8.67-8.65Z"/>
      <path class="cls-1" d="m42.47,71.01c0,1.35,0,2.71,0,4.06,0,.65-.06.68-.62.37-1.26-.7-2.64-1.08-4.05-1.3-1.41-.22-2.84-.27-4.26-.03-1.87.31-3.53,1.07-4.88,2.41-1.42,1.4-2.24,3.11-2.45,5.12-.2,1.97.14,3.82,1.17,5.51,1.11,1.82,2.73,3,4.76,3.62,1.54.47,3.12.53,4.71.37,1.76-.18,3.43-.69,5.01-1.46.08-.04.16-.08.25-.11.2-.08.32,0,.34.2.02.12.02.25.02.38,0,2.53,0,5.05,0,7.58,0,.68-.02.7-.7.85-1.36.31-2.72.58-4.1.73-4.81.53-9.33-.24-13.39-2.99-3.74-2.54-6-6.07-6.83-10.51-.63-3.38-.36-6.69.86-9.9.99-2.6,2.56-4.79,4.7-6.58,2.62-2.19,5.64-3.45,9.01-3.91,1.06-.14,2.12-.22,3.18-.2,1.85.03,3.66.32,5.46.72.42.09.85.18,1.27.27.48.1.53.15.53.65,0,1.39,0,2.78,0,4.17Z"/>
      <path class="cls-1" d="m129.18,71.02c0,1.28,0,2.56,0,3.84,0,.13,0,.25,0,.38-.02.42-.08.46-.44.27-1.3-.7-2.69-1.14-4.15-1.36-1.74-.26-3.49-.33-5.21.14-2.93.81-5,2.59-6.02,5.49-.63,1.79-.63,3.63-.07,5.43,1.08,3.48,3.59,5.31,7.08,5.86,2.83.44,5.53-.11,8.1-1.36.67-.32.71-.3.71.46,0,2.49,0,4.98,0,7.47,0,.09,0,.18,0,.27-.02.43-.05.47-.48.59-.96.26-1.93.46-2.92.6-1.57.23-3.15.39-4.74.34-2.5-.08-4.9-.56-7.21-1.54-1.82-.77-3.44-1.83-4.88-3.16-1.16-1.07-2.11-2.32-2.89-3.7-1.07-1.88-1.72-3.9-1.99-6.03-.48-3.78-.02-7.42,1.77-10.83.63-1.2,1.4-2.31,2.32-3.32,2.81-3.1,6.34-4.82,10.44-5.45,2.36-.36,4.71-.25,7.06.15,1.02.17,2.01.42,3.02.63.47.1.52.15.52.66,0,1.39,0,2.78,0,4.17Z"/>
      <path class="cls-1" d="m73.13,95.31c0-1.01,0-2.02,0-3.03,0-.14,0-.29,0-.43.01-.24.15-.31.37-.26.12.03.25.06.37.09,1.95.55,3.93.92,5.96,1.06,1.57.11,3.1.02,4.62-.36.58-.15,1.12-.4,1.61-.76,1.26-.94,1.31-2.74.1-3.76-.69-.58-1.51-.89-2.35-1.2-1.23-.47-2.55-.65-3.77-1.18-1.63-.71-3.19-1.53-4.46-2.82-1.35-1.38-2.12-3.02-2.36-4.94-.23-1.81-.07-3.57.61-5.26.87-2.17,2.41-3.74,4.45-4.84,1.76-.95,3.66-1.39,5.65-1.57,3.16-.28,6.22.29,9.29.9.45.09.5.16.5.62,0,1.91,0,3.83,0,5.74,0,.55-.08.61-.61.48-1.61-.4-3.25-.72-4.9-.85-1.5-.12-3-.08-4.44.43-.27.1-.53.22-.79.36-1.51.82-1.34,2.82-.12,3.65.7.48,1.47.77,2.25,1.05,1.05.38,2.12.72,3.17,1.1,1.74.62,3.32,1.53,4.64,2.82,1.81,1.76,2.83,3.89,2.87,6.45.02,1.52-.24,2.98-.83,4.38-.71,1.67-1.84,3.01-3.31,4.06-2.02,1.44-4.31,2.16-6.73,2.51-1.32.19-2.66.29-4,.21-2.09-.12-4.18-.26-6.25-.58-.36-.05-.71-.1-1.07-.16-.43-.07-.47-.1-.47-.56,0-1.12,0-2.24,0-3.36h0Z"/>
      <path class="cls-1" d="m135.98,26.1c0-7.24,0-14.47,0-21.71,0-.91.2-1.74.7-2.51.43-.66,1.02-1.12,1.71-1.45,2.14-1.02,4.37-.06,5.42,1.58.42.65.59,1.39.64,2.16.01.18,0,.36,0,.54,0,14.24,0,28.48,0,42.72,0,.42-.02.83-.09,1.24-.32,1.97-2,3.41-3.99,3.46-1.45.03-2.64-.49-3.55-1.63-.56-.7-.84-1.51-.84-2.4,0-2.22,0-4.44,0-6.66,0-5.11,0-10.22,0-15.32h0Z"/>
      <path class="cls-1" d="m53.98,26.09c0,7.19,0,14.37,0,21.56,0,.45,0,.9-.11,1.35-.43,1.74-2.06,3.03-3.85,3.12-2.13.11-3.69-1.21-4.24-2.74-.17-.48-.24-.98-.27-1.49-.01-.2,0-.4,0-.6,0-14.17,0-28.35,0-42.52,0-.45,0-.9.1-1.35C45.97,1.56,47.51,0,49.78,0c2.47.01,4.19,1.9,4.2,4.09,0,4.55,0,9.1,0,13.65,0,2.78,0,5.56,0,8.34Z"/>
      <path class="cls-1" d="m53.95,82.72c0-5.2,0-10.4,0-15.6q0-.85.83-.85c2.28,0,4.55,0,6.83,0,.11,0,.22,0,.33,0,.41.02.47.08.49.48,0,.16,0,.32,0,.49,0,10.33,0,20.66,0,30.98q0,1-.97,1c-2.19,0-4.37,0-6.56,0-.07,0-.14,0-.22,0-.71,0-.73-.02-.73-.73,0-5.25,0-10.51,0-15.76Z"/>
      <path class="cls-1" d="m158.54,29.77c0-3.25,0-6.5,0-9.75,0-.73.13-1.43.44-2.1,1.23-2.66,4.82-3.15,6.82-1.19.63.62,1.06,1.38,1.18,2.27.06.45.12.89.12,1.35,0,6.28,0,12.56,0,18.85,0,.96-.13,1.9-.64,2.76-.88,1.46-2.62,2.27-4.32,1.99-1.77-.3-3.12-1.58-3.47-3.29-.08-.41-.12-.82-.12-1.24,0-3.21,0-6.43,0-9.64Z"/>
      <path class="cls-1" d="m31.43,30.09c0,3.14,0,6.28,0,9.43,0,1.06-.27,2.03-.93,2.88-1.42,1.85-4.35,2.13-6.09.59-.88-.78-1.38-1.73-1.47-2.92-.04-.63-.07-1.26-.07-1.89,0-5.89,0-11.77,0-17.66,0-.9.04-1.81.43-2.65.67-1.43,1.77-2.23,3.38-2.3,1.05-.04,2,.19,2.83.86.88.71,1.42,1.62,1.57,2.75.03.21.04.42.2.6.19.21.13.48.13.73,0,2.6,0,5.2,0,7.8,0,.6,0,1.19,0,1.79Z"/>
      <path class="cls-1" d="m68.15,29.77c0-3.32,0-6.64,0-9.96,0-1.68.74-2.96,2.2-3.77,1.86-1.04,4.71-.52,5.86,1.89.27.57.42,1.19.42,1.83,0,6.68,0,13.36-.01,20.04,0,1.68-.79,2.97-2.28,3.72-1.46.73-2.95.68-4.33-.24-1.2-.8-1.85-1.96-1.85-3.42,0-3.36,0-6.71,0-10.07h0Z"/>
      <path class="cls-1" d="m121.82,29.77c0,3.34,0,6.68,0,10.02,0,1.76-.84,3.06-2.41,3.8-2.61,1.22-5.85-.4-6.05-3.63,0-.11,0-.22,0-.32,0-6.61,0-13.21,0-19.82,0-1.54.63-2.78,1.93-3.6,2.41-1.53,5.82-.4,6.47,2.74.07.34.06.68.06,1.02,0,3.27,0,6.53,0,9.8Z"/>
      <path class="cls-1" d="m8.56,35.43c0,1.41,0,2.81,0,4.22,0,1-.29,1.91-.91,2.72-1.44,1.89-4.4,2.14-6.18.55C.4,41.97.02,40.76.01,39.39c-.02-2.62-.02-5.23,0-7.85,0-.73.07-1.47.38-2.17,1.16-2.65,4.58-3.41,6.81-1.42.94.84,1.33,1.96,1.35,3.2.02,1.43,0,2.85,0,4.28Z"/>
      <path class="cls-1" d="m99.25,35.41c0,1.28,0,2.56,0,3.84,0,.54-.04,1.09-.18,1.61-.35,1.32-1.18,2.25-2.43,2.79-2.33,1.01-5.07-.29-5.75-2.74-.15-.54-.18-1.1-.18-1.66-.01-2.6-.01-5.2,0-7.79,0-1.43.41-2.68,1.55-3.66,1.65-1.41,4.39-1.24,5.84.36.86.95,1.13,2.07,1.15,3.29.02,1.32,0,2.63,0,3.95Z"/>
      <path class="cls-1" d="m181.18,35.41c0-1.46,0-2.92,0-4.38.01-2.02,1.37-3.72,3.34-4.11,2.73-.54,5.07,1.4,5.12,3.99.05,2.99.03,5.99,0,8.98-.02,2.04-1.49,3.67-3.56,4.04-1.95.34-3.95-.79-4.65-2.65-.19-.49-.26-1.01-.26-1.54,0-1.44,0-2.89,0-4.33Z"/>
    </g>
  </g>
</svg>