<?xml version="1.0" encoding="UTF-8"?>
<svg id="Capa_2" data-name="Capa 2" xmlns="http://www.w3.org/2000/svg" viewBox="0 0 30 30">
  <defs>
    <style>
      .cls-1 {
        fill: #fff;
      }
    </style>
  </defs>
  <g id="Capa_1-2" data-name="Capa 1">
    <path class="cls-1" d="m.01,29.96C.01,20.13.01,10.31,0,.48,0,.08.08,0,.48,0c9.83.01,19.66.01,29.48.01,0,.1.03.19.03.29,0,9.69,0,19.38.01,29.06,0,.49-.2.64-.66.64-2.69-.01-5.38-.01-8.07,0-.48,0-.66-.18-.66-.65,0-3.45,0-6.9,0-10.35,0-.46.17-.67.66-.66.88.02,1.75,0,2.63.01.42,0,.65-.11.7-.57.13-1.16.28-2.32.45-3.48.07-.44-.08-.6-.52-.59-1.09.02-2.18,0-3.27,0-.44,0-.65-.16-.64-.61.01-.84-.02-1.68.01-2.51.05-1.28.72-1.92,2-1.94.64-.01,1.29-.02,1.93,0,.45,0,.63-.2.63-.64-.01-.94-.01-1.87,0-2.81,0-.48-.22-.66-.68-.66-.74.01-1.48,0-2.22,0-.74,0-1.49-.06-2.21.11-2.41.58-3.95,2.48-4.02,4.96-.03,1.05,0,2.1-.01,3.16,0,.91-.02.93-.91.93-.82,0-1.64.01-2.46,0-.43,0-.59.17-.59.59.01,1.15.01,2.3,0,3.45,0,.43.17.59.59.59.84-.01,1.68,0,2.51,0,.8,0,.84.04.84.82,0,3.33,0,6.67,0,10,0,.79-.04.83-.82.83-4.39,0-8.77,0-13.16,0-.68,0-1.36-.02-2.04-.03Z"/>
  </g>
</svg>