<svg xmlns="http://www.w3.org/2000/svg" width="1366" height="768" version="1.0" viewBox="0 0 1024.5 576"><defs><clipPath id="a"><path d="M0 126h1024v362H0Zm0 0"/></clipPath></defs><g clip-path="url(#a)"><path fill="#710ede" d="M904.664 358.39c4.594-2.624 8.965-5.25 13.559-7.87 1.093-.438 2.187-1.094 3.058-1.75 5.032-2.407 9.84-4.813 14.871-7.215 48.758-14.434 96.645-31.926 143.657-48.98l-.22-.657c-45.698 16.617-92.054 33.453-139.503 47.668l5.687-2.844c40.668-12.898 81.122-27.332 121.79-43.293l-.22-.656q-58.709 22.959-117.417 41.98l3.5-1.746c34.547-11.808 68.875-24.492 102.11-38.703l-.22-.656c-31.703 13.559-64.28 25.8-97.3 36.953l3.062-1.75c27.77-10.277 55.54-21.43 82.434-33.89l-.219-.657c-24.926 11.809-50.73 22.082-76.75 31.922l5.906-3.277c20.114-8.309 40.012-17.274 59.035-27.114l-.437-.656c-16.836 8.746-34.328 16.617-52.04 24.27 13.556-7.434 26.895-15.086 40.231-22.739l-.433-.656a2405 2405 0 0 1-47.012 26.457c-4.375 1.969-8.965 3.715-13.34 5.465 16.836-10.277 33.02-20.555 48.543-30.61l-.437-.656c-16.836 10.711-34.329 22.082-52.914 33.235l-7.872 3.281c17.274-11.59 33.454-23.617 48.977-34.984l-.437-.657c-16.399 12.024-33.672 24.707-52.04 36.95-5.683 2.187-11.152 4.375-16.836 6.562 19.899-12.902 38.922-27.113 57.07-42.422l-.437-.652c-19.023 15.96-38.922 30.61-59.914 44.168 16.836-13.34 33.02-27.55 48.324-42.86l-.656-.437a540 540 0 0 1-50.289 44.387l-.875.219c13.992-13.774 27.113-28.204 39.356-43.512l-.657-.438a491 491 0 0 1-40.668 44.606l-1.53.656a439 439 0 0 0 30.831-43.95l-.656-.437c-9.621 15.528-20.117 30.614-31.488 44.825l-1.965.656c8.09-14.43 15.523-29.301 22.082-44.606l-.656-.218c-6.559 15.523-13.993 30.613-22.52 45.261l-.219.219-1.968.656c5.246-14.648 9.84-29.738 13.336-45.043l-.872-.218c-3.718 15.304-8.312 30.613-13.558 45.48l-14.649 4.59-20.992 5.906c-16.836 3.934-33.672 7.215-50.726 9.84-20.555 3.277-41.547 5.465-62.317 6.777l-4.156-.656c-1.531-.437-3.059-1.094-4.371-1.75s-3.063-1.75-4.594-2.84c-1.531-1.094-3.277-2.625-4.808-3.937l-3.063-3.063-1.75-1.965-.437-.656-2.84-3.719-1.313-1.75-.437-.875c-1.313-1.964-2.625-3.933-4.157-5.902-1.53-2.406-2.84-4.809-4.37-7.215-1.532-2.406-2.844-5.031-4.376-7.652-1.53-2.625-2.84-5.25-4.152-7.871-1.312-2.625-2.625-5.25-3.937-7.656-1.313-2.403-2.625-5.465-3.934-8.09-11.809-26.239-26.895-50.946-51.824-63.848-25.801-13.117-60.13-10.93-87.899 5.688-28.86 17.273-45.261 44.824-54.445 66.468-22.3-13.336-43.95-28.203-65.156-42.636-46.356-31.922-94.461-64.723-149.344-80.247-32.36-8.964-66.25-11.37-99.484-7.214-3.063.218-6.125.218-8.965.656h-6.344c-2.84-.219-5.902-.219-8.746-.438l-5.902-.656c-2.188-.437-4.594-.875-6.778-1.312-2.187-.438-4.812-1.313-7-1.97-1.965-.655-3.933-1.308-5.902-2.183s-3.934-1.75-6.121-2.625-3.938-2.187-5.903-3.281c-1.53-1.094-3.062-1.965-4.593-3.059-1.75-1.53-3.72-3.062-5.465-4.375a62 62 0 0 0-5.688-5.027c-9.84-11.152-21.644-20.336-34.765-27.332-20.555-10.496-44.387-12.246-66.25-4.812-15.528 6.125-27.114 16.398-33.02 30.394l.656.219c5.907-13.559 17.274-23.832 33.02-29.52 21.644-7.433 45.258-5.683 65.594 4.813 10.933 5.902 20.992 13.336 29.738 22.3a125.4 125.4 0 0 0-27.988-16.835c-34.328-14.868-83.746-5.903-99.926 30.394l.656.219c15.961-35.86 64.942-44.606 99.05-29.957 12.028 5.246 23.177 12.465 33.017 21.21l.218.22c-9.62-6.782-20.332-12.247-31.703-15.965-18.586-5.903-38.484-6.121-57.07-.219-20.117 6.344-35.422 19.023-43.074 35.86l.656.218c16.398-35.422 64.723-46.789 99.488-34.984a124.2 124.2 0 0 1 34.11 17.93l1.093 1.093c-10.496-6.12-21.867-10.496-33.453-13.555-35.64-8.746-82.87 4.153-100.363 40.887l.656.219c17.055-36.297 63.848-49.195 99.27-40.45 12.46 3.06 24.27 8.09 35.203 14.65l1.094 1.312a138.7 138.7 0 0 0-34.766-10.496c-19.242-2.844-39.14-.438-57.07 6.996-19.899 8.308-34.985 21.867-43.293 39.14l.656.438c18.148-37.172 64.937-51.168 99.707-45.7 12.46 1.97 24.488 5.684 36.074 11.153l1.313 1.527c-11.586-3.933-23.614-6.34-35.86-7.215-34.765-2.62-81.12 12.465-100.797 51.383h.657c19.457-38.699 65.593-53.351 99.922-50.945 12.464.875 24.93 3.5 36.734 7.652.437.656.875 1.094 1.312 1.75a159.3 159.3 0 0 0-35.203-3.933h-1.531c-35.64.218-80.902 17.93-101.016 56.629l.653.437c19.898-38.48 64.722-55.758 100.144-56.195h1.532c12.027 0 24.05 1.312 35.859 4.156l1.531 1.969c-12.465-1.531-25.144-1.969-37.61-.875-32.796 2.844-79.152 20.773-101.019 61.879l.657.437C16.93 200.738 62.848 182.81 95.645 179.97c12.683-1.094 25.582-.875 38.265.875.438.656 1.094 1.531 1.531 2.183-12.902-.652-25.804.22-38.484 2.407-33.89 5.687-78.496 26.238-101.02 66.91l.657.437c22.304-40.672 66.691-61.008 100.8-66.472 12.899-2.188 26.02-2.844 38.918-2.188.438.875 1.094 1.531 1.75 2.406-13.335.438-26.457 2.407-39.355 5.465-43.95 10.496-81.996 37.39-101.457 72.156l.656.22c19.461-34.548 57.29-61.442 101.02-71.72 13.117-3.058 26.238-4.808 39.793-5.464l1.531 2.406a210.3 210.3 0 0 0-40.012 8.527c-44.386 13.555-81.34 41.762-101.894 77.184l.656.437c20.555-35.422 57.285-63.41 101.238-77.183 13.117-4.157 26.676-6.996 40.23-8.528.657.875 1.095 1.746 1.75 2.403-13.995 2.625-27.55 6.562-40.89 11.59-43.95 16.835-80.246 46.136-101.89 82.652l.656.437c21.426-36.296 57.504-65.597 101.453-82.214 13.34-5.028 27.113-8.965 41.11-11.59.437.875 1.093 1.53 1.53 2.406-14.214 3.719-28.207 8.527-41.546 14.648C59.566 229.82 23.27 260.871.75 298.043l.656.437c22.52-37.171 58.598-68.222 101.89-87.464 13.56-6.121 27.333-10.93 41.766-14.649.653.875 1.09 1.75 1.747 2.625C87.555 218.234 34.64 256.715 1.844 309.41l.656.438c32.578-52.696 85.492-91.18 144.527-110.2 4.813 7.653 9.184 15.086 13.559 22.082l85.273 143.22c20.118 33.671 42.637 71.718 76.313 96.863 19.676 14.652 46.351 25.363 72.808 25.363a81.62 81.62 0 0 0 56.852-21.426c4.594-2.844 9.184-6.125 13.121-9.84 4.59-2.844 8.965-5.902 12.899-9.62 4.812-2.845 9.402-6.122 13.558-9.84 4.809-2.626 9.184-5.903 13.336-9.622 4.813-2.625 9.402-5.902 13.559-9.621 5.027-2.621 9.62-5.902 13.773-9.621 5.25-2.621 10.059-5.902 14.434-9.621 5.246-2.621 10.273-5.684 14.867-9.402 5.465-2.403 10.715-5.247 15.742-8.747 5.246-1.746 10.059-3.933 15.086-6.558l2.406-1.313a214 214 0 0 0 7.871-1.965c3.938-1.093 7.653-2.187 11.371-3.28 6.997 0 13.774-.438 20.336-.876 17.711 3.719 35.422 6.34 53.352 7.653 13.555 1.093 27.55 1.75 41.543 1.75h5.246c13.34 24.925 31.707 47.449 59.04 54.664 34.765 9.183 70.187-11.371 89.648-35.86 8.308-10.715 15.304-22.304 20.77-34.547Zm-292.121 8.09h-7.652l.656-.437c2.625-1.531 5.246-2.844 7.871-4.375 2.844.656 5.902 1.531 8.746 2.187l-2.187.657-6.34 1.968Zm-121.79 69.75c-1.312.875-2.843 1.532-4.155 2.188l-1.313.656c1.75-1.969 3.281-3.937 4.813-5.906 1.968-.438 3.933-1.09 5.683-1.746-1.531 1.527-3.277 3.058-5.027 4.808m-13.339 9.84-2.621 1.532-2.406 1.093c1.531-1.968 3.058-3.718 4.59-5.906 1.968-.437 3.718-1.094 5.468-1.746-1.75 1.746-3.5 3.277-5.03 5.027m-27.113 19.68c-34.985 20.117-80.465 7.652-109.762-13.559-34.766-25.144-59.039-62.535-80.246-95.332-20.992-32.359-43.297-66.472-66.473-100.144-8.308-12.242-17.054-24.707-26.457-38.047-5.027-6.996-10.058-13.992-15.086-20.55l3.715-1.095c5.688 6.34 11.371 12.68 17.055 19.461 10.058 12.024 19.898 24.051 29.082 35.641 25.144 31.922 49.2 65.594 71.719 97.3 22.742 32.36 48.761 68.876 84.62 94.24 17.493 12.245 42.419 22.96 67.563 22.96 10.496 0 20.774-1.969 30.395-5.906-1.531 1.75-3.281 3.281-4.813 4.812Zm134.254-100.582c2.625-3.063 5.468-6.34 8.527-9.402 3.063 1.093 6.125 1.968 9.184 2.843-3.059 2.407-6.121 5.028-8.965 7.434-2.84-.219-5.684-.438-8.746-.875m-25.145 18.148h-.219c-2.406.22-4.808.22-7.433.22 2.187-3.282 4.152-6.56 5.902-10.06 2.625.438 5.25.876 8.09 1.094-1.965 2.625-3.934 5.465-6.121 8.09Zm-420.472-204.66.875.656-.875-.218-.657-.656Zm453.925 176.235c-3.277-1.094-6.34-2.188-9.402-3.278l3.281-3.937c11.153-13.34 25.582-23.832 41.762-30.176 18.367-7.215 39.36-7.652 56.195-1.527 13.555 5.027 24.051 13.554 33.235 23.175l.218.657 1.094 2.625.219.656c-8.746-8.094-19.024-14.215-30.172-18.149-17.059-5.25-35.426-5.03-52.262.872-15.086 5.25-28.64 13.558-40.011 24.71-1.532 1.747-2.844 3.06-4.157 4.372m-105.172 69.093c-2.406 0-4.808-.218-7.214-.218 1.53-3.715 3.062-7.434 4.59-11.368 2.406.438 5.03 1.094 7.437 1.313-1.531 3.496-3.063 6.996-4.813 10.273m-337.164-238.77 1.75 1.095h-2.187l-1.531-1.313Zm-3.28-1.312-1.095-.875 1.532.22 1.312.874Zm21.648 5.032-1.97.218-1.312-.656h1.75Zm333.882 198.539c2.625 1.09 5.25 1.964 8.09 2.84-1.09 2.843-1.965 5.906-3.277 8.746-.438 1.093-.875 2.187-1.313 3.5-2.625-.438-5.246-.875-7.652-1.75 1.313-4.59 2.625-8.965 4.152-13.336m-5.027 13.117c-2.625-.656-5.246-1.531-7.871-2.406a175 175 0 0 0 3.933-14.43c2.625 1.312 5.25 2.406 8.31 3.5-1.528 4.371-3.06 8.746-4.372 13.336m5.246-13.992c1.531-4.813 2.844-9.84 4.156-14.653l8.528 3.938c-1.532 4.59-3.063 8.965-4.594 13.555-2.84-.875-5.465-1.747-8.09-2.84m-.875-.22a136 136 0 0 1-8.308-3.5c1.093-4.151 2.187-8.526 3.28-12.683.22-1.09.438-2.183.876-3.277 1.75.875 3.5 1.969 5.246 2.844l3.281 1.746c-1.531 5.031-2.844 9.84-4.375 14.87m-5.683-16.398c-1.094 4.153-2.188 8.31-3.063 12.461-2.621-1.312-5.246-2.625-7.871-4.152-42.418-23.836-80.027-56.195-113.262-84.84-31.703-26.894-68.656-57.504-109.11-78.058-15.085-7.653-30.609-13.996-46.788-18.805-9.403-2.844-18.805-5.027-28.426-6.777l1.965-.22c28.207 2.622 55.758 9.84 81.777 21.427 42.422 18.804 81.121 48.761 113.922 75.218l.434.438c34.988 28.207 71.28 57.504 111.296 80.027ZM216.125 197.46c16.18 4.81 31.703 11.153 46.79 18.587 40.233 20.55 77.187 50.945 108.67 78.058 33.235 28.645 70.845 61.004 113.481 85.055 2.407 1.313 5.032 2.625 8.09 4.156-1.308 4.809-2.62 9.84-3.933 14.43-7.434-2.621-14.868-6.121-21.649-10.055-38.918-22.742-72.375-52.48-109.324-86.152-30.176-27.55-65.379-58.816-103.426-80.902-14.21-8.309-29.082-15.305-44.387-21.207-8.964-3.282-17.93-6.344-27.113-8.746l2.406-.438a254 254 0 0 1 30.395 7.215m272.66 201.161c-.656 2.188-1.312 4.594-1.969 6.781-.656 2.184-1.312 4.153-2.187 6.121-12.461-3.062-24.488-7.87-35.422-14.652-38.262-23.176-70.187-53.351-105.172-87.46-29.953-29.298-62.098-59.911-98.176-83.524-13.336-8.746-27.332-16.617-41.761-23.617-8.746-4.153-17.055-7.653-25.364-10.711l2.621-.438c9.622 2.621 19.243 5.684 28.645 9.184 15.309 5.902 30.176 12.898 44.168 20.988 38.047 22.086 73.25 53.352 103.426 80.902 36.734 33.672 70.406 63.41 109.324 86.149 6.781 4.156 14.215 7.437 21.867 10.277m-307.43-208.375-1.308-.219 1.527-.218 1.313.218Zm-1.746.219-2.406.437-1.75-.656c.656 0 1.531-.219 2.188-.219Zm-3.718.875a58 58 0 0 1-2.844.652l-1.746-.87 2.62-.438Zm-1.97-1.531-1.093-.438 1.969-.219.875.22Zm-1.75.218-2.183.22-1.531-.657 2.188-.219Zm-9.179.22 1.746 1.093-2.84.433-1.75-1.308Zm-3.719-.438-1.75-1.094 2.625-.219a4.8 4.8 0 0 1 1.75 1.094Zm5.028.218 2.625-.218 1.75.656-2.625.437Zm1.094-.875-2.188.22-1.527-.876h2.183Zm-5.247-1.312-1.093-.656h1.75l1.093.437Zm-1.53 0-2.188.219-1.532-.875h2.188Zm-4.81-1.75-1.312-.875 1.746.219 1.313.656Zm-.218.875 1.527 1.094c-.875 0-1.746 0-2.62.218l-1.532-1.312Zm2.62 1.75 1.75 1.312-2.843.438c-.656-.438-1.09-1.094-1.746-1.531Zm2.845 1.969 1.75 1.308-3.063.656-1.75-1.527Zm2.625 1.964 1.965 1.313-3.278.875-1.969-1.75Zm1.093-.218 3.059-.657 1.969 1.094-3.063.875Zm4.372-.871 2.843-.438 1.969.871c-.875.219-1.969.438-2.844.656Zm5.902 1.09c7.871 3.718 15.965 8.09 24.492 12.902a392 392 0 0 1 39.137 26.02c33.89 25.363 64.504 56.632 92.93 86.148 33.234 34.765 63.628 65.597 101.015 88.992 14.652 9.402 31.27 15.527 48.762 17.71-1.531 3.5-3.063 6.782-4.809 9.84-22.086.657-45.043-8.308-61.664-19.023-36.293-23.394-65.375-54.66-96.863-90.082-26.895-30.176-55.973-62.101-87.68-88.992-11.59-10.059-24.05-19.46-36.734-28.426-6.996-4.812-14.211-9.62-21.863-14.215Zm258.012 213.406c-37.387-23.395-67.782-54.004-101.016-88.774-28.426-29.734-59.04-61.004-92.93-86.367-12.68-9.402-25.8-18.148-39.355-26.02q-12.137-7.213-23.617-12.464l3.062-.657a265 265 0 0 1 26.457 11.153c14.43 6.777 28.426 14.652 41.762 23.617 35.86 23.832 68.223 54.227 98.176 83.523 34.984 34.11 66.91 64.504 105.172 87.461 10.933 6.782 22.96 11.809 35.421 14.653-1.308 3.933-3.058 7.652-4.59 11.367-17.273-2.184-33.89-8.09-48.542-17.492m54.226 5.468c.656-1.968 1.313-3.937 1.969-6.12.656-2.188 1.312-4.594 1.969-6.782 2.625.875 5.246 1.75 7.87 2.406 0 .22-.218.657-.218.875-1.312 3.72-2.625 7.434-4.152 10.934-2.407-.219-4.813-.656-7.438-1.313m12.465-9.183c0-.219.219-.656.219-.875 2.625.656 5.246 1.312 7.652 1.75-1.531 3.715-3.062 7.215-4.808 10.496-2.407 0-4.813-.219-7.438-.656 1.75-3.5 3.063-7 4.375-10.715m8.746.875c2.406.437 5.027.656 7.434.875-1.532 3.277-3.278 6.34-5.028 9.402-2.406.219-4.812.219-7 .219 1.532-3.281 3.282-6.781 4.594-10.496m.438-.656 1.312-3.282c1.094-2.84 2.188-5.902 3.277-8.746a52 52 0 0 0 7.875 1.969l-1.312 3.281c-1.094 2.621-2.406 5.246-3.5 7.653-2.625-.22-5.027-.438-7.652-.875m4.808-12.903c1.531-4.59 3.063-8.965 4.594-13.554 2.844 1.093 5.465 2.187 8.309 3.058-1.532 4.156-3.063 8.313-4.813 12.465-2.84-.437-5.465-1.312-8.09-1.969m9.403-29.078c2.625 1.309 5.468 2.621 8.527 4.152-.438 1.532-1.09 2.844-1.527 4.375-1.094 3.06-2.188 6.34-3.5 9.403-2.625-.875-5.465-1.969-8.31-3.063.657-1.968 1.313-3.937 1.75-5.683 1.095-3.063 2.185-6.125 3.06-9.184m221.28 8.09-.655-.219-1.313-1.75.438.219Zm47.665 21.863c16.18 1.75 31.926-5.465 45.918-11.804l4.594-2.188c19.675-8.746 39.574-16.836 59.253-24.707l7.215-1.969c-.437 1.094-.875 1.969-1.312 3.059l-6.778 4.375-2.843 1.75c-16.617 6.996-33.672 13.336-51.164 18.586h-.22c-16.616 12.68-36.952 18.586-54.444 16.398-15.305-2.187-27.77-9.84-38.266-18.804h.875c10.934 7.652 22.742 13.773 37.172 15.304m-35.86-15.304h.875c10.497 6.12 22.305 9.84 34.547 10.714h3.282c13.117 0 26.238-5.25 37.828-9.84l5.027-1.968c18.586-7.215 37.172-13.992 55.758-20.555l2.406-.656c-17.93 7.219-35.86 14.433-53.789 22.523l-4.594 2.188c-13.992 6.34-29.52 13.555-45.48 11.805-13.774-1.094-25.363-6.997-35.86-14.211m-32.14-30.395-.656-1.531.656.656c0 .219.219.438.219.438l1.093 2.625-.656-.657Zm-3.719-5.902c-.437-1.094-.875-1.97-1.094-3.063.22.219.22.438.438.656l1.312 3.063Zm-160.71 2.625c-1.532-.657-3.06-1.532-4.59-2.188l1.312-2.625c8.308-14.867 23.394-35.203 47.664-47.226 22.305-11.153 48.98-12.465 69.316-3.282 17.711 7.871 29.735 21.645 39.793 37.172.219.875.657 1.531.875 2.403-9.402-12.68-20.773-23.832-36.078-30.391-19.68-8.309-44.168-7.434-65.598 2.625-22.738 10.71-37.605 28.64-46.132 41.98-.657 1.094-1.313 2.407-2.188 3.497Zm4.374 2.62c-2.625 4.376-4.812 8.747-6.996 13.122-2.844-1.094-5.906-2.188-8.965-3.5 1.965-4.59 4.153-9.184 6.559-13.555l4.808 2.188c1.532.437 3.063 1.09 4.594 1.746m3.278-3.714c8.308-13.121 22.96-31.05 45.699-41.766 20.992-9.836 45.918-10.93 64.941-2.62 16.18 6.777 27.77 18.804 37.61 32.359l1.093 3.062c-9.183-10.933-19.898-20.336-34.113-26.02-18.363-7.214-41.106-6.562-61.223 2.184-17.71 7.875-32.797 20.336-43.949 36.297-.875 1.313-1.969 2.625-2.84 4.156-3.062-1.312-6.343-2.406-9.402-3.937.656-1.528 1.308-2.621 2.183-3.715m150.218-9.402.219.218 1.09 2.407-.219-.438c-.656-.656-.871-1.531-1.09-2.187m4.153 7.652.218.437 1.094 2.407-.437-.438Zm4.812 8.746-.437-1.094.656.657 1.09 2.187-.438-.437Zm2.184 3.938 1.53 3.277-.874-.656c-.438-1.094-1.094-2.184-1.531-3.278Zm1.75 1.746.437.437 1.313 2.625-.657-.437Zm3.062 5.03c.656 1.095 1.094 1.97 1.75 3.06l-.875-.434-1.75-3.281Zm1.75 1.313.653.438c.437.875 1.093 1.746 1.53 2.402l-.655-.437c-.657-.657-1.09-1.528-1.528-2.403m3.278 4.59c.656.875 1.312 1.969 1.968 2.844l-.218-.219-.657-.219c-.656-1.093-1.093-1.968-1.75-3.062Zm11.59 10.715h-.876c-.656-.656-1.312-1.312-1.968-2.187l.875.218Zm42.636 24.707c19.242 3.063 41.543-3.933 59.254-18.805 11.59-3.933 22.96-8.527 34.113-13.554l-8.09 5.465c-7 3.28-14.433 6.558-21.867 9.402-14.43 13.121-38.484 25.582-62.972 20.992-17.93-3.281-31.704-14.215-43.512-27.55h1.094c11.152 11.37 24.488 21.21 41.98 24.05m-40.887-24.05h1.094c10.93 9.402 23.613 17.273 39.356 19.46 17.492 2.403 38.046-3.719 54.882-16.398 16.18-4.813 31.704-10.496 47.012-16.84l-3.937 2.625c-12.68 5.687-25.582 10.934-38.7 15.523h-.218c-17.711 14.872-39.578 21.868-58.602 18.805-16.836-2.621-29.957-12.023-40.887-23.176m122.008-.22c-4.375 2.844-8.746 5.903-12.902 8.747-20.988 14.43-43.73 28.207-67.344 23.613-19.68-3.934-34.11-16.399-45.918-31.922h1.094c11.808 13.774 25.8 24.926 44.387 28.207 24.707 4.59 49.199-8.09 63.629-21.21 5.683-2.407 11.37-4.81 17.054-7.434m-125.726-.437h-1.094l-1.969-2.625 1.094.219Zm-3.934-3.5-1.969-2.621.875.437c.657.875 1.313 1.747 1.965 2.403Zm-2.625-3.934-1.531-2.406.656.438c.438.875 1.094 1.531 1.75 2.187Zm-.437.657c.656 1.093 1.312 1.968 2.187 3.058l-1.094-.218q-.984-1.636-1.968-3.278Zm2.625 3.933c.656 1.094 1.527 1.97 2.183 2.844h-1.094l-2.183-3.062Zm2.84 3.72c12.027 15.522 26.894 28.644 46.792 32.577 24.051 4.813 46.793-8.965 68-23.613 5.688-3.938 11.371-7.652 17.055-11.59 4.156-1.969 8.313-3.934 12.246-6.121l-8.527 6.559-16.617 12.683c-20.993 15.961-45.918 31.485-71.72 26.02-20.991-4.594-36.296-19.243-48.542-36.297Zm136.66-5.903 7.433-4.813 6.777-3.281-3.277 2.406c-3.5 2.188-7.215 3.938-10.933 5.688m11.808-7.657 3.277-2.183 3.5-1.531-1.312 1.093Zm20.988-15.085h-.437l.656-.657.656-.218Zm-1.75.656-1.308.219.437-.657 1.309-.437Zm-.87.875c-.438.437-.657.875-1.094 1.312l-.875.438c.218-.438.656-1.094.875-1.531Zm-1.094-.875-.438.656-1.75.438.219-.22 1.312-.655Zm-.875 1.531-1.313 2.188-1.312.87c.437-.87.656-1.745 1.093-2.62Zm-2.188 3.715-.875.656v-.219Zm-2.187 1.75-2.403 1.969-2.406 1.093 5.027-3.28c-.218-.22-.218 0-.218.218m-2.184 2.406.871-.437-.437.437-1.309.656Zm4.371-8.09-1.531.438 1.531-.656ZM751.172 374.79l-1.313-1.094.657.22 1.308 1.093Zm-1.094 0h-1.094c-.437-.656-1.093-1.094-1.53-1.75l.874.219Zm-2.844-2.406-.875-.219-1.312-1.531.656.219Zm-1.968-.438-.875-.218-1.746-2.184.652.219Zm-6.121-6.996-.438-.437Zm-1.75-1.094-.438-.218-1.094-1.75.219.218h.219Zm-5.028-5.902-.437-.219c-.438-.656-.657-1.093-1.094-1.75l.219.22Zm-4.812-6.777-.22-.219-.437-1.094-.218-.656.218.219Zm-4.809-7.438-.656-1.527Zm-12.683-23.832c-9.84-14.21-21.645-27.113-38.266-34.547-20.77-9.183-47.664-8.09-69.969 3.282-24.488 12.242-39.574 32.578-48.101 47.664-.438.875-.875 1.75-1.532 2.625-3.062-1.532-6.34-2.844-9.402-4.375l.656-1.528c8.528-16.617 23.832-39.359 49.852-52.914 23.617-12.683 52.039-13.996 73.906-3.937 19.023 8.746 31.922 24.926 42.418 42.418 0 .437.219.875.438 1.312m-158.086 19.899c-2.407 4.37-4.594 8.965-6.559 13.554-1.969-.875-3.719-1.746-5.688-2.62l-3.058-1.532c1.965-4.594 3.933-9.402 6.121-13.996 2.844 1.531 6.121 3.062 9.184 4.594m-12.684 11.59c1.969.87 3.937 1.746 5.687 2.62-1.968 4.594-3.937 9.184-5.687 13.56a179 179 0 0 1-8.527-3.282c1.75-4.809 3.5-9.621 5.468-14.43Zm-.219 17.054v.219c-1.746 4.152-3.496 8.309-5.246 12.242-2.625-.656-5.465-1.312-8.09-2.402 1.094-3.281 2.188-6.344 3.496-9.403.438-1.312 1.094-2.843 1.532-4.375 2.406 1.532 5.25 2.625 8.308 3.72m-13.773 11.149c2.625.875 5.465 1.75 8.09 2.406-1.532 3.5-3.063 7.215-4.809 10.715l-.219.437c-2.625-.219-5.031-.656-7.656-1.094a392 392 0 0 1 4.594-12.464m3.933 13.34c1.75-3.5 3.5-7.215 5.032-10.934 2.625.656 5.246 1.094 7.87 1.531-1.093 1.969-1.968 3.938-3.062 5.684-.875 1.531-1.746 2.844-2.402 4.156-2.406 0-5.031 0-7.438-.437m5.25-11.59c1.75-4.153 3.496-8.309 5.028-12.243l.218-.218c2.625.875 5.47 1.965 8.31 2.62a271 271 0 0 1-5.685 11.372c-2.406-.438-5.246-1.094-7.87-1.531m5.465-13.336c1.75-4.375 3.719-8.965 5.688-13.559 3.058 1.313 5.902 2.406 8.746 3.5-1.75 3.496-3.5 6.996-5.031 10.277-.438.875-.657 1.532-1.094 2.184-2.621-.652-5.465-1.527-8.309-2.402m10.278.656c1.75-3.5 3.28-7 5.03-10.496 3.06 1.094 5.903 2.187 8.747 3.058-1.313 2.188-2.625 4.375-3.719 6.563l-2.844 4.809c-2.84-.438-5.464-1.094-8.308-1.97Zm5.464-10.934c2.188-4.375 4.594-8.746 7-13.12 3.059 1.312 6.121 2.624 9.403 3.937-2.625 4.152-5.25 8.09-7.657 12.246-2.84-1.094-5.902-2.188-8.746-3.063m17.059-8.964c3.059 1.093 6.121 2.406 9.398 3.496-2.84 3.718-5.464 7.437-8.09 11.152-2.84-.656-5.683-1.531-8.745-2.402 2.187-4.375 4.812-8.313 7.437-12.246m.434-.657 2.625-3.937c11.152-15.742 26.238-27.985 43.73-35.86 19.899-8.527 42.422-9.402 60.57-2.183 14.868 5.902 25.801 16.18 35.203 27.77.438 1.09.872 2.402 1.31 3.714-8.747-9.84-19.895-17.273-32.142-22.082-16.835-6.344-38.046-5.687-56.851 1.527-16.399 6.563-30.828 17.06-41.98 30.395-1.094 1.313-2.188 2.844-3.5 4.156-2.622-1.312-5.684-2.406-8.965-3.5m146.5-5.683-.657-1.532.657.875.218.657 1.094 2.84v.218l-.875-.656c.219-1.094 0-1.746-.437-2.402m2.406 4.808 1.75 4.157-.875-.657-1.75-4.375Zm1.531 1.313.875.656c.652 1.313 1.09 2.406 1.746 3.715l-.875-.656Zm3.277 5.902c.657 1.313 1.313 2.844 1.97 4.156l-1.095-.656c-.656-1.312-1.312-2.844-1.968-4.375Zm1.313 1.313.875.656c.656 1.094 1.312 2.406 1.969 3.719l-.875-.657c-.657-1.312-1.313-2.625-1.97-3.718m3.5 5.683c.656 1.313 1.312 2.625 2.184 3.938l-1.09-.438c-.657-1.312-1.313-2.625-2.188-4.152Zm1.312.656.872.657 1.968 3.281-1.093-.438Zm3.715 5.25c.657 1.094 1.532 2.188 2.188 3.497l-1.094-.22c-.656-1.308-1.531-2.402-2.187-3.714Zm2.844 4.372c.875 1.093 1.531 2.187 2.406 3.28h-1.093c-.875-1.312-1.532-2.405-2.188-3.718Zm2.844 4.156c12.242 17.492 27.765 32.36 49.195 36.953 26.02 5.684 51.164-10.059 72.375-26.02 5.465-4.156 11.152-8.527 16.617-12.683l12.246-9.184c1.746-.875 3.496-1.969 5.246-2.844-10.277 9.184-20.335 17.93-29.738 26.02-28.64 24.273-53.57 33.457-76.09 28.426-22.523-5.028-38.484-21.645-50.945-40.668Zm154.367-13.996 2.187-1.746 2.188-1.094-.875.875c-.875.656-2.188 1.308-3.5 1.965m11.152-7.871 3.938-3.715c1.09-.875 2.402-1.75 3.496-2.625 3.719-1.094 7.433-1.969 11.152-3.063-2.406 1.532-4.812 3.063-7.215 4.375-3.937 1.75-7.652 3.496-11.37 5.028m9.403-7.653 1.968-1.312c4.153-1.313 8.09-2.403 12.243-3.715l-2.621 1.75c-3.938 1.09-7.657 2.184-11.59 3.277m4.152-2.843c4.375-1.528 8.746-2.84 13.34-4.372l-.875.657c-4.153 1.093-8.309 2.406-12.465 3.715m-37.387 12.246c-16.183 5.902-32.582 11.808-48.543 17.93l-5.027 2.187c-13.121 5.246-26.676 10.496-40.89 9.62-11.587-1.093-22.958-4.374-33.016-10.058h.656c10.277 3.934 21.207 6.121 32.14 6.559h1.313c12.246 0 24.05-3.934 35.64-7.652l4.813-1.532 25.145-8.09 26.238-8.308ZM753.137 374.57l-.875-.656h.437l.875.438Zm-4.371-1.968-.875-.875h.218l1.094.875Zm-4.375-3.059-.22-.219c-.218-.219-.437-.656-.874-.875h.219Zm-76.746-94.023c-22.086-10.278-50.508-8.747-74.563 3.937-26.02 13.773-41.543 36.734-50.07 53.352l-.657 1.527c-3.062-1.527-6.34-3.277-9.402-4.809 8.527-18.367 24.488-43.511 51.82-58.597 25.145-13.996 55.102-15.528 78.278-4.375 20.117 9.62 33.676 27.55 44.168 47.011-10.055-15.96-22.301-29.957-39.574-38.046m-125.727 59.253c-2.188 4.594-4.156 9.184-6.121 13.997-3.063-1.532-5.906-3.063-8.965-4.594 1.75-4.809 3.715-9.621 5.902-14.211 3.063 1.75 6.121 3.281 9.184 4.808m-6.34 14.653c-1.969 4.808-3.719 9.62-5.469 14.43-3.058-1.313-5.902-2.626-8.527-4.153h-.219c1.532-5.031 3.282-9.84 5.032-14.871a90 90 0 0 0 9.183 4.594m-14.871 10.058c-2.84-1.53-5.902-3.062-8.746-4.593 1.531-5.028 3.062-10.059 4.812-15.086a174 174 0 0 0 8.965 4.808c-1.75 5.032-3.5 9.84-5.031 14.871m-.219.657c-.87 3.058-1.965 6.12-2.84 9.183-.656 1.965-1.312 3.715-1.75 5.684a74 74 0 0 1-8.527-3.938l.438-1.308c1.312-4.813 2.625-9.403 4.152-14.215 2.625 1.75 5.687 3.281 8.527 4.594m-13.554 9.62-.22 1.09-3.28-1.746c-1.747-.875-3.497-1.968-5.247-3.062 1.313-5.246 2.625-10.496 4.153-15.961 2.844 1.75 5.906 3.277 8.746 5.027-1.527 5.032-2.84 9.84-4.152 14.653m-9.622-3.937c-39.796-22.304-76.09-51.601-111.078-79.808l-.433-.438c-33.02-26.676-71.719-56.633-114.14-75.437-15.962-6.996-32.36-12.461-49.415-16.399-9.84-2.183-19.68-3.715-29.738-4.808l.656-.22a251 251 0 0 1 86.805 16.837c44.605 17.273 84.84 46.355 119.168 72.594l5.465 4.152c30.832 23.398 62.535 47.668 96.648 67.348-1.094 5.464-2.625 10.933-3.937 16.18M186.606 189.371h-1.093l-.875-.219h1.093Zm-7.652-.219-.875.22-.437-.22Zm-6.996-.437h-1.094l-.656-.219h1.094Zm-7-.875h-1.094l-.656-.219 1.094.219Zm-6.34-1.531h-1.094l-.875-.438 1.094.219Zm-7.652-1.97-.875-.437 1.094.22.875.437Zm-5.031-2.183-1.09-.219c-.219-.218-.656-.437-.875-.656l.875.219Zm-4.153-1.531 1.313.875-1.531-.219-1.094-1.094Zm2.844 1.969 1.527 1.09-2.183-.22-1.531-1.308Zm2.621 2.183 1.75 1.313h-2.406l-1.746-1.531Zm2.625 2.188 1.75 1.312-2.625.22-1.531-1.532Zm2.625 1.969 1.965 1.53-2.84.438-1.75-1.75Zm2.621 2.187 1.75 1.527-3.058.657-1.75-1.746c.875 0 1.968-.22 3.058-.438m2.625 2.184 1.969 1.75-3.5.875-1.75-1.97Zm2.625 2.406c6.559 5.902 12.899 12.027 18.805 17.93 10.93 10.933 21.644 22.086 31.703 33.234 27.332 30.395 52.914 63.41 76.969 94.46 22.957 30.173 51.601 67.563 88.773 92.927 20.551 14.215 43.512 21.43 64.719 21.43 7.215 0 14.652-.876 21.648-2.844-1.75 2.187-3.5 4.156-5.25 6.125-34.109 15.304-73.902 1.09-98.609-16.184-35.86-25.144-61.664-61.879-84.402-94.02-22.524-31.707-46.356-65.378-71.72-97.3-9.183-11.59-19.023-23.617-29.081-35.64-5.465-6.56-11.149-12.903-16.836-19.243Zm216.469 238.113c-36.953-25.363-65.598-62.754-88.559-92.707-23.832-31.27-49.632-64.285-76.964-94.46-10.06-11.15-20.555-22.302-31.704-33.235a721 721 0 0 0-18.367-17.711l3.496-.875c7.219 5.25 13.996 10.715 20.555 16.398 11.809 9.84 23.394 20.118 34.11 30.832 29.519 28.645 56.85 61.004 82.214 91.836 29.957 36.075 57.508 68 92.93 91.614 16.836 11.152 39.574 20.554 62.098 20.554 3.933 0 7.87-.218 11.804-.875-1.75 2.625-3.277 5.028-5.027 7.215-30.395 8.746-64.723-3.715-86.586-18.586m18.144-9.183c-35.203-23.614-62.968-55.317-92.707-91.614-25.363-30.832-52.695-63.191-82.214-91.836-10.934-10.496-22.301-20.992-34.11-30.832-6.558-5.464-13.12-10.93-20.117-15.96l3.281-.876c7.871 4.813 15.524 9.622 22.52 14.653 12.683 8.746 24.93 18.367 36.734 28.422 31.707 27.113 60.567 58.82 87.461 88.992 31.488 35.426 60.57 66.691 97.082 90.305 16.184 10.496 38.047 19.242 59.695 19.242h1.75c-1.53 3.062-3.28 5.906-5.03 8.746-26.458 4.156-54.665-6.34-74.345-19.242m80.032 10.496c2.183 0 4.37-.219 6.558-.438-1.75 2.625-3.5 5.25-5.25 7.653-2.183.656-4.152 1.093-6.34 1.53 1.97-3.058 3.5-5.902 5.032-8.745m.433-.875q2.625-4.59 4.594-9.84c2.406.219 4.809.437 6.996.437-1.531 3.063-3.277 6.125-5.027 8.965-1.969.219-4.375.438-6.563.438m12.684-9.403c2.187 0 4.594-.218 6.777-.437-1.75 2.625-3.496 5.25-5.246 7.875-2.187.652-4.156.871-6.34 1.308 1.528-2.84 3.278-5.683 4.809-8.746m.437-.656c1.75-3.277 3.282-6.558 4.809-10.273l7.219.656c-1.531 3.277-3.281 6.34-5.031 9.18-2.407 0-4.59.218-6.997.437m12.903-9.621h2.183c1.532 0 3.063 0 4.813-.215q-2.625 4.261-5.25 7.871c-2.184.438-4.371.875-6.559 1.094 1.531-2.625 3.281-5.687 4.813-8.75m7.87-.215c2.184-.219 4.372-.437 6.56-.875a84 84 0 0 1-5.465 6.778c-1.97.656-4.157 1.312-6.125 1.968 1.75-2.625 3.5-5.25 5.03-7.87m.657-.875c1.746-2.844 3.496-6.125 5.027-9.183 1.532 0 3.063.218 4.594.218h2.403c-1.75 2.84-3.497 5.684-5.465 8.09-2.188.438-4.375.656-6.559.875m5.246-10.058c1.094-2.407 2.406-4.813 3.5-7.434q.658-1.64 1.309-3.281c2.406.437 5.031.875 7.656 1.094-1.75 3.277-3.5 6.558-5.25 9.62a39.7 39.7 0 0 1-7.215 0m13.34-9.403c2.402.219 4.809.438 7.215.438h.219c-1.75 2.84-3.72 5.683-5.688 8.308-2.183.438-4.59.657-6.996.875 1.969-3.28 3.719-6.343 5.25-9.62m10.93-4.375 3.281-5.902c2.625.437 5.027.656 7.652.656-.437.438-.656 1.094-1.093 1.75-1.532 2.402-3.278 4.59-4.809 6.777-2.406.438-4.813.438-7.215.657.871-1.313 1.527-2.625 2.184-3.938m3.718-6.777c1.97-3.719 3.715-7.652 5.684-11.371 2.625.656 5.469 1.312 8.309 1.969-1.965 3.28-3.934 6.777-6.121 10.058q-3.936 0-7.872-.656m15.086-10.059 2.625-4.59c1.313-2.187 2.625-4.593 3.934-6.78 2.844.874 5.906 1.75 8.746 2.405l-2.402 3.5q-2.298 3.28-4.594 6.56c-2.84-.22-5.684-.657-8.309-1.095m13.34-4.808 2.621-3.938c2.844.656 5.907 1.313 8.746 1.75l-1.09 1.094c-2.187 2.406-4.156 4.809-6.343 7.215h-4.153c-1.312 0-2.625 0-3.937-.219 1.313-1.969 2.844-3.934 4.156-5.902m11.805-3.063c-2.84-.437-5.684-1.094-8.746-1.75 2.625-3.715 5.25-7.433 8.09-10.933 3.062 1.093 6.125 2.187 9.402 3.28-3.059 3.282-5.902 6.34-8.746 9.403m10.059-9.84c1.312-1.312 2.406-2.406 3.718-3.714 11.371-10.934 24.926-19.461 39.793-24.493 16.621-5.902 34.766-6.12 51.824-.875 11.586 4.157 22.082 10.715 31.047 19.024l1.97 4.594c-8.528-6.56-18.15-11.372-28.427-14.653-15.742-4.152-32.14-4.152-47.886.438-13.774 3.937-26.676 10.496-38.043 19.023-1.532 1.094-3.063 2.406-4.594 3.5-3.059-.875-6.121-1.75-9.402-2.844m14.433 0c11.367-8.527 24.05-14.867 37.824-18.804 15.528-4.371 31.926-4.59 47.45-.438 10.496 3.281 20.336 8.528 29.082 15.309l2.187 5.027c-8.312-4.808-17.277-8.527-26.676-10.933-14.215-3.278-29.082-3.278-43.297-.22-12.46 2.626-24.707 7-35.859 12.903-1.746.875-3.496 1.75-5.027 2.844-3.063-.875-6.34-1.75-9.403-2.625 1.094-.875 2.407-1.969 3.72-3.063m115.668-3.058 1.094.87 2.183 4.595-1.093-.657c-.875-1.75-1.528-3.28-2.184-4.808m3.496 6.558c.656 1.532 1.531 3.278 2.188 4.809l-1.094-.438a50 50 0 0 1-2.188-5.027Zm1.313.657 1.093.656c.657 1.527 1.532 2.84 2.188 4.371l-1.094-.438c-.656-1.53-1.531-3.058-2.187-4.59m3.718 6.12c.875 1.532 1.532 3.063 2.403 4.376l-1.09-.219c-.875-1.531-1.531-3.063-2.406-4.594Zm1.313.438 1.09.438c.875 1.312 1.531 2.625 2.406 3.933l-1.094-.215a40 40 0 0 1-2.402-4.156m3.934 5.246c.875 1.313 1.53 2.625 2.406 3.938h-1.094c-.875-1.313-1.75-2.625-2.406-4.156Zm2.843 4.813c12.68 19.46 28.864 36.078 51.82 41.324 22.958 5.25 47.887-4.152 76.747-28.426 10.277-8.746 21.21-18.148 32.144-28.203l.875-.437a471 471 0 0 1-28.863 30.171c-15.742 14.872-47.23 38.922-80.246 30.614-23.832-5.906-40.672-24.488-53.352-45.262ZM931.34 342.21l2.844-1.75 1.75-.438-3.72 2.188Zm5.25-3.281 1.094-.657 3.058-1.093-1.75 1.093Zm3.715-2.407 4.593-1.75-.656.438Zm-84.399 27.114-25.144 7.87-4.813 1.532c-11.808 3.938-24.05 7.871-36.734 7.652-10.278-.437-20.332-2.402-29.953-5.683 8.308 1.312 16.836 2.187 25.363 2.187h4.152c11.371-.437 22.743-3.062 33.676-5.906l3.715-.875a1768 1768 0 0 0 45.918-11.805ZM663.27 265.46c-23.395-11.371-53.57-9.621-78.934 4.375-27.55 15.305-43.512 40.45-52.04 59.035-3.062-1.75-6.12-3.281-9.183-5.027 8.746-19.899 24.926-46.356 52.914-62.535 26.457-15.309 58.164-17.274 82.653-5.032 20.117 10.059 33.672 28.207 44.386 48.106-10.058-16.18-22.523-30.395-39.796-38.922m-131.41 64.066c-2.188 4.594-4.153 9.403-5.903 14.211-3.062-1.527-6.125-3.277-8.965-4.808 1.531-4.375 3.278-8.965 5.028-13.34l.437-1.09c3.281 1.746 6.34 3.496 9.402 5.027m-10.497-4.152c-1.746 4.371-3.496 8.746-5.027 13.117-3.063-1.75-6.121-3.5-8.965-5.246 1.313-3.719 2.625-7.656 4.152-11.371l1.313-3.281q4.594 2.625 9.184 5.25c-.22.875-.438 1.094-.657 1.531m-5.246 13.773c-1.75 5.028-3.281 10.059-4.812 15.086a181 181 0 0 1-8.746-5.027c1.312-5.25 2.843-10.277 4.593-15.305 3.063 1.965 5.903 3.715 8.965 5.246m-14.43 9.84c-33.894-19.68-65.597-43.73-96.43-67.129l-5.464-4.152c-34.328-26.238-74.781-55.539-119.387-72.594-16.836-6.34-34.11-11.152-52.039-13.992-9.84-1.531-19.68-2.406-29.734-2.844 11.804-.437 23.832-.218 35.64.875 18.582 1.75 36.73 5.684 54.442 11.371 46.574 15.524 88.773 44.168 124.414 69.75l12.027 8.528c26.02 18.804 52.914 38.043 80.903 54.664-1.313 5.246-2.844 10.492-4.372 15.523M133.692 175.375l.657.656-.875-.219-.657-.656Zm2.407 2.188 1.09 1.093-1.528-.437c-.437-.438-.656-.875-1.094-1.313.657.219 1.094.438 1.532.656m2.402 2.187 1.531 1.313-1.969-.22-1.312-1.53Zm2.625 2.406 1.531 1.528-2.187-.22c-.438-.655-1.094-1.089-1.531-1.745Zm2.406 2.403 1.746 1.75h-2.62l-1.532-1.97Zm2.621 2.406 1.75 1.75-2.84.219-1.53-1.97Zm2.407 2.406c.656.656 1.312 1.313 1.75 1.969l-3.063.433c-.656-.652-1.094-1.308-1.75-2.183 1.094-.219 1.969-.219 3.063-.219m2.406 2.402 1.75 1.97-3.281.655-1.75-2.187Zm2.406 2.625 1.965 1.97-3.496 1.093-1.75-2.188c.875-.437 2.187-.656 3.281-.875m304.582 265.446c1.313-.656 2.406-1.09 3.719-1.746-2.188 1.964-4.59 3.496-6.996 5.246 1.094-1.094 2.187-2.406 3.277-3.5m4.594-3.278c-1.094.657-2.188 1.094-3.281 1.75 1.75-1.968 3.28-3.718 4.812-5.687 1.75-.438 3.496-1.094 5.246-1.969-1.531 1.75-3.277 3.281-4.808 4.813-.875.437-1.313.875-1.97 1.093m2.187-5.03c1.746-2.184 3.278-4.59 4.809-6.997 1.969-.437 4.156-.875 6.121-1.312-1.746 2.187-3.496 4.375-5.246 6.343-1.969.653-3.719 1.309-5.684 1.965m13.118-9.84c1.75-2.403 3.28-4.81 5.03-7.434 2.184-.219 4.153-.657 6.34-1.094q-2.626 3.281-5.245 6.562c-2.188.657-4.157 1.532-6.125 1.965m13.12-9.837c1.75-2.406 3.497-5.03 5.028-7.656 2.188-.219 4.375-.656 6.34-1.09l-5.246 6.559c-1.969 1.094-4.153 1.75-6.121 2.187m12.68-8.746c1.97-.437 3.938-1.093 5.688-1.75l-5.25 5.246c-1.75.875-3.496 1.75-5.465 2.625 1.75-1.968 3.277-4.156 5.027-6.12m13.559-10.058c1.969-.438 3.934-.875 5.902-1.532-1.75 1.97-3.496 3.715-5.246 5.247-1.75.875-3.719 1.75-5.687 2.625 1.53-1.97 3.28-3.938 5.03-6.34m5.902-2.188c-1.75.438-3.496 1.094-5.246 1.313 1.75-2.407 3.496-5.25 5.246-7.871 2.188-.22 4.594-.438 6.778-.657-1.746 2.403-3.715 4.809-5.684 6.778Zm7.871-7.433c1.532-.22 3.063-.657 4.375-.875l1.75-.438c-1.75 1.969-3.718 3.715-5.687 5.465-1.969.875-3.934 1.75-5.684 2.625 1.75-2.406 3.278-4.59 5.246-6.777m4.157-1.75c-1.094.218-2.407.656-3.5.875a78 78 0 0 0 5.468-8.309c2.403 0 4.59-.219 6.996-.437-1.968 2.406-3.937 4.808-5.906 6.996-1.09.218-2.183.656-3.058.875m10.058-8.09 2.184-.438c1.531-.219 2.844-.656 4.375-1.094-1.969 1.97-3.938 3.72-5.903 5.465-1.968.875-4.156 1.75-6.125 2.407 1.75-1.75 3.5-3.934 5.47-6.34m2.184-1.094-1.309.219c1.528-1.969 2.84-4.156 4.371-6.34.438-.656.875-1.313 1.313-2.188 2.406 0 5.027 0 7.433-.218-1.968 2.406-4.152 4.808-6.12 6.996-2.188.656-3.938 1.094-5.688 1.531m12.683-8.527c2.407-.22 4.809-.657 6.996-1.094-1.968 1.75-3.933 3.5-6.34 5.465-2.187.875-4.374 1.75-6.558 2.406 1.965-2.187 3.934-4.371 5.902-6.777m.657-.875c2.187-2.844 4.152-5.465 6.34-8.309 1.53 0 3.062.219 4.593.219h3.496c-1.53 1.531-2.84 3.062-4.37 4.59-.657.875-1.532 1.53-2.407 2.406-2.625.437-5.246.875-7.652 1.094m10.496-3.063c1.75-1.746 3.277-3.496 4.808-5.246 2.625 0 5.25-.219 7.653-.656-.875.656-1.746 1.312-2.621 1.969-1.313 1.093-2.844 2.187-4.375 3.277-2.188.656-4.59 1.312-6.996 1.969.437-.22.875-.875 1.53-1.313m5.683-5.902c1.97-2.188 3.938-4.371 5.903-6.559l1.312-1.531c3.063.437 5.906.656 8.528.875q-3.934 3.279-7.872 6.559c-2.625.218-5.464.437-7.87.656m16.836-7.215c2.844.219 5.688.437 8.309.437-2.621 1.532-5.246 3.06-7.871 4.372-2.406.437-5.028 1.093-7.871 1.312 2.406-1.969 5.027-4.152 7.433-6.121m.875-.875c2.844-2.406 5.684-4.813 8.746-7.215 3.063.875 6.121 1.75 9.184 2.621-2.406 1.313-4.809 2.625-6.996 3.938l-1.969 1.093c-3.062 0-5.902-.218-9.183-.437Zm19.899-4.813c1.531-.87 2.843-1.527 4.37-2.402 11.153-5.906 23.4-10.496 35.86-13.121 14.215-3.059 28.863-3.059 43.078.219 9.617 2.625 18.801 6.34 27.328 11.37.875 1.75 1.532 3.5 2.407 5.247-8.09-3.277-16.617-5.684-25.145-7.434-12.902-2.187-26.02-2.625-38.922-.875-11.367 1.532-22.738 3.938-33.89 7.434l-5.684 1.75c-3.281-.656-6.34-1.531-9.402-2.188m15.086 1.313c11.152-3.496 22.304-5.902 33.89-7.434 12.903-1.75 25.801-1.53 38.703.875a133 133 0 0 1 25.582 7.871c.875 1.75 1.75 3.5 2.625 5.47-7.652-1.532-15.523-3.063-24.05-3.938a225 225 0 0 0-34.332-1.313c-9.403.219-18.364.875-26.895 1.531l-4.808.22-6.122.437c-3.062-.657-5.906-1.313-8.964-1.969Zm99.488 1.312 1.094.438c.875 1.75 1.75 3.281 2.406 4.812l-1.313-.218c-.875-1.532-1.53-3.282-2.187-5.032m4.156 6.34c.871 1.532 1.746 3.282 2.621 4.813h-1.531c-.871-1.75-1.746-3.281-2.621-5.031Zm.871.22 1.094.218h.219c.875 1.531 1.75 2.844 2.406 4.375h-1.312c-.875-1.531-1.75-3.063-2.407-4.594m4.375 5.468c12.684 20.988 29.739 39.793 54.227 45.918 33.453 8.09 65.16-15.746 81.12-30.832 10.06-9.403 19.462-19.461 28.427-29.52-7.219 10.934-15.528 21.43-24.492 31.051-25.801 27.77-57.286 40.012-84.618 33.016-25.363-6.559-43.074-26.895-55.976-49.414Zm167.27-18.805.219-.219Zm30.176-16.18h-.438l3.934-2.187 1.75-.438Zm9.84-4.812-2.844.875 1.968-1.094 3.934-1.312Zm7.652-3.934-5.25 1.75 1.094-.656 6.562-2.406Zm12.027-6.562-4.375 2.406-8.09 2.844 1.313-.875Zm-16.621 7-3.059 1.094 3.715-1.532Zm-127.035 35.86c11.586-1.75 23.176-3.938 34.765-6.345-10.058 2.625-20.117 5.25-30.175 7.657l-3.715.87c-10.934 2.626-22.086 5.47-33.457 5.907-8.528.219-17.274-.219-25.8-1.531a693 693 0 0 0 58.382-6.559M567.28 251.905c27.332-16.398 61.66-18.804 87.024-5.687 20.554 10.496 34.332 29.082 45.043 49.855-10.059-17.054-22.739-31.707-40.23-40.672-24.708-12.46-56.634-10.492-83.31 5.032-28.425 16.617-44.605 43.074-53.57 62.972q-4.588-2.625-9.183-5.25c8.965-21.426 25.363-48.976 54.226-66.25M297.68 195.492c54.664 15.524 102.55 48.324 149.125 80.246 21.207 14.43 42.855 29.301 65.375 42.637l-1.313 3.281a114 114 0 0 0-3.933 11.153c-27.989-16.618-54.664-35.86-80.684-54.446-3.937-2.843-7.871-5.687-12.027-8.527-35.86-25.582-77.84-54.445-124.633-69.969-17.711-5.906-35.86-9.62-54.445-11.59-8.528-.875-17.274-1.312-25.801-1.093 29.3-2.625 59.476.218 88.336 8.308m-171.86-26.457.22.219h-.22Zm1.532 1.969.87.656.657.656-.875-.437Zm1.964 2.187 1.532.653c.437.437.656.875 1.093 1.312l-1.53-.437c-.438-.656-.876-1.09-1.095-1.528m1.97 2.403 1.75.656 1.312 1.531c-.657-.219-1.313-.437-1.97-.437-.437-.656-.655-1.094-1.093-1.75m1.968 2.625 2.187.656c.438.438.871 1.094 1.528 1.75l-2.184-.437Zm2.187 2.844 2.403.437 1.75 1.746-2.406-.219c-.875-.433-1.31-1.308-1.747-1.964m2.184 2.84 2.625.218c.656.656 1.094 1.313 1.75 1.969l-2.625.219Zm2.188 3.062h2.843c.438.656 1.094 1.312 1.75 1.969-.875 0-1.969.218-2.844.218Zm1.968 2.844c1.094-.22 1.969-.22 3.063-.438.652.656 1.09 1.531 1.746 2.188l-3.059.652Zm2.188 3.058 3.277-.656 1.75 2.187-3.281.875Zm1.965 3.281 3.5-.875 1.75 2.407-3.5 1.093Zm292.343 278.786c-37.39 22.3-85.058 9.183-115.668-13.559-33.675-25.145-56.195-63.191-76.312-96.645l-85.055-143.218c-4.156-6.996-8.527-14.43-13.34-21.864l3.72-1.093c5.026 6.777 10.276 13.554 15.304 20.77a8335 8335 0 0 1 26.676 38.046c23.175 33.672 45.48 67.785 66.472 99.926 21.426 33.015 45.696 70.406 80.465 95.55 19.02 13.778 44.824 24.055 70.188 24.055 13.117.215 26.238-3.062 38.043-8.964-3.497 2.62-6.997 5.027-10.493 6.996m32.578-24.926c1.313-.438 2.407-1.094 3.72-1.75-2.188 1.965-4.595 3.715-7 5.246 1.093-1.094 2.187-2.188 3.28-3.496m9.622-5.906c1.312-1.094 2.406-2.407 3.714-3.715.875-.438 1.97-.875 2.844-1.313l1.313-.656c-2.625 1.969-5.246 3.934-7.871 5.684m13.336-9.84c1.312-1.313 2.406-2.403 3.5-3.934.437-.219 1.093-.437 1.53-.656.876-.438 1.75-.875 2.626-1.094-2.188 2.188-4.813 3.934-7.656 5.684m13.12-9.403c1.313-1.312 2.626-2.62 3.934-4.152h.219c1.312-.437 2.844-1.094 4.156-1.75-2.625 2.188-5.465 4.156-8.308 5.902m13.555-9.62c1.313-1.31 2.625-2.622 3.938-4.153 1.531-.438 3.062-1.094 4.59-1.75a58.5 58.5 0 0 1-8.528 5.902m13.778-9.403c1.53-1.309 2.843-2.84 4.37-4.371 1.75-.438 3.5-1.094 5.032-1.75-3.063 2.187-6.121 4.375-9.402 6.12m14.21-9.399q2.298-1.968 4.594-4.593c1.75-.438 3.496-1.094 5.246-1.75-3.058 2.406-6.34 4.375-9.84 6.344m14.872-9.183c1.746-1.531 3.496-3.063 5.027-4.594 1.969-.437 3.938-1.094 5.902-1.531-3.496 2.187-7.215 4.375-10.93 6.125m27.984-14.215c-3.934 1.969-8.09 3.938-12.242 5.469l2.187-1.531c1.309-.875 2.403-1.97 3.496-2.844 2.407-.438 4.594-.656 6.559-1.094m10.715-3.277c-1.75.433-3.277.87-5.246 1.308 2.187-1.093 4.37-2.402 6.558-3.715h7.215c-2.84.875-5.683 1.75-8.527 2.407m14.215-3.282 3.715-1.093 3.5-1.094c2.406.656 4.808 1.094 7.214 1.75-4.59.219-9.402.437-14.43.437m20.77-.218 3.062-.219 4.808-.219c8.532-.656 17.496-1.312 26.895-1.531 11.371-.438 22.96 0 34.332 1.312 8.527 1.094 16.617 2.625 24.488 4.157q1.312 2.62 2.625 5.246c-32.144.437-64.504-2.406-96.21-8.746m245.113 28.207c-19.461 24.27-54.446 44.605-88.993 35.422-27.113-7.215-45.261-29.301-58.382-54.008h1.312c13.121 22.957 30.832 43.73 56.633 50.289 14.648 3.719 30.172 2.187 46.355-4.809 14.867-6.781 28.207-16.398 39.137-28.425a233.6 233.6 0 0 0 22.523-28.426c-5.03 10.715-11.152 20.773-18.585 29.957m0 0"/></g></svg>