<svg xmlns="http://www.w3.org/2000/svg" xmlns:xlink="http://www.w3.org/1999/xlink" width="1366" zoomAndPan="magnify" viewBox="0 0 1024.5 576" height="768" preserveAspectRatio="xMidYMid meet" version="1.0"><defs><clipPath id="e2d52d9e17"><path d="M 0 126 L 1024 126 L 1024 488 L 0 488 Z M 0 126 " clip-rule="nonzero"/></clipPath></defs><g clip-path="url(#e2d52d9e17)"><path fill="#710ede" d="M 904.664062 358.390625 C 909.257812 355.765625 913.628906 353.140625 918.222656 350.519531 C 919.316406 350.082031 920.410156 349.425781 921.28125 348.769531 C 926.3125 346.363281 931.121094 343.957031 936.152344 341.554688 C 984.910156 327.121094 1032.796875 309.628906 1079.808594 292.574219 L 1079.589844 291.917969 C 1033.890625 308.535156 987.535156 325.371094 940.085938 339.585938 L 945.773438 336.742188 C 986.441406 323.84375 1026.894531 309.410156 1067.5625 293.449219 L 1067.34375 292.792969 C 1028.203125 308.097656 989.066406 322.09375 949.925781 334.773438 L 953.425781 333.027344 C 987.972656 321.21875 1022.300781 308.535156 1055.535156 294.324219 L 1055.316406 293.667969 C 1023.613281 307.226562 991.035156 319.46875 958.015625 330.621094 L 961.078125 328.871094 C 988.847656 318.59375 1016.617188 307.441406 1043.511719 294.980469 L 1043.292969 294.324219 C 1018.367188 306.132812 992.5625 316.40625 966.542969 326.246094 L 972.449219 322.96875 C 992.5625 314.660156 1012.460938 305.695312 1031.484375 295.855469 L 1031.046875 295.199219 C 1014.210938 303.945312 996.71875 311.816406 979.007812 319.46875 C 992.5625 312.035156 1005.902344 304.382812 1019.238281 296.730469 L 1018.804688 296.074219 C 1003.277344 305.039062 987.753906 313.785156 971.792969 322.53125 C 967.417969 324.5 962.828125 326.246094 958.453125 327.996094 C 975.289062 317.71875 991.472656 307.441406 1006.996094 297.386719 L 1006.558594 296.730469 C 989.722656 307.441406 972.230469 318.8125 953.644531 329.964844 L 945.773438 333.246094 C 963.046875 321.65625 979.226562 309.628906 994.75 298.261719 L 994.3125 297.605469 C 977.914062 309.628906 960.640625 322.3125 942.273438 334.554688 C 936.589844 336.742188 931.121094 338.929688 925.4375 341.117188 C 945.335938 328.214844 964.359375 314.003906 982.507812 298.695312 L 982.070312 298.042969 C 963.046875 314.003906 943.148438 328.652344 922.15625 342.210938 C 938.992188 328.871094 955.175781 314.660156 970.480469 299.351562 L 969.824219 298.914062 C 954.082031 314.660156 937.246094 329.527344 919.535156 343.300781 L 918.660156 343.519531 C 932.652344 329.746094 945.773438 315.316406 958.015625 300.007812 L 957.359375 299.570312 C 944.679688 315.316406 931.121094 330.183594 916.691406 344.175781 L 915.160156 344.832031 C 926.3125 330.839844 936.589844 316.191406 945.992188 300.882812 L 945.335938 300.445312 C 935.714844 315.972656 925.21875 331.058594 913.847656 345.269531 L 911.882812 345.925781 C 919.972656 331.496094 927.40625 316.625 933.964844 301.320312 L 933.308594 301.101562 C 926.75 316.625 919.316406 331.714844 910.789062 346.363281 L 910.570312 346.582031 L 908.601562 347.238281 C 913.847656 332.589844 918.441406 317.5 921.9375 302.195312 L 921.066406 301.976562 C 917.347656 317.28125 912.753906 332.589844 907.507812 347.457031 L 892.859375 352.046875 C 885.859375 354.015625 878.863281 355.984375 871.867188 357.953125 C 855.03125 361.886719 838.195312 365.167969 821.140625 367.792969 C 800.585938 371.070312 779.59375 373.257812 758.824219 374.570312 L 754.667969 373.914062 C 753.136719 373.476562 751.609375 372.820312 750.296875 372.164062 C 748.984375 371.507812 747.234375 370.414062 745.703125 369.324219 C 744.171875 368.230469 742.425781 366.699219 740.894531 365.386719 C 739.800781 364.292969 738.925781 363.417969 737.832031 362.324219 L 736.082031 360.359375 L 735.644531 359.703125 L 732.804688 355.984375 L 731.492188 354.234375 L 731.054688 353.359375 C 729.742188 351.394531 728.429688 349.425781 726.898438 347.457031 C 725.367188 345.050781 724.058594 342.648438 722.527344 340.242188 C 720.996094 337.835938 719.683594 335.210938 718.152344 332.589844 C 716.621094 329.964844 715.3125 327.339844 714 324.71875 C 712.6875 322.09375 711.375 319.46875 710.0625 317.0625 C 708.75 314.660156 707.4375 311.597656 706.128906 308.972656 C 694.320312 282.734375 679.234375 258.027344 654.304688 245.125 C 628.503906 232.007812 594.175781 234.195312 566.40625 250.8125 C 537.546875 268.085938 521.144531 295.636719 511.960938 317.28125 C 489.660156 303.945312 468.011719 289.078125 446.804688 274.644531 C 400.449219 242.722656 352.34375 209.921875 297.460938 194.398438 C 265.101562 185.433594 231.210938 183.027344 197.976562 187.183594 C 194.914062 187.402344 191.851562 187.402344 189.011719 187.839844 C 186.824219 187.839844 184.855469 187.839844 182.667969 187.839844 C 179.828125 187.621094 176.765625 187.621094 173.921875 187.402344 L 168.019531 186.746094 C 165.832031 186.308594 163.425781 185.871094 161.242188 185.433594 C 159.054688 184.996094 156.429688 184.121094 154.242188 183.464844 C 152.277344 182.808594 150.308594 182.15625 148.339844 181.28125 C 146.371094 180.40625 144.40625 179.53125 142.21875 178.65625 C 140.03125 177.78125 138.28125 176.46875 136.316406 175.375 C 134.785156 174.28125 133.253906 173.410156 131.722656 172.316406 C 129.972656 170.785156 128.003906 169.253906 126.257812 167.941406 C 124.507812 166.191406 122.539062 164.445312 120.570312 162.914062 C 110.730469 151.761719 98.925781 142.578125 85.804688 135.582031 C 65.25 125.085938 41.417969 123.335938 19.554688 130.769531 C 4.027344 136.894531 -7.558594 147.167969 -13.464844 161.164062 L -12.808594 161.382812 C -6.902344 147.824219 4.464844 137.550781 20.210938 131.863281 C 41.855469 124.429688 65.46875 126.179688 85.804688 136.675781 C 96.738281 142.578125 106.796875 150.011719 115.542969 158.976562 C 107.015625 152.199219 97.613281 146.515625 87.554688 142.140625 C 53.226562 127.273438 3.808594 136.238281 -12.371094 172.535156 L -11.714844 172.753906 C 4.246094 136.894531 53.226562 128.148438 87.335938 142.796875 C 99.363281 148.042969 110.511719 155.261719 120.351562 164.007812 L 120.570312 164.226562 C 110.949219 157.445312 100.238281 151.980469 88.867188 148.261719 C 70.28125 142.359375 50.382812 142.140625 31.796875 148.042969 C 11.679688 154.386719 -3.625 167.066406 -11.277344 183.902344 L -10.621094 184.121094 C 5.777344 148.699219 54.101562 137.332031 88.867188 149.136719 C 101.109375 153.292969 112.699219 159.414062 122.976562 167.066406 L 124.070312 168.160156 C 113.574219 162.039062 102.203125 157.664062 90.617188 154.605469 C 54.976562 145.859375 7.746094 158.757812 -9.746094 195.492188 L -9.089844 195.710938 C 7.964844 159.414062 54.757812 146.515625 90.179688 155.261719 C 102.640625 158.320312 114.449219 163.351562 125.382812 169.910156 L 126.476562 171.222656 C 115.324219 166.191406 103.734375 162.695312 91.710938 160.726562 C 72.46875 157.882812 52.570312 160.289062 34.640625 167.722656 C 14.742188 176.03125 -0.34375 189.589844 -8.652344 206.863281 L -7.996094 207.300781 C 10.152344 170.128906 56.941406 156.132812 91.710938 161.601562 C 104.171875 163.570312 116.199219 167.285156 127.785156 172.753906 L 129.097656 174.28125 C 117.511719 170.347656 105.484375 167.941406 93.238281 167.066406 C 58.472656 164.445312 12.117188 179.53125 -7.558594 218.449219 L -6.902344 218.449219 C 12.554688 179.75 58.691406 165.097656 93.019531 167.503906 C 105.484375 168.378906 117.949219 171.003906 129.753906 175.15625 C 130.191406 175.8125 130.628906 176.25 131.066406 176.90625 C 119.476562 174.28125 107.671875 172.972656 95.863281 172.972656 L 94.332031 172.972656 C 58.691406 173.191406 13.429688 190.902344 -6.683594 229.601562 L -6.03125 230.039062 C 13.867188 191.558594 58.691406 174.28125 94.113281 173.84375 L 95.644531 173.84375 C 107.671875 173.84375 119.695312 175.15625 131.503906 178 L 133.035156 179.96875 C 120.570312 178.4375 107.890625 178 95.425781 179.09375 C 62.628906 181.9375 16.273438 199.867188 -5.59375 240.972656 L -4.9375 241.410156 C 16.929688 200.738281 62.847656 182.808594 95.644531 179.96875 C 108.328125 178.875 121.226562 179.09375 133.910156 180.84375 C 134.347656 181.5 135.003906 182.375 135.441406 183.027344 C 122.539062 182.375 109.636719 183.246094 96.957031 185.433594 C 63.066406 191.121094 18.460938 211.671875 -4.0625 252.34375 L -3.40625 252.78125 C 18.898438 212.109375 63.285156 191.773438 97.394531 186.308594 C 110.292969 184.121094 123.414062 183.464844 136.3125 184.121094 C 136.75 184.996094 137.40625 185.652344 138.0625 186.527344 C 124.726562 186.964844 111.605469 188.933594 98.707031 191.992188 C 54.757812 202.488281 16.710938 229.382812 -2.75 264.148438 L -2.09375 264.367188 C 17.367188 229.820312 55.195312 202.925781 98.925781 192.648438 C 112.042969 189.589844 125.164062 187.839844 138.71875 187.183594 L 140.25 189.589844 C 126.695312 191.121094 113.355469 193.960938 100.238281 198.117188 C 55.851562 211.671875 18.898438 239.878906 -1.65625 275.300781 L -1 275.738281 C 19.554688 240.316406 56.285156 212.328125 100.238281 198.554688 C 113.355469 194.398438 126.914062 191.558594 140.46875 190.027344 C 141.125 190.902344 141.5625 191.773438 142.21875 192.429688 C 128.222656 195.054688 114.667969 198.992188 101.328125 204.019531 C 57.378906 220.855469 21.082031 250.15625 -0.5625 286.671875 L 0.09375 287.109375 C 21.519531 250.8125 57.597656 221.511719 101.546875 204.894531 C 114.886719 199.867188 128.660156 195.929688 142.65625 193.304688 C 143.09375 194.179688 143.75 194.835938 144.1875 195.710938 C 129.972656 199.429688 115.980469 204.238281 102.640625 210.359375 C 59.566406 229.820312 23.269531 260.871094 0.75 298.042969 L 1.40625 298.480469 C 23.925781 261.308594 60.003906 230.257812 103.296875 211.015625 C 116.855469 204.894531 130.628906 200.085938 145.0625 196.367188 C 145.714844 197.242188 146.152344 198.117188 146.808594 198.992188 C 87.554688 218.234375 34.640625 256.714844 1.84375 309.410156 L 2.5 309.847656 C 35.078125 257.152344 87.992188 218.667969 147.027344 199.648438 C 151.839844 207.300781 156.210938 214.734375 160.585938 221.730469 L 245.859375 364.949219 C 265.976562 398.621094 288.496094 436.667969 322.171875 461.8125 C 341.847656 476.464844 368.523438 487.175781 394.980469 487.175781 C 415.972656 487.613281 436.308594 479.960938 451.832031 465.75 C 456.425781 462.90625 461.015625 459.625 464.953125 455.910156 C 469.542969 453.066406 473.917969 450.007812 477.851562 446.289062 C 482.664062 443.445312 487.253906 440.167969 491.410156 436.449219 C 496.21875 433.824219 500.59375 430.546875 504.746094 426.828125 C 509.558594 424.203125 514.148438 420.925781 518.304688 417.207031 C 523.332031 414.585938 527.925781 411.304688 532.078125 407.585938 C 537.328125 404.964844 542.136719 401.683594 546.511719 397.964844 C 551.757812 395.34375 556.785156 392.28125 561.378906 388.5625 C 566.84375 386.160156 572.09375 383.316406 577.121094 379.816406 C 582.367188 378.070312 587.179688 375.882812 592.207031 373.257812 L 594.613281 371.945312 C 597.457031 371.289062 600.078125 370.632812 602.484375 369.980469 C 606.421875 368.886719 610.136719 367.792969 613.855469 366.699219 C 620.851562 366.699219 627.628906 366.261719 634.191406 365.824219 C 651.902344 369.542969 669.613281 372.164062 687.542969 373.476562 C 701.097656 374.570312 715.09375 375.226562 729.085938 375.226562 L 734.332031 375.226562 C 747.671875 400.152344 766.039062 422.675781 793.371094 429.890625 C 828.136719 439.074219 863.558594 418.519531 883.019531 394.03125 C 891.328125 383.316406 898.324219 371.726562 903.789062 359.484375 Z M 612.542969 366.480469 C 610.136719 366.480469 607.515625 366.480469 604.890625 366.480469 L 605.546875 366.042969 C 608.171875 364.511719 610.792969 363.199219 613.417969 361.667969 C 616.261719 362.324219 619.320312 363.199219 622.164062 363.855469 L 619.976562 364.511719 L 613.636719 366.480469 Z M 490.753906 436.230469 C 489.441406 437.105469 487.910156 437.761719 486.597656 438.417969 L 485.285156 439.074219 C 487.035156 437.105469 488.566406 435.136719 490.097656 433.167969 C 492.066406 432.730469 494.03125 432.078125 495.78125 431.421875 C 494.25 432.949219 492.503906 434.480469 490.753906 436.230469 Z M 477.414062 446.070312 L 474.792969 447.601562 L 472.386719 448.695312 C 473.917969 446.726562 475.445312 444.976562 476.976562 442.789062 C 478.945312 442.351562 480.695312 441.695312 482.445312 441.042969 C 480.695312 442.789062 478.945312 444.320312 477.414062 446.070312 Z M 450.300781 465.75 C 415.316406 485.867188 369.835938 473.402344 340.539062 452.191406 C 305.773438 427.046875 281.5 389.65625 260.292969 356.859375 C 239.300781 324.5 216.996094 290.386719 193.820312 256.714844 C 185.511719 244.472656 176.765625 232.007812 167.363281 218.667969 C 162.335938 211.671875 157.304688 204.675781 152.277344 198.117188 L 155.992188 197.023438 C 161.679688 203.363281 167.363281 209.703125 173.046875 216.484375 C 183.105469 228.507812 192.945312 240.535156 202.128906 252.125 C 227.273438 284.046875 251.328125 317.71875 273.847656 349.425781 C 296.589844 381.785156 322.609375 418.300781 358.46875 443.664062 C 375.960938 455.910156 400.886719 466.625 426.03125 466.625 C 436.527344 466.625 446.804688 464.65625 456.425781 460.71875 C 454.894531 462.46875 453.144531 464 451.613281 465.53125 Z M 584.554688 365.167969 C 587.179688 362.105469 590.023438 358.828125 593.082031 355.765625 C 596.144531 356.859375 599.207031 357.734375 602.265625 358.609375 C 599.207031 361.015625 596.144531 363.636719 593.300781 366.042969 C 590.460938 365.824219 587.617188 365.605469 584.554688 365.167969 Z M 559.410156 383.316406 L 559.191406 383.316406 C 556.785156 383.535156 554.382812 383.535156 551.757812 383.535156 C 553.945312 380.253906 555.910156 376.976562 557.660156 373.476562 C 560.285156 373.914062 562.910156 374.351562 565.75 374.570312 C 563.785156 377.195312 561.816406 380.035156 559.628906 382.660156 Z M 138.9375 178.65625 L 139.8125 179.3125 L 138.9375 179.09375 L 138.28125 178.4375 Z M 592.863281 354.890625 C 589.585938 353.796875 586.523438 352.703125 583.460938 351.613281 C 584.554688 350.300781 585.648438 348.988281 586.742188 347.675781 C 597.894531 334.335938 612.324219 323.84375 628.503906 317.5 C 646.871094 310.285156 667.863281 309.847656 684.699219 315.972656 C 698.253906 321 708.75 329.527344 717.933594 339.148438 L 718.152344 339.804688 L 719.246094 342.429688 L 719.464844 343.085938 C 710.71875 334.992188 700.441406 328.871094 689.292969 324.9375 C 672.234375 319.6875 653.867188 319.90625 637.03125 325.808594 C 621.945312 331.058594 608.390625 339.367188 597.019531 350.519531 C 595.488281 352.265625 594.175781 353.578125 592.863281 354.890625 Z M 487.691406 423.984375 C 485.285156 423.984375 482.882812 423.765625 480.476562 423.765625 C 482.007812 420.050781 483.539062 416.332031 485.066406 412.398438 C 487.472656 412.835938 490.097656 413.492188 492.503906 413.710938 C 490.972656 417.207031 489.441406 420.707031 487.691406 423.984375 Z M 150.527344 185.214844 L 152.277344 186.308594 L 150.089844 186.308594 L 148.558594 184.996094 Z M 147.246094 183.902344 L 146.152344 183.027344 L 147.683594 183.246094 L 148.996094 184.121094 Z M 168.894531 188.933594 L 166.925781 189.152344 L 165.613281 188.496094 L 167.363281 188.496094 Z M 502.777344 387.472656 C 505.402344 388.5625 508.027344 389.4375 510.867188 390.3125 C 509.777344 393.15625 508.902344 396.21875 507.589844 399.058594 C 507.152344 400.152344 506.714844 401.246094 506.277344 402.558594 C 503.652344 402.121094 501.03125 401.683594 498.625 400.808594 C 499.9375 396.21875 501.25 391.84375 502.777344 387.472656 Z M 497.75 400.589844 C 495.125 399.933594 492.503906 399.058594 489.878906 398.183594 C 491.410156 393.375 492.722656 388.5625 493.8125 383.753906 C 496.4375 385.066406 499.0625 386.160156 502.121094 387.253906 C 500.59375 391.625 499.0625 396 497.75 400.589844 Z M 502.996094 386.597656 C 504.527344 381.785156 505.839844 376.757812 507.152344 371.945312 C 509.996094 373.257812 512.835938 374.570312 515.679688 375.882812 C 514.148438 380.472656 512.617188 384.847656 511.085938 389.4375 C 508.246094 388.5625 505.621094 387.691406 502.996094 386.597656 Z M 502.121094 386.378906 C 499.28125 385.285156 496.65625 384.191406 493.8125 382.878906 C 494.90625 378.726562 496 374.351562 497.09375 370.195312 C 497.3125 369.105469 497.53125 368.011719 497.96875 366.917969 C 499.71875 367.792969 501.46875 368.886719 503.214844 369.761719 L 506.496094 371.507812 C 504.964844 376.539062 503.652344 381.347656 502.121094 386.378906 Z M 496.4375 369.980469 C 495.34375 374.132812 494.25 378.289062 493.375 382.441406 C 490.753906 381.128906 488.128906 379.816406 485.503906 378.289062 C 443.085938 354.453125 405.476562 322.09375 372.242188 293.449219 C 340.539062 266.554688 303.585938 235.945312 263.132812 215.390625 C 248.046875 207.738281 232.523438 201.394531 216.34375 196.585938 C 206.941406 193.742188 197.539062 191.558594 187.917969 189.808594 L 189.882812 189.589844 C 218.089844 192.210938 245.640625 199.429688 271.660156 211.015625 C 314.082031 229.820312 352.78125 259.777344 385.582031 286.234375 L 386.015625 286.671875 C 421.003906 314.878906 457.296875 344.175781 497.3125 366.699219 Z M 216.125 197.460938 C 232.304688 202.269531 247.828125 208.613281 262.914062 216.046875 C 303.148438 236.597656 340.101562 266.992188 371.585938 294.105469 C 404.820312 322.75 442.429688 355.109375 485.066406 379.160156 C 487.472656 380.472656 490.097656 381.785156 493.15625 383.316406 C 491.847656 388.125 490.535156 393.15625 489.222656 397.746094 C 481.789062 395.125 474.355469 391.625 467.574219 387.691406 C 428.65625 364.949219 395.199219 335.210938 358.25 301.539062 C 328.074219 273.988281 292.871094 242.722656 254.824219 220.636719 C 240.613281 212.328125 225.742188 205.332031 210.4375 199.429688 C 201.472656 196.148438 192.507812 193.085938 183.324219 190.683594 L 185.730469 190.246094 C 195.789062 191.992188 206.066406 194.398438 216.125 197.460938 Z M 488.785156 398.621094 C 488.128906 400.808594 487.472656 403.214844 486.816406 405.402344 C 486.160156 407.585938 485.503906 409.554688 484.628906 411.523438 C 472.167969 408.460938 460.140625 403.652344 449.207031 396.871094 C 410.945312 373.695312 379.019531 343.519531 344.035156 309.410156 C 314.082031 280.113281 281.9375 249.5 245.859375 225.886719 C 232.523438 217.140625 218.527344 209.269531 204.097656 202.269531 C 195.351562 198.117188 187.042969 194.617188 178.734375 191.558594 L 181.355469 191.121094 C 190.976562 193.742188 200.597656 196.804688 210 200.304688 C 225.308594 206.207031 240.175781 213.203125 254.167969 221.292969 C 292.214844 243.378906 327.417969 274.644531 357.59375 302.195312 C 394.328125 335.867188 428 365.605469 466.917969 388.34375 C 473.699219 392.5 481.132812 395.78125 488.785156 398.621094 Z M 181.355469 190.246094 L 180.046875 190.027344 L 181.574219 189.808594 L 182.886719 190.027344 Z M 179.609375 190.464844 L 177.203125 190.902344 L 175.453125 190.246094 C 176.109375 190.246094 176.984375 190.027344 177.640625 190.027344 Z M 175.890625 191.339844 C 175.015625 191.558594 174.140625 191.773438 173.046875 191.992188 L 171.300781 191.121094 L 173.921875 190.683594 Z M 173.921875 189.808594 L 172.828125 189.371094 L 174.796875 189.152344 L 175.671875 189.371094 Z M 172.171875 190.027344 L 169.988281 190.246094 L 168.457031 189.589844 L 170.644531 189.371094 Z M 162.992188 190.246094 L 164.738281 191.339844 L 161.898438 191.773438 L 160.148438 190.464844 Z M 159.273438 189.808594 L 157.523438 188.714844 L 160.148438 188.496094 C 160.804688 188.714844 161.460938 189.152344 161.898438 189.589844 Z M 164.300781 190.027344 L 166.925781 189.808594 L 168.675781 190.464844 L 166.050781 190.902344 Z M 165.394531 189.152344 L 163.207031 189.371094 L 161.679688 188.496094 L 163.863281 188.496094 Z M 160.148438 187.839844 L 159.054688 187.183594 L 160.804688 187.183594 L 161.898438 187.621094 Z M 158.617188 187.839844 L 156.429688 188.058594 L 154.898438 187.183594 L 157.085938 187.183594 Z M 153.808594 186.089844 L 152.496094 185.214844 L 154.242188 185.433594 L 155.554688 186.089844 Z M 153.589844 186.964844 L 155.117188 188.058594 C 154.242188 188.058594 153.371094 188.058594 152.496094 188.277344 L 150.964844 186.964844 Z M 156.210938 188.714844 L 157.960938 190.027344 L 155.117188 190.464844 C 154.460938 190.027344 154.027344 189.371094 153.371094 188.933594 Z M 159.054688 190.683594 L 160.804688 191.992188 L 157.742188 192.648438 L 155.992188 191.121094 Z M 161.679688 192.648438 L 163.644531 193.960938 L 160.367188 194.835938 L 158.398438 193.085938 Z M 162.773438 192.429688 L 165.832031 191.773438 L 167.800781 192.867188 L 164.738281 193.742188 Z M 167.144531 191.558594 L 169.988281 191.121094 L 171.957031 191.992188 C 171.082031 192.210938 169.988281 192.429688 169.113281 192.648438 Z M 173.046875 192.648438 C 180.917969 196.367188 189.011719 200.738281 197.539062 205.550781 C 211.09375 213.421875 224.214844 222.167969 236.675781 231.570312 C 270.566406 256.933594 301.179688 288.203125 329.605469 317.71875 C 362.839844 352.484375 393.234375 383.316406 430.621094 406.710938 C 445.273438 416.113281 461.890625 422.238281 479.382812 424.421875 C 477.851562 427.921875 476.320312 431.203125 474.574219 434.261719 C 452.488281 434.917969 429.53125 425.953125 412.910156 415.238281 C 376.617188 391.84375 347.535156 360.578125 316.046875 325.15625 C 289.152344 294.980469 260.074219 263.054688 228.367188 236.164062 C 216.777344 226.105469 204.316406 216.703125 191.632812 207.738281 C 184.636719 202.925781 177.421875 198.117188 169.769531 193.523438 Z M 431.058594 406.054688 C 393.671875 382.660156 363.277344 352.050781 330.042969 317.28125 C 301.617188 287.546875 271.003906 256.277344 237.113281 230.914062 C 224.433594 221.511719 211.3125 212.765625 197.757812 204.894531 C 189.667969 200.085938 181.792969 195.929688 174.140625 192.429688 L 177.203125 191.773438 C 185.730469 194.835938 194.695312 198.554688 203.660156 202.925781 C 218.089844 209.703125 232.085938 217.578125 245.421875 226.542969 C 281.28125 250.375 313.644531 280.769531 343.597656 310.066406 C 378.582031 344.175781 410.507812 374.570312 448.769531 397.527344 C 459.703125 404.308594 471.730469 409.335938 484.191406 412.179688 C 482.882812 416.113281 481.132812 419.832031 479.601562 423.546875 C 462.328125 421.363281 445.710938 415.457031 431.058594 406.054688 Z M 485.285156 411.523438 C 485.941406 409.554688 486.597656 407.585938 487.253906 405.402344 C 487.910156 403.214844 488.566406 400.808594 489.222656 398.621094 C 491.847656 399.496094 494.46875 400.371094 497.09375 401.027344 C 497.09375 401.246094 496.875 401.683594 496.875 401.902344 C 495.5625 405.621094 494.25 409.335938 492.722656 412.835938 C 490.316406 412.617188 487.910156 412.179688 485.285156 411.523438 Z M 497.75 402.339844 C 497.75 402.121094 497.96875 401.683594 497.96875 401.464844 C 500.59375 402.121094 503.214844 402.777344 505.621094 403.214844 C 504.089844 406.929688 502.558594 410.429688 500.8125 413.710938 C 498.40625 413.710938 496 413.492188 493.375 413.054688 C 495.125 409.554688 496.4375 406.054688 497.75 402.339844 Z M 506.496094 403.214844 C 508.902344 403.652344 511.523438 403.871094 513.929688 404.089844 C 512.398438 407.367188 510.652344 410.429688 508.902344 413.492188 C 506.496094 413.710938 504.089844 413.710938 501.902344 413.710938 C 503.433594 410.429688 505.183594 406.929688 506.496094 403.214844 Z M 506.933594 402.558594 C 507.371094 401.464844 507.808594 400.371094 508.246094 399.277344 C 509.339844 396.4375 510.433594 393.375 511.523438 390.53125 C 514.148438 391.40625 516.773438 392.0625 519.398438 392.5 C 518.960938 393.59375 518.523438 394.6875 518.085938 395.78125 C 516.992188 398.402344 515.679688 401.027344 514.585938 403.433594 C 511.960938 403.214844 509.558594 402.996094 506.933594 402.558594 Z M 511.742188 389.65625 C 513.273438 385.066406 514.804688 380.691406 516.335938 376.101562 C 519.179688 377.195312 521.800781 378.289062 524.644531 379.160156 C 523.113281 383.316406 521.582031 387.472656 519.832031 391.625 C 516.992188 391.1875 514.367188 390.3125 511.742188 389.65625 Z M 521.144531 360.578125 C 523.769531 361.886719 526.613281 363.199219 529.671875 364.730469 C 529.234375 366.261719 528.582031 367.574219 528.144531 369.105469 C 527.050781 372.164062 525.957031 375.445312 524.644531 378.507812 C 522.019531 377.632812 519.179688 376.539062 516.335938 375.445312 C 516.992188 373.476562 517.648438 371.507812 518.085938 369.761719 C 519.179688 366.699219 520.269531 363.636719 521.144531 360.578125 Z M 742.425781 368.667969 L 741.769531 368.449219 L 740.457031 366.699219 L 740.894531 366.917969 Z M 790.089844 390.53125 C 806.269531 392.28125 822.015625 385.066406 836.007812 378.726562 L 840.601562 376.539062 C 860.277344 367.792969 880.175781 359.703125 899.855469 351.832031 C 902.261719 351.175781 904.664062 350.519531 907.070312 349.863281 C 906.632812 350.957031 906.195312 351.832031 905.757812 352.921875 L 898.980469 357.296875 L 896.136719 359.046875 C 879.519531 366.042969 862.464844 372.382812 844.972656 377.632812 L 844.753906 377.632812 C 828.136719 390.3125 807.800781 396.21875 790.308594 394.03125 C 775.003906 391.84375 762.539062 384.191406 752.042969 375.226562 L 752.917969 375.226562 C 763.851562 382.878906 775.660156 389 790.089844 390.53125 Z M 754.230469 375.226562 L 755.105469 375.226562 C 765.601562 381.347656 777.410156 385.066406 789.652344 385.941406 C 790.746094 385.941406 791.839844 385.941406 792.933594 385.941406 C 806.050781 385.941406 819.171875 380.691406 830.761719 376.101562 L 835.789062 374.132812 C 854.375 366.917969 872.960938 360.140625 891.546875 353.578125 L 893.953125 352.921875 C 876.023438 360.140625 858.09375 367.355469 840.164062 375.445312 L 835.570312 377.632812 C 821.578125 383.972656 806.050781 391.1875 790.089844 389.4375 C 776.316406 388.34375 764.726562 382.441406 754.230469 375.226562 Z M 722.089844 344.832031 L 721.433594 343.300781 C 721.652344 343.519531 721.871094 343.738281 722.089844 343.957031 C 722.089844 344.175781 722.308594 344.394531 722.308594 344.394531 L 723.402344 347.019531 L 722.746094 346.363281 Z M 718.371094 338.929688 C 717.933594 337.835938 717.496094 336.960938 717.277344 335.867188 C 717.496094 336.085938 717.496094 336.304688 717.714844 336.523438 L 719.027344 339.585938 Z M 557.660156 341.554688 C 556.128906 340.898438 554.601562 340.023438 553.070312 339.367188 C 553.507812 338.492188 553.945312 337.617188 554.382812 336.742188 C 562.691406 321.875 577.777344 301.539062 602.046875 289.515625 C 624.351562 278.363281 651.027344 277.050781 671.363281 286.234375 C 689.074219 294.105469 701.097656 307.878906 711.15625 323.40625 C 711.375 324.28125 711.8125 324.9375 712.03125 325.808594 C 702.628906 313.128906 691.257812 301.976562 675.953125 295.417969 C 656.273438 287.109375 631.785156 287.984375 610.355469 298.042969 C 587.617188 308.753906 572.75 326.683594 564.222656 340.023438 C 563.566406 341.117188 562.910156 342.429688 562.035156 343.519531 Z M 562.035156 344.175781 C 559.410156 348.550781 557.222656 352.921875 555.039062 357.296875 C 552.195312 356.203125 549.132812 355.109375 546.074219 353.796875 C 548.039062 349.207031 550.226562 344.613281 552.632812 340.242188 L 557.441406 342.429688 C 558.972656 342.867188 560.503906 343.519531 562.035156 344.175781 Z M 565.3125 340.460938 C 573.621094 327.339844 588.273438 309.410156 611.011719 298.695312 C 632.003906 288.859375 656.929688 287.765625 675.953125 296.074219 C 692.132812 302.851562 703.722656 314.878906 713.5625 328.433594 L 714.65625 331.496094 C 705.472656 320.5625 694.757812 311.160156 680.542969 305.476562 C 662.179688 298.261719 639.4375 298.914062 619.320312 307.660156 C 601.609375 315.535156 586.523438 327.996094 575.371094 343.957031 C 574.496094 345.269531 573.402344 346.582031 572.53125 348.113281 C 569.46875 346.800781 566.1875 345.707031 563.128906 344.175781 C 563.785156 342.648438 564.4375 341.554688 565.3125 340.460938 Z M 715.53125 331.058594 L 715.75 331.277344 L 716.839844 333.683594 L 716.621094 333.246094 C 715.964844 332.589844 715.75 331.714844 715.53125 331.058594 Z M 719.683594 338.710938 L 719.902344 339.148438 L 720.996094 341.554688 L 720.558594 341.117188 Z M 724.496094 347.457031 L 724.058594 346.363281 L 724.714844 347.019531 L 725.804688 349.207031 L 725.367188 348.769531 Z M 726.679688 351.394531 L 728.210938 354.671875 L 727.335938 354.015625 C 726.898438 352.921875 726.242188 351.832031 725.804688 350.738281 Z M 728.429688 353.140625 L 728.867188 353.578125 L 730.179688 356.203125 L 729.523438 355.765625 Z M 731.492188 358.171875 C 732.148438 359.265625 732.585938 360.140625 733.242188 361.230469 L 732.367188 360.796875 L 730.617188 357.515625 Z M 733.242188 359.484375 L 733.894531 359.921875 C 734.332031 360.796875 734.988281 361.667969 735.425781 362.324219 L 734.769531 361.886719 C 734.113281 361.230469 733.679688 360.359375 733.242188 359.484375 Z M 736.519531 364.074219 C 737.175781 364.949219 737.832031 366.042969 738.488281 366.917969 L 738.269531 366.699219 L 737.613281 366.480469 C 736.957031 365.386719 736.519531 364.511719 735.863281 363.417969 Z M 748.109375 374.789062 L 747.234375 374.789062 C 746.578125 374.132812 745.921875 373.476562 745.265625 372.601562 L 746.140625 372.820312 Z M 790.746094 399.496094 C 809.988281 402.558594 832.289062 395.5625 850 380.691406 C 861.589844 376.757812 872.960938 372.164062 884.113281 367.136719 L 876.023438 372.601562 C 869.023438 375.882812 861.589844 379.160156 854.15625 382.003906 C 839.726562 395.125 815.671875 407.585938 791.183594 402.996094 C 773.253906 399.714844 759.480469 388.78125 747.671875 375.445312 L 748.765625 375.445312 C 759.917969 386.816406 773.253906 396.65625 790.746094 399.496094 Z M 749.859375 375.445312 L 750.953125 375.445312 C 761.882812 384.847656 774.566406 392.71875 790.308594 394.90625 C 807.800781 397.308594 828.355469 391.1875 845.191406 378.507812 C 861.371094 373.695312 876.894531 368.011719 892.203125 361.667969 L 888.265625 364.292969 C 875.585938 369.980469 862.683594 375.226562 849.566406 379.816406 L 849.347656 379.816406 C 831.636719 394.6875 809.769531 401.683594 790.746094 398.621094 C 773.910156 396 760.789062 386.597656 749.859375 375.445312 Z M 871.867188 375.226562 C 867.492188 378.070312 863.121094 381.128906 858.964844 383.972656 C 837.976562 398.402344 815.234375 412.179688 791.621094 407.585938 C 771.941406 403.652344 757.511719 391.1875 745.703125 375.664062 L 746.796875 375.664062 C 758.605469 389.4375 772.597656 400.589844 791.183594 403.871094 C 815.890625 408.460938 840.382812 395.78125 854.8125 382.660156 C 860.496094 380.253906 866.183594 377.851562 871.867188 375.226562 Z M 746.140625 374.789062 L 745.046875 374.789062 C 744.390625 373.914062 743.734375 373.039062 743.078125 372.164062 L 744.171875 372.382812 Z M 742.207031 371.289062 L 740.238281 368.667969 L 741.113281 369.105469 C 741.769531 369.980469 742.425781 370.851562 743.078125 371.507812 Z M 739.582031 367.355469 L 738.050781 364.949219 L 738.707031 365.386719 C 739.144531 366.261719 739.800781 366.917969 740.457031 367.574219 Z M 739.144531 368.011719 C 739.800781 369.105469 740.457031 369.980469 741.332031 371.070312 L 740.238281 370.851562 C 739.582031 369.761719 738.925781 368.667969 738.269531 367.574219 Z M 741.769531 371.945312 C 742.425781 373.039062 743.296875 373.914062 743.953125 374.789062 L 742.859375 374.789062 L 740.675781 371.726562 Z M 744.609375 375.664062 C 756.636719 391.1875 771.503906 404.308594 791.402344 408.242188 C 815.453125 413.054688 838.195312 399.277344 859.402344 384.628906 C 865.089844 380.691406 870.773438 376.976562 876.457031 373.039062 C 880.613281 371.070312 884.769531 369.105469 888.703125 366.917969 L 880.175781 373.476562 L 863.558594 386.160156 C 842.566406 402.121094 817.640625 417.644531 791.839844 412.179688 C 770.847656 407.585938 755.542969 392.9375 743.296875 375.882812 Z M 881.269531 369.761719 L 888.703125 364.949219 L 895.480469 361.667969 L 892.203125 364.074219 C 888.703125 366.261719 884.988281 368.011719 881.269531 369.761719 Z M 893.078125 362.105469 L 896.355469 359.921875 L 899.855469 358.390625 L 898.542969 359.484375 Z M 912.753906 348.332031 Z M 914.066406 347.019531 L 913.628906 347.019531 L 914.285156 346.363281 L 914.941406 346.144531 Z M 912.316406 347.675781 L 911.007812 347.894531 L 911.445312 347.238281 L 912.753906 346.800781 Z M 911.445312 348.550781 C 911.007812 348.988281 910.789062 349.425781 910.351562 349.863281 L 909.476562 350.300781 C 909.695312 349.863281 910.132812 349.207031 910.351562 348.769531 Z M 910.351562 347.675781 L 909.914062 348.332031 L 908.164062 348.769531 L 908.382812 348.550781 L 909.695312 347.894531 Z M 909.476562 349.207031 L 908.164062 351.394531 L 906.851562 352.265625 C 907.289062 351.394531 907.507812 350.519531 907.945312 349.644531 Z M 907.289062 352.921875 L 906.414062 353.578125 L 906.414062 353.359375 Z M 905.101562 354.671875 L 902.699219 356.640625 L 900.292969 357.734375 L 905.320312 354.453125 C 905.101562 354.234375 905.101562 354.453125 905.101562 354.671875 Z M 902.917969 357.078125 L 903.789062 356.640625 L 903.351562 357.078125 L 902.042969 357.734375 Z M 907.289062 348.988281 L 905.757812 349.425781 L 907.289062 348.769531 Z M 751.171875 374.789062 L 749.859375 373.695312 L 750.515625 373.914062 L 751.824219 375.007812 Z M 750.078125 374.789062 L 748.984375 374.789062 C 748.546875 374.132812 747.890625 373.695312 747.453125 373.039062 L 748.328125 373.257812 Z M 747.234375 372.382812 L 746.359375 372.164062 L 745.046875 370.632812 L 745.703125 370.851562 Z M 745.265625 371.945312 L 744.390625 371.726562 L 742.644531 369.542969 L 743.296875 369.761719 Z M 739.144531 364.949219 L 738.707031 364.511719 Z M 737.394531 363.855469 L 736.957031 363.636719 L 735.863281 361.886719 L 736.082031 362.105469 L 736.300781 362.105469 Z M 732.367188 357.953125 L 731.929688 357.734375 C 731.492188 357.078125 731.273438 356.640625 730.835938 355.984375 L 731.054688 356.203125 Z M 727.554688 351.175781 L 727.335938 350.957031 L 726.898438 349.863281 L 726.679688 349.207031 L 726.898438 349.425781 Z M 722.746094 343.738281 L 722.089844 342.210938 Z M 718.371094 336.085938 Z M 710.0625 319.90625 C 700.222656 305.695312 688.417969 292.792969 671.796875 285.359375 C 651.027344 276.175781 624.132812 277.269531 601.828125 288.640625 C 577.339844 300.882812 562.253906 321.21875 553.726562 336.304688 C 553.289062 337.179688 552.851562 338.054688 552.195312 338.929688 C 549.132812 337.398438 545.855469 336.085938 542.792969 334.554688 L 543.449219 333.027344 C 551.976562 316.410156 567.28125 293.667969 593.300781 280.113281 C 616.917969 267.429688 645.339844 266.117188 667.207031 276.175781 C 686.230469 284.921875 699.128906 301.101562 709.625 318.59375 C 709.625 319.03125 709.84375 319.46875 710.0625 319.90625 Z M 551.976562 339.804688 C 549.570312 344.175781 547.382812 348.769531 545.417969 353.359375 C 543.449219 352.484375 541.699219 351.613281 539.730469 350.738281 L 536.671875 349.207031 C 538.636719 344.613281 540.605469 339.804688 542.792969 335.210938 C 545.636719 336.742188 548.914062 338.273438 551.976562 339.804688 Z M 539.292969 351.394531 C 541.261719 352.265625 543.230469 353.140625 544.980469 354.015625 C 543.011719 358.609375 541.042969 363.199219 539.292969 367.574219 C 536.234375 366.480469 533.390625 365.386719 530.765625 364.292969 C 532.515625 359.484375 534.265625 354.671875 536.234375 349.863281 Z M 539.074219 368.449219 L 539.074219 368.667969 C 537.328125 372.820312 535.578125 376.976562 533.828125 380.910156 C 531.203125 380.253906 528.363281 379.597656 525.738281 378.507812 C 526.832031 375.226562 527.925781 372.164062 529.234375 369.105469 C 529.671875 367.792969 530.328125 366.261719 530.765625 364.730469 C 533.171875 366.261719 536.015625 367.355469 539.074219 368.449219 Z M 525.300781 379.597656 C 527.925781 380.472656 530.765625 381.347656 533.390625 382.003906 C 531.859375 385.503906 530.328125 389.21875 528.582031 392.71875 L 528.363281 393.15625 C 525.738281 392.9375 523.332031 392.5 520.707031 392.0625 C 522.238281 387.691406 523.769531 383.535156 525.300781 379.597656 Z M 529.234375 392.9375 C 530.984375 389.4375 532.734375 385.722656 534.265625 382.003906 C 536.890625 382.660156 539.511719 383.097656 542.136719 383.535156 C 541.042969 385.503906 540.167969 387.472656 539.074219 389.21875 C 538.199219 390.75 537.328125 392.0625 536.671875 393.375 C 534.265625 393.375 531.640625 393.375 529.234375 392.9375 Z M 534.484375 381.347656 C 536.234375 377.195312 537.980469 373.039062 539.511719 369.105469 L 539.730469 368.886719 C 542.355469 369.761719 545.199219 370.851562 548.039062 371.507812 C 546.292969 375.226562 544.324219 379.160156 542.355469 382.878906 C 539.949219 382.441406 537.109375 381.785156 534.484375 381.347656 Z M 539.949219 368.011719 C 541.699219 363.636719 543.667969 359.046875 545.636719 354.453125 C 548.695312 355.765625 551.539062 356.859375 554.382812 357.953125 C 552.632812 361.449219 550.882812 364.949219 549.351562 368.230469 C 548.914062 369.105469 548.695312 369.761719 548.257812 370.414062 C 545.636719 369.761719 542.792969 368.886719 539.949219 368.011719 Z M 550.226562 368.667969 C 551.976562 365.167969 553.507812 361.667969 555.257812 358.171875 C 558.316406 359.265625 561.160156 360.359375 564.003906 361.230469 C 562.691406 363.417969 561.378906 365.605469 560.285156 367.792969 L 557.441406 372.601562 C 554.601562 372.164062 551.976562 371.507812 549.132812 370.632812 Z M 555.691406 357.734375 C 557.878906 353.359375 560.285156 348.988281 562.691406 344.613281 C 565.75 345.925781 568.8125 347.238281 572.09375 348.550781 C 569.46875 352.703125 566.84375 356.640625 564.4375 360.796875 C 561.597656 359.703125 558.535156 358.609375 555.691406 357.734375 Z M 572.75 348.769531 C 575.808594 349.863281 578.871094 351.175781 582.148438 352.265625 C 579.308594 355.984375 576.683594 359.703125 574.058594 363.417969 C 571.21875 362.761719 568.375 361.886719 565.3125 361.015625 C 567.5 356.640625 570.125 352.703125 572.75 348.769531 Z M 573.183594 348.113281 C 574.058594 346.800781 574.933594 345.488281 575.808594 344.175781 C 586.960938 328.433594 602.046875 316.191406 619.539062 308.316406 C 639.4375 299.789062 661.960938 298.914062 680.109375 306.132812 C 694.976562 312.035156 705.910156 322.3125 715.3125 333.902344 C 715.75 334.992188 716.183594 336.304688 716.621094 337.617188 C 707.875 327.777344 696.726562 320.34375 684.480469 315.535156 C 667.644531 309.191406 646.433594 309.847656 627.628906 317.0625 C 611.230469 323.625 596.800781 334.121094 585.648438 347.457031 C 584.554688 348.769531 583.460938 350.300781 582.148438 351.613281 C 579.527344 350.300781 576.464844 349.207031 573.183594 348.113281 Z M 719.683594 342.429688 L 719.027344 340.898438 L 719.683594 341.773438 L 719.902344 342.429688 L 720.996094 345.269531 L 720.996094 345.488281 L 720.121094 344.832031 C 720.339844 343.738281 720.121094 343.085938 719.683594 342.429688 Z M 722.089844 347.238281 L 723.839844 351.394531 L 722.964844 350.738281 L 721.214844 346.363281 Z M 723.621094 348.550781 L 724.496094 349.207031 C 725.148438 350.519531 725.585938 351.613281 726.242188 352.921875 L 725.367188 352.265625 Z M 726.898438 354.453125 C 727.554688 355.765625 728.210938 357.296875 728.867188 358.609375 L 727.773438 357.953125 C 727.117188 356.640625 726.460938 355.109375 725.804688 353.578125 Z M 728.210938 355.765625 L 729.085938 356.421875 C 729.742188 357.515625 730.398438 358.828125 731.054688 360.140625 L 730.179688 359.484375 C 729.523438 358.171875 728.867188 356.859375 728.210938 355.765625 Z M 731.710938 361.449219 C 732.367188 362.761719 733.023438 364.074219 733.894531 365.386719 L 732.804688 364.949219 C 732.148438 363.636719 731.492188 362.324219 730.617188 360.796875 Z M 733.023438 362.105469 L 733.894531 362.761719 C 734.550781 363.855469 735.207031 364.949219 735.863281 366.042969 L 734.769531 365.605469 Z M 736.738281 367.355469 C 737.394531 368.449219 738.269531 369.542969 738.925781 370.851562 L 737.832031 370.632812 C 737.175781 369.324219 736.300781 368.230469 735.644531 366.917969 Z M 739.582031 371.726562 C 740.457031 372.820312 741.113281 373.914062 741.988281 375.007812 L 740.894531 375.007812 C 740.019531 373.695312 739.363281 372.601562 738.707031 371.289062 Z M 742.425781 375.882812 C 754.667969 393.375 770.191406 408.242188 791.621094 412.835938 C 817.640625 418.519531 842.785156 402.777344 863.996094 386.816406 C 869.460938 382.660156 875.148438 378.289062 880.613281 374.132812 L 892.859375 364.949219 C 894.605469 364.074219 896.355469 362.980469 898.105469 362.105469 C 887.828125 371.289062 877.769531 380.035156 868.367188 388.125 C 839.726562 412.398438 814.796875 421.582031 792.277344 416.550781 C 769.753906 411.523438 753.792969 394.90625 741.332031 375.882812 Z M 896.792969 361.886719 L 898.980469 360.140625 L 901.167969 359.046875 L 900.292969 359.921875 C 899.417969 360.578125 898.105469 361.230469 896.792969 361.886719 Z M 907.945312 354.015625 L 911.882812 350.300781 C 912.972656 349.425781 914.285156 348.550781 915.378906 347.675781 C 919.097656 346.582031 922.8125 345.707031 926.53125 344.613281 C 924.125 346.144531 921.71875 347.675781 919.316406 348.988281 C 915.378906 350.738281 911.664062 352.484375 907.945312 354.015625 Z M 917.347656 346.363281 L 919.316406 345.050781 C 923.46875 343.738281 927.40625 342.648438 931.558594 341.335938 L 928.9375 343.085938 C 925 344.175781 921.28125 345.269531 917.347656 346.363281 Z M 921.5 343.519531 C 925.875 341.992188 930.246094 340.679688 934.839844 339.148438 L 933.964844 339.804688 C 929.8125 340.898438 925.65625 342.210938 921.5 343.519531 Z M 884.113281 355.765625 C 867.929688 361.667969 851.53125 367.574219 835.570312 373.695312 L 830.542969 375.882812 C 817.421875 381.128906 803.867188 386.378906 789.652344 385.503906 C 778.066406 384.410156 766.695312 381.128906 756.636719 375.445312 L 757.292969 375.445312 C 767.570312 379.378906 778.5 381.566406 789.433594 382.003906 L 790.746094 382.003906 C 802.992188 382.003906 814.796875 378.070312 826.386719 374.351562 L 831.199219 372.820312 L 856.34375 364.730469 L 882.582031 356.421875 Z M 753.136719 374.570312 L 752.261719 373.914062 L 752.699219 373.914062 L 753.574219 374.351562 Z M 748.765625 372.601562 L 747.890625 371.726562 L 748.109375 371.726562 L 749.203125 372.601562 Z M 744.390625 369.542969 L 744.171875 369.324219 C 743.953125 369.105469 743.734375 368.667969 743.296875 368.449219 L 743.515625 368.449219 Z M 667.644531 275.519531 C 645.558594 265.242188 617.136719 266.773438 593.082031 279.457031 C 567.0625 293.230469 551.539062 316.191406 543.011719 332.808594 L 542.355469 334.335938 C 539.292969 332.808594 536.015625 331.058594 532.953125 329.527344 C 541.480469 311.160156 557.441406 286.015625 584.773438 270.929688 C 609.917969 256.933594 639.875 255.402344 663.050781 266.554688 C 683.167969 276.175781 696.726562 294.105469 707.21875 313.566406 C 697.164062 297.605469 684.917969 283.609375 667.644531 275.519531 Z M 541.917969 334.773438 C 539.730469 339.367188 537.761719 343.957031 535.796875 348.769531 C 532.734375 347.238281 529.890625 345.707031 526.832031 344.175781 C 528.582031 339.367188 530.546875 334.554688 532.734375 329.964844 C 535.796875 331.714844 538.855469 333.246094 541.917969 334.773438 Z M 535.578125 349.425781 C 533.609375 354.234375 531.859375 359.046875 530.109375 363.855469 C 527.050781 362.542969 524.207031 361.230469 521.582031 359.703125 L 521.363281 359.703125 C 522.894531 354.671875 524.644531 349.863281 526.394531 344.832031 C 529.453125 346.582031 532.515625 348.113281 535.578125 349.425781 Z M 520.707031 359.484375 C 517.867188 357.953125 514.804688 356.421875 511.960938 354.890625 C 513.492188 349.863281 515.023438 344.832031 516.773438 339.804688 C 519.832031 341.554688 522.675781 343.085938 525.738281 344.613281 C 523.988281 349.644531 522.238281 354.453125 520.707031 359.484375 Z M 520.488281 360.140625 C 519.617188 363.199219 518.523438 366.261719 517.648438 369.324219 C 516.992188 371.289062 516.335938 373.039062 515.898438 375.007812 C 513.054688 373.914062 510.214844 372.601562 507.371094 371.070312 L 507.808594 369.761719 C 509.121094 364.949219 510.433594 360.359375 511.960938 355.546875 C 514.585938 357.296875 517.648438 358.828125 520.488281 360.140625 Z M 506.933594 369.761719 L 506.714844 370.851562 L 503.433594 369.105469 C 501.6875 368.230469 499.9375 367.136719 498.1875 366.042969 C 499.5 360.796875 500.8125 355.546875 502.339844 350.082031 C 505.183594 351.832031 508.246094 353.359375 511.085938 355.109375 C 509.558594 360.140625 508.246094 364.949219 506.933594 369.761719 Z M 497.3125 365.824219 C 457.515625 343.519531 421.222656 314.222656 386.234375 286.015625 L 385.800781 285.578125 C 352.78125 258.902344 314.082031 228.945312 271.660156 210.140625 C 255.699219 203.144531 239.300781 197.679688 222.246094 193.742188 C 212.40625 191.558594 202.566406 190.027344 192.507812 188.933594 L 193.164062 188.714844 C 222.902344 189.152344 252.203125 194.835938 279.96875 205.550781 C 324.574219 222.824219 364.808594 251.90625 399.136719 278.144531 L 404.601562 282.296875 C 435.433594 305.695312 467.136719 329.964844 501.25 349.644531 C 500.15625 355.109375 498.625 360.578125 497.3125 365.824219 Z M 186.605469 189.371094 L 185.511719 189.371094 L 184.636719 189.152344 L 185.730469 189.152344 Z M 178.953125 189.152344 L 178.078125 189.371094 L 177.640625 189.152344 Z M 171.957031 188.714844 L 170.863281 188.714844 L 170.207031 188.496094 L 171.300781 188.496094 Z M 164.957031 187.839844 L 163.863281 187.839844 L 163.207031 187.621094 L 164.300781 187.839844 Z M 158.617188 186.308594 L 157.523438 186.308594 L 156.648438 185.871094 L 157.742188 186.089844 Z M 150.964844 184.339844 L 150.089844 183.902344 L 151.183594 184.121094 L 152.058594 184.558594 Z M 145.933594 182.15625 L 144.84375 181.9375 C 144.625 181.71875 144.1875 181.5 143.96875 181.28125 L 144.84375 181.5 Z M 141.78125 180.625 L 143.09375 181.5 L 141.5625 181.28125 L 140.46875 180.1875 Z M 144.625 182.59375 L 146.152344 183.683594 L 143.96875 183.464844 L 142.4375 182.15625 Z M 147.246094 184.777344 L 148.996094 186.089844 C 148.121094 186.089844 147.464844 186.089844 146.589844 186.089844 L 144.84375 184.558594 Z M 149.871094 186.964844 L 151.621094 188.277344 L 148.996094 188.496094 L 147.464844 186.964844 Z M 152.496094 188.933594 L 154.460938 190.464844 L 151.621094 190.902344 L 149.871094 189.152344 Z M 155.117188 191.121094 L 156.867188 192.648438 L 153.808594 193.304688 L 152.058594 191.558594 C 152.933594 191.558594 154.027344 191.339844 155.117188 191.121094 Z M 157.742188 193.304688 L 159.710938 195.054688 L 156.210938 195.929688 L 154.460938 193.960938 Z M 160.367188 195.710938 C 166.925781 201.613281 173.265625 207.738281 179.171875 213.640625 C 190.101562 224.574219 200.816406 235.726562 210.875 246.875 C 238.207031 277.269531 263.789062 310.285156 287.84375 341.335938 C 310.800781 371.507812 339.445312 408.898438 376.617188 434.261719 C 397.167969 448.476562 420.128906 455.691406 441.335938 455.691406 C 448.550781 455.691406 455.988281 454.816406 462.984375 452.847656 C 461.234375 455.035156 459.484375 457.003906 457.734375 458.972656 C 423.625 474.277344 383.832031 460.0625 359.125 442.789062 C 323.265625 417.644531 297.460938 380.910156 274.722656 348.769531 C 252.199219 317.0625 228.367188 283.390625 203.003906 251.46875 C 193.820312 239.878906 183.980469 227.851562 173.921875 215.828125 C 168.457031 209.269531 162.773438 202.925781 157.085938 196.585938 Z M 376.835938 433.824219 C 339.882812 408.460938 311.238281 371.070312 288.277344 341.117188 C 264.445312 309.847656 238.644531 276.832031 211.3125 246.65625 C 201.253906 235.507812 190.757812 224.355469 179.609375 213.421875 C 173.703125 207.519531 167.582031 201.613281 161.242188 195.710938 L 164.738281 194.835938 C 171.957031 200.085938 178.734375 205.550781 185.292969 211.234375 C 197.101562 221.074219 208.6875 231.351562 219.402344 242.066406 C 248.921875 270.710938 276.253906 303.070312 301.617188 333.902344 C 331.574219 369.976562 359.125 401.902344 394.546875 425.515625 C 411.382812 436.667969 434.121094 446.070312 456.644531 446.070312 C 460.578125 446.070312 464.515625 445.851562 468.449219 445.195312 C 466.699219 447.820312 465.171875 450.222656 463.421875 452.410156 C 433.027344 461.15625 398.699219 448.695312 376.835938 433.824219 Z M 394.980469 424.640625 C 359.777344 401.027344 332.011719 369.324219 302.273438 333.027344 C 276.910156 302.195312 249.578125 269.835938 220.058594 241.191406 C 209.125 230.695312 197.757812 220.199219 185.949219 210.359375 C 179.390625 204.894531 172.828125 199.429688 165.832031 194.398438 L 169.113281 193.523438 C 176.984375 198.335938 184.636719 203.144531 191.632812 208.175781 C 204.316406 216.921875 216.5625 226.542969 228.367188 236.597656 C 260.074219 263.710938 288.933594 295.417969 315.828125 325.589844 C 347.316406 361.015625 376.398438 392.28125 412.910156 415.894531 C 429.09375 426.390625 450.957031 435.136719 472.605469 435.136719 L 474.355469 435.136719 C 472.824219 438.199219 471.074219 441.042969 469.324219 443.882812 C 442.867188 448.039062 414.660156 437.542969 394.980469 424.640625 Z M 475.011719 435.136719 C 477.195312 435.136719 479.382812 434.917969 481.570312 434.699219 C 479.820312 437.324219 478.070312 439.949219 476.320312 442.351562 C 474.136719 443.007812 472.167969 443.445312 469.980469 443.882812 C 471.949219 440.824219 473.480469 437.980469 475.011719 435.136719 Z M 475.445312 434.261719 C 477.195312 431.203125 478.726562 427.921875 480.039062 424.421875 C 482.445312 424.640625 484.847656 424.859375 487.035156 424.859375 C 485.503906 427.921875 483.757812 430.984375 482.007812 433.824219 C 480.039062 434.042969 477.632812 434.261719 475.445312 434.261719 Z M 488.128906 424.859375 C 490.316406 424.859375 492.722656 424.640625 494.90625 424.421875 C 493.15625 427.046875 491.410156 429.671875 489.660156 432.296875 C 487.472656 432.949219 485.503906 433.167969 483.320312 433.605469 C 484.847656 430.765625 486.597656 427.921875 488.128906 424.859375 Z M 488.566406 424.203125 C 490.316406 420.925781 491.847656 417.644531 493.375 413.929688 C 495.78125 414.148438 498.1875 414.367188 500.59375 414.585938 C 499.0625 417.863281 497.3125 420.925781 495.5625 423.765625 C 493.15625 423.765625 490.972656 423.984375 488.566406 424.203125 Z M 501.46875 414.582031 L 503.652344 414.582031 C 505.183594 414.582031 506.714844 414.582031 508.464844 414.367188 C 506.714844 417.207031 504.964844 419.832031 503.214844 422.238281 C 501.03125 422.675781 498.84375 423.113281 496.65625 423.332031 C 498.1875 420.707031 499.9375 417.644531 501.46875 414.582031 Z M 509.339844 414.367188 C 511.523438 414.148438 513.710938 413.929688 515.898438 413.492188 C 514.148438 415.894531 512.398438 418.082031 510.433594 420.269531 C 508.464844 420.925781 506.277344 421.582031 504.308594 422.238281 C 506.058594 419.613281 507.808594 416.988281 509.339844 414.367188 Z M 509.996094 413.492188 C 511.742188 410.648438 513.492188 407.367188 515.023438 404.308594 C 516.554688 404.308594 518.085938 404.527344 519.617188 404.527344 C 520.488281 404.527344 521.363281 404.527344 522.019531 404.527344 C 520.269531 407.367188 518.523438 410.210938 516.554688 412.617188 C 514.367188 413.054688 512.179688 413.273438 509.996094 413.492188 Z M 515.242188 403.433594 C 516.335938 401.027344 517.648438 398.621094 518.742188 396 C 519.179688 394.90625 519.617188 393.8125 520.050781 392.71875 C 522.457031 393.15625 525.082031 393.59375 527.707031 393.8125 C 525.957031 397.089844 524.207031 400.371094 522.457031 403.433594 C 520.050781 403.652344 517.648438 403.652344 515.242188 403.433594 Z M 528.582031 394.03125 C 530.984375 394.25 533.390625 394.46875 535.796875 394.46875 L 536.015625 394.46875 C 534.265625 397.308594 532.296875 400.152344 530.328125 402.777344 C 528.144531 403.214844 525.738281 403.433594 523.332031 403.652344 C 525.300781 400.371094 527.050781 397.308594 528.582031 394.03125 Z M 539.511719 389.65625 C 540.605469 387.691406 541.699219 385.722656 542.792969 383.753906 C 545.417969 384.191406 547.820312 384.410156 550.445312 384.410156 C 550.007812 384.847656 549.789062 385.503906 549.351562 386.160156 C 547.820312 388.5625 546.074219 390.75 544.542969 392.9375 C 542.136719 393.375 539.730469 393.375 537.328125 393.59375 C 538.199219 392.28125 538.855469 390.96875 539.511719 389.65625 Z M 543.230469 382.878906 C 545.199219 379.160156 546.945312 375.226562 548.914062 371.507812 C 551.539062 372.164062 554.382812 372.820312 557.222656 373.476562 C 555.257812 376.757812 553.289062 380.253906 551.101562 383.535156 C 548.476562 383.535156 545.855469 383.316406 543.230469 382.878906 Z M 558.316406 372.820312 L 560.941406 368.230469 C 562.253906 366.042969 563.566406 363.636719 564.875 361.449219 C 567.71875 362.324219 570.78125 363.199219 573.621094 363.855469 L 571.21875 367.355469 C 569.6875 369.542969 568.15625 371.726562 566.625 373.914062 C 563.785156 373.695312 560.941406 373.257812 558.316406 372.820312 Z M 571.65625 368.011719 L 574.277344 364.074219 C 577.121094 364.730469 580.183594 365.386719 583.023438 365.824219 L 581.933594 366.917969 C 579.746094 369.324219 577.777344 371.726562 575.589844 374.132812 C 574.496094 374.132812 573.402344 374.132812 572.3125 374.132812 L 571.4375 374.132812 C 570.125 374.132812 568.8125 374.132812 567.5 373.914062 C 568.8125 371.945312 570.34375 369.980469 571.65625 368.011719 Z M 583.460938 364.949219 C 580.621094 364.511719 577.777344 363.855469 574.714844 363.199219 C 577.339844 359.484375 579.964844 355.765625 582.804688 352.265625 C 585.867188 353.359375 588.929688 354.453125 592.207031 355.546875 C 589.148438 358.828125 586.304688 361.886719 583.460938 364.949219 Z M 593.519531 355.109375 C 594.832031 353.796875 595.925781 352.703125 597.238281 351.394531 C 608.609375 340.460938 622.164062 331.933594 637.03125 326.902344 C 653.652344 321 671.796875 320.78125 688.855469 326.027344 C 700.441406 330.183594 710.9375 336.742188 719.902344 345.050781 C 720.558594 346.582031 721.214844 348.113281 721.871094 349.644531 C 713.34375 343.085938 703.722656 338.273438 693.445312 334.992188 C 677.703125 330.839844 661.304688 330.839844 645.558594 335.429688 C 631.785156 339.367188 618.882812 345.925781 607.515625 354.453125 C 605.984375 355.546875 604.453125 356.859375 602.921875 357.953125 C 599.863281 357.078125 596.800781 356.203125 593.519531 355.109375 Z M 607.953125 355.109375 C 619.320312 346.582031 632.003906 340.242188 645.777344 336.304688 C 661.304688 331.933594 677.703125 331.714844 693.226562 335.867188 C 703.722656 339.148438 713.5625 344.394531 722.308594 351.175781 L 724.496094 356.203125 C 716.183594 351.394531 707.21875 347.675781 697.820312 345.269531 C 683.605469 341.992188 668.738281 341.992188 654.523438 345.050781 C 642.0625 347.675781 629.816406 352.050781 618.664062 357.953125 C 616.917969 358.828125 615.167969 359.703125 613.636719 360.796875 C 610.574219 359.921875 607.296875 359.046875 604.234375 358.171875 C 605.328125 357.296875 606.640625 356.203125 607.953125 355.109375 Z M 723.621094 352.050781 L 724.714844 352.921875 L 726.898438 357.515625 L 725.804688 356.859375 C 724.929688 355.109375 724.277344 353.578125 723.621094 352.050781 Z M 727.117188 358.609375 C 727.773438 360.140625 728.648438 361.886719 729.304688 363.417969 L 728.210938 362.980469 C 727.335938 361.230469 726.679688 359.703125 726.023438 357.953125 Z M 728.429688 359.265625 L 729.523438 359.921875 C 730.179688 361.449219 731.054688 362.761719 731.710938 364.292969 L 730.617188 363.855469 C 729.960938 362.324219 729.085938 360.796875 728.429688 359.265625 Z M 732.148438 365.386719 C 733.023438 366.917969 733.679688 368.449219 734.550781 369.761719 L 733.460938 369.542969 C 732.585938 368.011719 731.929688 366.480469 731.054688 364.949219 Z M 733.460938 365.824219 L 734.550781 366.261719 C 735.425781 367.574219 736.082031 368.886719 736.957031 370.195312 L 735.863281 369.980469 C 734.988281 368.667969 734.113281 367.136719 733.460938 365.824219 Z M 737.394531 371.070312 C 738.269531 372.382812 738.925781 373.695312 739.800781 375.007812 L 738.707031 375.007812 C 737.832031 373.695312 736.957031 372.382812 736.300781 370.851562 Z M 740.238281 375.882812 C 752.917969 395.34375 769.101562 411.960938 792.058594 417.207031 C 815.015625 422.457031 839.945312 413.054688 868.804688 388.78125 C 879.082031 380.035156 890.015625 370.632812 900.949219 360.578125 L 901.824219 360.140625 C 892.640625 370.632812 883.019531 380.691406 872.960938 390.3125 C 857.21875 405.183594 825.730469 429.234375 792.714844 420.925781 C 768.882812 415.019531 752.042969 396.4375 739.363281 375.664062 Z M 931.339844 342.210938 L 934.183594 340.460938 L 935.933594 340.023438 L 932.214844 342.210938 Z M 936.589844 338.929688 L 937.683594 338.273438 L 940.742188 337.179688 L 938.992188 338.273438 Z M 940.304688 336.523438 L 944.898438 334.773438 L 944.242188 335.210938 Z M 855.90625 363.636719 L 830.761719 371.507812 L 825.949219 373.039062 C 814.140625 376.976562 801.898438 380.910156 789.214844 380.691406 C 778.9375 380.253906 768.882812 378.289062 759.261719 375.007812 C 767.570312 376.320312 776.097656 377.195312 784.625 377.195312 C 785.9375 377.195312 787.464844 377.195312 788.777344 377.195312 C 800.148438 376.757812 811.519531 374.132812 822.453125 371.289062 L 826.167969 370.414062 C 841.472656 366.699219 856.78125 362.761719 872.085938 358.609375 Z M 663.269531 265.460938 C 639.875 254.089844 609.699219 255.839844 584.335938 269.835938 C 556.785156 285.140625 540.824219 310.285156 532.296875 328.871094 C 529.234375 327.121094 526.175781 325.589844 523.113281 323.84375 C 531.859375 303.945312 548.039062 277.488281 576.027344 261.308594 C 602.484375 246 634.191406 244.035156 658.679688 256.277344 C 678.796875 266.335938 692.351562 284.484375 703.066406 304.382812 C 693.007812 288.203125 680.542969 273.988281 663.269531 265.460938 Z M 531.859375 329.527344 C 529.671875 334.121094 527.707031 338.929688 525.957031 343.738281 C 522.894531 342.210938 519.832031 340.460938 516.992188 338.929688 C 518.523438 334.554688 520.269531 329.964844 522.019531 325.589844 L 522.457031 324.5 C 525.738281 326.246094 528.796875 327.996094 531.859375 329.527344 Z M 521.363281 325.375 C 519.617188 329.746094 517.867188 334.121094 516.335938 338.492188 C 513.273438 336.742188 510.214844 334.992188 507.371094 333.246094 C 508.683594 329.527344 509.996094 325.589844 511.523438 321.875 C 511.960938 320.78125 512.398438 319.6875 512.835938 318.59375 C 515.898438 320.34375 518.960938 322.09375 522.019531 323.84375 C 521.800781 324.71875 521.582031 324.9375 521.363281 325.375 Z M 516.117188 339.148438 C 514.367188 344.175781 512.835938 349.207031 511.304688 354.234375 C 508.464844 352.703125 505.402344 350.957031 502.558594 349.207031 C 503.871094 343.957031 505.402344 338.929688 507.152344 333.902344 C 510.214844 335.867188 513.054688 337.617188 516.117188 339.148438 Z M 501.6875 348.988281 C 467.792969 329.308594 436.089844 305.257812 405.257812 281.859375 L 399.792969 277.707031 C 365.464844 251.46875 325.011719 222.167969 280.40625 205.113281 C 263.570312 198.773438 246.296875 193.960938 228.367188 191.121094 C 218.527344 189.589844 208.6875 188.714844 198.632812 188.277344 C 210.4375 187.839844 222.464844 188.058594 234.273438 189.152344 C 252.855469 190.902344 271.003906 194.835938 288.714844 200.523438 C 335.289062 216.046875 377.488281 244.691406 413.128906 270.273438 L 425.15625 278.800781 C 451.175781 297.605469 478.070312 316.84375 506.058594 333.464844 C 504.746094 338.710938 503.214844 343.957031 501.6875 348.988281 Z M 133.691406 175.375 L 134.347656 176.03125 L 133.472656 175.8125 L 132.816406 175.15625 Z M 136.097656 177.5625 L 137.1875 178.65625 L 135.660156 178.21875 C 135.222656 177.78125 135.003906 177.34375 134.566406 176.90625 C 135.222656 177.125 135.660156 177.34375 136.097656 177.5625 Z M 138.5 179.75 L 140.03125 181.0625 L 138.0625 180.84375 L 136.75 179.3125 Z M 141.125 182.15625 L 142.65625 183.683594 L 140.46875 183.464844 C 140.03125 182.808594 139.375 182.375 138.9375 181.71875 Z M 143.53125 184.558594 L 145.277344 186.308594 L 142.65625 186.308594 L 141.125 184.339844 Z M 146.152344 186.964844 L 147.902344 188.714844 L 145.0625 188.933594 L 143.53125 186.964844 Z M 148.558594 189.371094 C 149.214844 190.027344 149.871094 190.683594 150.308594 191.339844 L 147.246094 191.773438 C 146.589844 191.121094 146.152344 190.464844 145.496094 189.589844 C 146.589844 189.371094 147.464844 189.371094 148.558594 189.371094 Z M 150.964844 191.773438 L 152.714844 193.742188 L 149.433594 194.398438 L 147.683594 192.210938 Z M 153.371094 194.398438 L 155.335938 196.367188 L 151.839844 197.460938 L 150.089844 195.273438 C 150.964844 194.835938 152.277344 194.617188 153.371094 194.398438 Z M 457.953125 459.84375 C 459.265625 459.1875 460.359375 458.753906 461.671875 458.097656 C 459.484375 460.0625 457.082031 461.59375 454.675781 463.34375 C 455.769531 462.25 456.863281 460.9375 457.953125 459.84375 Z M 462.546875 456.566406 C 461.453125 457.222656 460.359375 457.660156 459.265625 458.316406 C 461.015625 456.347656 462.546875 454.597656 464.078125 452.628906 C 465.828125 452.191406 467.574219 451.535156 469.324219 450.660156 C 467.792969 452.410156 466.046875 453.941406 464.515625 455.472656 C 463.640625 455.910156 463.203125 456.347656 462.546875 456.566406 Z M 464.734375 451.535156 C 466.480469 449.351562 468.011719 446.945312 469.542969 444.539062 C 471.511719 444.101562 473.699219 443.664062 475.664062 443.226562 C 473.917969 445.414062 472.167969 447.601562 470.417969 449.570312 C 468.449219 450.222656 466.699219 450.878906 464.734375 451.535156 Z M 477.851562 441.695312 C 479.601562 439.292969 481.132812 436.886719 482.882812 434.261719 C 485.066406 434.042969 487.035156 433.605469 489.222656 433.167969 C 487.472656 435.355469 485.722656 437.542969 483.976562 439.730469 C 481.789062 440.386719 479.820312 441.261719 477.851562 441.695312 Z M 490.972656 431.859375 C 492.722656 429.453125 494.46875 426.828125 496 424.203125 C 498.1875 423.984375 500.375 423.546875 502.339844 423.113281 C 500.59375 425.296875 498.84375 427.484375 497.09375 429.671875 C 495.125 430.765625 492.941406 431.421875 490.972656 431.859375 Z M 503.652344 423.113281 C 505.621094 422.675781 507.589844 422.019531 509.339844 421.363281 C 507.589844 423.113281 505.839844 424.859375 504.089844 426.609375 C 502.339844 427.484375 500.59375 428.359375 498.625 429.234375 C 500.375 427.265625 501.902344 425.078125 503.652344 423.113281 Z M 517.210938 413.054688 C 519.179688 412.617188 521.144531 412.179688 523.113281 411.523438 C 521.363281 413.492188 519.617188 415.238281 517.867188 416.769531 C 516.117188 417.644531 514.148438 418.519531 512.179688 419.394531 C 513.710938 417.425781 515.460938 415.457031 517.210938 413.054688 Z M 523.113281 410.867188 C 521.363281 411.304688 519.617188 411.960938 517.867188 412.179688 C 519.617188 409.773438 521.363281 406.929688 523.113281 404.308594 C 525.300781 404.089844 527.707031 403.871094 529.890625 403.652344 C 528.144531 406.054688 526.175781 408.460938 524.207031 410.429688 Z M 530.984375 403.433594 C 532.515625 403.214844 534.046875 402.777344 535.359375 402.558594 L 537.109375 402.121094 C 535.359375 404.089844 533.390625 405.835938 531.421875 407.585938 C 529.453125 408.460938 527.488281 409.335938 525.738281 410.210938 C 527.488281 407.804688 529.015625 405.621094 530.984375 403.433594 Z M 535.140625 401.683594 C 534.046875 401.902344 532.734375 402.339844 531.640625 402.558594 C 533.609375 399.933594 535.359375 397.308594 537.109375 394.25 C 539.511719 394.25 541.699219 394.03125 544.105469 393.8125 C 542.136719 396.21875 540.167969 398.621094 538.199219 400.808594 C 537.109375 401.027344 536.015625 401.464844 535.140625 401.683594 Z M 545.199219 393.59375 L 547.382812 393.15625 C 548.914062 392.9375 550.226562 392.5 551.757812 392.0625 C 549.789062 394.03125 547.820312 395.78125 545.855469 397.527344 C 543.886719 398.402344 541.699219 399.277344 539.730469 399.933594 C 541.480469 398.183594 543.230469 396 545.199219 393.59375 Z M 547.382812 392.5 L 546.074219 392.71875 C 547.601562 390.75 548.914062 388.5625 550.445312 386.378906 C 550.882812 385.722656 551.320312 385.066406 551.757812 384.191406 C 554.164062 384.191406 556.785156 384.191406 559.191406 383.972656 C 557.222656 386.378906 555.039062 388.78125 553.070312 390.96875 C 550.882812 391.625 549.132812 392.0625 547.382812 392.5 Z M 560.066406 383.972656 C 562.472656 383.753906 564.875 383.316406 567.0625 382.878906 C 565.09375 384.628906 563.128906 386.378906 560.722656 388.34375 C 558.535156 389.21875 556.347656 390.09375 554.164062 390.75 C 556.128906 388.5625 558.097656 386.378906 560.066406 383.972656 Z M 560.722656 383.097656 C 562.910156 380.253906 564.875 377.632812 567.0625 374.789062 C 568.59375 374.789062 570.125 375.007812 571.65625 375.007812 L 575.152344 375.007812 C 573.621094 376.539062 572.3125 378.070312 570.78125 379.597656 C 570.125 380.472656 569.25 381.128906 568.375 382.003906 C 565.75 382.441406 563.128906 382.878906 560.722656 383.097656 Z M 571.21875 380.035156 C 572.96875 378.289062 574.496094 376.539062 576.027344 374.789062 C 578.652344 374.789062 581.277344 374.570312 583.679688 374.132812 C 582.804688 374.789062 581.933594 375.445312 581.058594 376.101562 C 579.746094 377.195312 578.214844 378.289062 576.683594 379.378906 C 574.496094 380.035156 572.09375 380.691406 569.6875 381.347656 C 570.125 381.128906 570.5625 380.472656 571.21875 380.035156 Z M 576.902344 374.132812 C 578.871094 371.945312 580.839844 369.761719 582.804688 367.574219 L 584.117188 366.042969 C 587.179688 366.480469 590.023438 366.699219 592.644531 366.917969 C 590.023438 369.105469 587.398438 371.289062 584.773438 373.476562 C 582.148438 373.695312 579.308594 373.914062 576.902344 374.132812 Z M 593.738281 366.917969 C 596.582031 367.136719 599.425781 367.355469 602.046875 367.355469 C 599.425781 368.886719 596.800781 370.414062 594.175781 371.726562 C 591.769531 372.164062 589.148438 372.820312 586.304688 373.039062 C 588.710938 371.070312 591.332031 368.886719 593.738281 366.917969 Z M 594.613281 366.042969 C 597.457031 363.636719 600.296875 361.230469 603.359375 358.828125 C 606.421875 359.703125 609.480469 360.578125 612.542969 361.449219 C 610.136719 362.761719 607.734375 364.074219 605.546875 365.386719 L 603.578125 366.480469 C 600.515625 366.480469 597.675781 366.261719 594.394531 366.042969 Z M 614.511719 361.230469 C 616.042969 360.359375 617.355469 359.703125 618.882812 358.828125 C 630.035156 352.921875 642.28125 348.332031 654.742188 345.707031 C 668.957031 342.648438 683.605469 342.648438 697.820312 345.925781 C 707.4375 348.550781 716.621094 352.265625 725.148438 357.296875 C 726.023438 359.046875 726.679688 360.796875 727.554688 362.542969 C 719.464844 359.265625 710.9375 356.859375 702.410156 355.109375 C 689.507812 352.921875 676.390625 352.484375 663.488281 354.234375 C 652.121094 355.765625 640.75 358.171875 629.597656 361.667969 L 623.914062 363.417969 C 620.632812 362.761719 617.574219 361.886719 614.511719 361.230469 Z M 629.597656 362.542969 C 640.75 359.046875 651.902344 356.640625 663.488281 355.109375 C 676.390625 353.359375 689.289062 353.578125 702.191406 355.984375 C 710.9375 357.734375 719.464844 360.359375 727.773438 363.855469 C 728.648438 365.605469 729.523438 367.355469 730.398438 369.324219 C 722.746094 367.792969 714.875 366.261719 706.347656 365.386719 C 694.976562 364.074219 683.386719 363.636719 672.015625 364.074219 C 662.613281 364.292969 653.652344 364.949219 645.121094 365.605469 L 640.3125 365.824219 L 634.191406 366.261719 C 631.128906 365.605469 628.285156 364.949219 625.226562 364.292969 Z M 729.085938 363.855469 L 730.179688 364.292969 C 731.054688 366.042969 731.929688 367.574219 732.585938 369.105469 L 731.273438 368.886719 C 730.398438 367.355469 729.742188 365.605469 729.085938 363.855469 Z M 733.242188 370.195312 C 734.113281 371.726562 734.988281 373.476562 735.863281 375.007812 L 734.332031 375.007812 C 733.460938 373.257812 732.585938 371.726562 731.710938 369.976562 Z M 734.113281 370.414062 L 735.207031 370.632812 L 735.425781 370.632812 C 736.300781 372.164062 737.175781 373.476562 737.832031 375.007812 L 736.519531 375.007812 C 735.644531 373.476562 734.769531 371.945312 734.113281 370.414062 Z M 738.488281 375.882812 C 751.171875 396.871094 768.226562 415.675781 792.714844 421.800781 C 826.167969 429.890625 857.875 406.054688 873.835938 390.96875 C 883.894531 381.566406 893.296875 371.507812 902.261719 361.449219 C 895.042969 372.382812 886.734375 382.878906 877.769531 392.5 C 851.96875 420.269531 820.484375 432.511719 793.152344 425.515625 C 767.789062 418.957031 750.078125 398.621094 737.175781 376.101562 Z M 905.757812 357.078125 L 905.976562 356.859375 Z M 935.933594 340.898438 L 935.496094 340.898438 L 939.429688 338.710938 L 941.179688 338.273438 Z M 945.773438 336.085938 L 942.929688 336.960938 L 944.898438 335.867188 L 948.832031 334.554688 Z M 953.425781 332.152344 L 948.175781 333.902344 L 949.269531 333.246094 L 955.832031 330.839844 Z M 965.453125 325.589844 L 961.078125 327.996094 L 952.988281 330.839844 L 954.300781 329.964844 Z M 948.832031 332.589844 L 945.773438 333.683594 L 949.488281 332.152344 Z M 821.796875 368.449219 C 833.382812 366.699219 844.972656 364.511719 856.5625 362.105469 C 846.503906 364.730469 836.445312 367.355469 826.386719 369.761719 L 822.671875 370.632812 C 811.738281 373.257812 800.585938 376.101562 789.214844 376.539062 C 780.6875 376.757812 771.941406 376.320312 763.414062 375.007812 C 782.4375 373.695312 802.117188 371.507812 821.796875 368.449219 Z M 567.28125 251.90625 C 594.613281 235.507812 628.941406 233.101562 654.304688 246.21875 C 674.859375 256.714844 688.636719 275.300781 699.347656 296.074219 C 689.289062 279.019531 676.609375 264.367188 659.117188 255.402344 C 634.410156 242.941406 602.484375 244.910156 575.808594 260.433594 C 547.382812 277.050781 531.203125 303.507812 522.238281 323.40625 C 519.179688 321.65625 516.117188 319.90625 513.054688 318.15625 C 522.019531 296.730469 538.417969 269.179688 567.28125 251.90625 Z M 297.679688 195.492188 C 352.34375 211.015625 400.230469 243.816406 446.804688 275.738281 C 468.011719 290.167969 489.660156 305.039062 512.179688 318.375 C 511.742188 319.46875 511.304688 320.5625 510.867188 321.65625 C 509.339844 325.371094 508.027344 329.089844 506.933594 332.808594 C 478.945312 316.191406 452.269531 296.949219 426.25 278.363281 C 422.3125 275.519531 418.378906 272.675781 414.222656 269.835938 C 378.363281 244.253906 336.382812 215.390625 289.589844 199.867188 C 271.878906 193.960938 253.730469 190.246094 235.144531 188.277344 C 226.617188 187.402344 217.871094 186.964844 209.34375 187.183594 C 238.644531 184.558594 268.820312 187.402344 297.679688 195.492188 Z M 125.820312 169.035156 L 126.039062 169.253906 L 125.820312 169.253906 Z M 127.351562 171.003906 L 128.222656 171.660156 L 128.878906 172.316406 L 128.003906 171.878906 Z M 129.316406 173.191406 L 130.847656 173.84375 C 131.285156 174.28125 131.503906 174.71875 131.941406 175.15625 L 130.410156 174.71875 C 129.972656 174.0625 129.535156 173.628906 129.316406 173.191406 Z M 131.285156 175.59375 L 133.035156 176.25 L 134.347656 177.78125 C 133.691406 177.5625 133.035156 177.34375 132.378906 177.34375 C 131.941406 176.6875 131.722656 176.25 131.285156 175.59375 Z M 133.253906 178.21875 L 135.441406 178.875 C 135.878906 179.3125 136.3125 179.96875 136.96875 180.625 L 134.785156 180.1875 Z M 135.441406 181.0625 L 137.84375 181.5 L 139.59375 183.246094 L 137.1875 183.027344 C 136.3125 182.59375 135.878906 181.71875 135.441406 181.0625 Z M 137.625 183.902344 L 140.25 184.121094 C 140.90625 184.777344 141.34375 185.433594 142 186.089844 L 139.375 186.308594 Z M 139.8125 186.964844 L 142.65625 186.964844 C 143.09375 187.621094 143.75 188.277344 144.40625 188.933594 C 143.53125 188.933594 142.4375 189.152344 141.5625 189.152344 Z M 141.78125 189.808594 C 142.875 189.589844 143.75 189.589844 144.84375 189.371094 C 145.496094 190.027344 145.933594 190.902344 146.589844 191.558594 L 143.53125 192.210938 Z M 143.96875 192.867188 L 147.246094 192.210938 L 148.996094 194.398438 L 145.714844 195.273438 Z M 145.933594 196.148438 L 149.433594 195.273438 L 151.183594 197.679688 L 147.683594 198.773438 Z M 438.277344 474.933594 C 400.886719 497.234375 353.21875 484.117188 322.609375 461.375 C 288.933594 436.230469 266.414062 398.183594 246.296875 364.730469 L 161.242188 221.511719 C 157.085938 214.515625 152.714844 207.082031 147.902344 199.648438 L 151.621094 198.554688 C 156.648438 205.332031 161.898438 212.109375 166.925781 219.324219 C 176.328125 232.664062 185.074219 245.128906 193.601562 257.371094 C 216.777344 291.042969 239.082031 325.15625 260.074219 357.296875 C 281.5 390.3125 305.769531 427.703125 340.539062 452.847656 C 359.558594 466.625 385.363281 476.902344 410.726562 476.902344 C 423.84375 477.117188 436.964844 473.839844 448.769531 467.9375 C 445.273438 470.558594 441.773438 472.964844 438.277344 474.933594 Z M 470.855469 450.007812 C 472.167969 449.570312 473.261719 448.914062 474.574219 448.257812 C 472.386719 450.222656 469.980469 451.972656 467.574219 453.503906 C 468.667969 452.410156 469.761719 451.316406 470.855469 450.007812 Z M 480.476562 444.101562 C 481.789062 443.007812 482.882812 441.695312 484.191406 440.386719 C 485.066406 439.949219 486.160156 439.511719 487.035156 439.074219 L 488.347656 438.417969 C 485.722656 440.386719 483.101562 442.351562 480.476562 444.101562 Z M 493.8125 434.261719 C 495.125 432.949219 496.21875 431.859375 497.3125 430.328125 C 497.75 430.109375 498.40625 429.890625 498.84375 429.671875 C 499.71875 429.234375 500.59375 428.796875 501.46875 428.578125 C 499.28125 430.765625 496.65625 432.511719 493.8125 434.261719 Z M 506.933594 424.859375 C 508.246094 423.546875 509.558594 422.238281 510.867188 420.707031 L 511.085938 420.707031 C 512.398438 420.269531 513.929688 419.613281 515.242188 418.957031 C 512.617188 421.144531 509.777344 423.113281 506.933594 424.859375 Z M 520.488281 415.238281 C 521.800781 413.929688 523.113281 412.617188 524.425781 411.085938 C 525.957031 410.648438 527.488281 409.992188 529.015625 409.335938 C 526.394531 411.523438 523.550781 413.492188 520.488281 415.238281 Z M 534.265625 405.835938 C 535.796875 404.527344 537.109375 402.996094 538.636719 401.464844 C 540.386719 401.027344 542.136719 400.371094 543.667969 399.714844 C 540.605469 401.902344 537.546875 404.089844 534.265625 405.835938 Z M 548.476562 396.4375 C 550.007812 395.125 551.539062 393.59375 553.070312 391.84375 C 554.820312 391.40625 556.566406 390.75 558.316406 390.09375 C 555.257812 392.5 551.976562 394.46875 548.476562 396.4375 Z M 563.347656 387.253906 C 565.09375 385.722656 566.84375 384.191406 568.375 382.660156 C 570.34375 382.222656 572.3125 381.566406 574.277344 381.128906 C 570.78125 383.316406 567.0625 385.503906 563.347656 387.253906 Z M 591.332031 373.039062 C 587.398438 375.007812 583.242188 376.976562 579.089844 378.507812 L 581.277344 376.976562 C 582.585938 376.101562 583.679688 375.007812 584.773438 374.132812 C 587.179688 373.695312 589.367188 373.476562 591.332031 373.039062 Z M 602.046875 369.761719 C 600.296875 370.195312 598.769531 370.632812 596.800781 371.070312 C 598.988281 369.976562 601.171875 368.667969 603.359375 367.355469 C 605.765625 367.355469 608.171875 367.355469 610.574219 367.355469 C 607.734375 368.230469 604.890625 369.105469 602.046875 369.761719 Z M 616.261719 366.480469 L 619.976562 365.386719 L 623.476562 364.292969 C 625.882812 364.949219 628.285156 365.386719 630.691406 366.042969 C 626.101562 366.261719 621.289062 366.480469 616.261719 366.480469 Z M 637.03125 366.261719 L 640.09375 366.042969 L 644.902344 365.824219 C 653.433594 365.167969 662.398438 364.511719 671.796875 364.292969 C 683.167969 363.855469 694.757812 364.292969 706.128906 365.605469 C 714.65625 366.699219 722.746094 368.230469 730.617188 369.761719 C 731.492188 371.507812 732.367188 373.257812 733.242188 375.007812 C 701.097656 375.445312 668.738281 372.601562 637.03125 366.261719 Z M 882.144531 394.46875 C 862.683594 418.738281 827.699219 439.074219 793.152344 429.890625 C 766.039062 422.675781 747.890625 400.589844 734.769531 375.882812 L 736.082031 375.882812 C 749.203125 398.839844 766.914062 419.613281 792.714844 426.171875 C 807.363281 429.890625 822.886719 428.359375 839.070312 421.363281 C 853.9375 414.582031 867.277344 404.964844 878.207031 392.9375 C 886.515625 383.972656 893.953125 374.570312 900.730469 364.511719 C 895.699219 375.226562 889.578125 385.285156 882.144531 394.46875 Z M 882.144531 394.46875 " fill-opacity="1" fill-rule="nonzero"/></g></svg>