<?xml version="1.0" encoding="UTF-8"?>
<svg id="Capa_2" data-name="Capa 2" xmlns="http://www.w3.org/2000/svg" viewBox="0 0 2001.06 1810.86">
  <defs>
    <style>
      .cls-1 {
        fill: none;
        stroke: #9600ff;
        stroke-miterlimit: 10;
        stroke-width: .71px;
      }
    </style>
  </defs>
  <g id="Capa_1-2" data-name="Capa 1">
    <g>
      <polygon class="cls-1" points="2000.53 905.43 1000.53 1810.38 .53 905.43 1000.53 .48 2000.53 905.43"/>
      <polygon class="cls-1" points="1969.8 911.41 992.88 1794.86 16.63 910.79 993.55 27.34 1969.8 911.41"/>
      <polygon class="cls-1" points="1939.07 917.39 985.22 1779.35 32.72 916.16 986.58 54.2 1939.07 917.39"/>
      <polygon class="cls-1" points="1908.34 923.37 977.56 1763.83 48.82 921.53 979.6 81.06 1908.34 923.37"/>
      <polygon class="cls-1" points="1877.61 929.35 969.91 1748.32 64.91 926.89 972.62 107.92 1877.61 929.35"/>
      <polygon class="cls-1" points="1846.88 935.33 962.25 1732.8 81.01 932.26 965.64 134.78 1846.88 935.33"/>
      <polygon class="cls-1" points="1816.15 941.31 954.59 1717.29 97.1 937.62 958.66 161.64 1816.15 941.31"/>
      <polygon class="cls-1" points="1785.42 947.28 946.94 1701.77 113.2 942.99 951.69 188.5 1785.42 947.28"/>
      <polygon class="cls-1" points="1754.69 953.26 939.28 1686.26 129.3 948.35 944.71 215.36 1754.69 953.26"/>
      <polygon class="cls-1" points="1723.96 959.24 931.63 1670.74 145.39 953.72 937.73 242.22 1723.96 959.24"/>
      <polygon class="cls-1" points="1693.23 965.22 923.97 1655.23 161.49 959.08 930.75 269.08 1693.23 965.22"/>
      <polygon class="cls-1" points="1662.51 971.2 916.31 1639.71 177.58 964.45 923.77 295.94 1662.51 971.2"/>
      <polygon class="cls-1" points="1631.78 977.18 908.66 1624.2 193.68 969.82 916.8 322.8 1631.78 977.18"/>
      <polygon class="cls-1" points="1601.05 983.16 901 1608.69 209.77 975.18 909.82 349.66 1601.05 983.16"/>
      <polygon class="cls-1" points="1570.32 989.14 893.34 1593.17 225.87 980.55 902.84 376.52 1570.32 989.14"/>
      <polygon class="cls-1" points="1539.59 995.12 885.69 1577.66 241.96 985.91 895.86 403.38 1539.59 995.12"/>
      <polygon class="cls-1" points="1508.86 1001.1 878.03 1562.14 258.06 991.28 888.89 430.24 1508.86 1001.1"/>
      <polygon class="cls-1" points="1478.13 1007.08 870.38 1546.63 274.16 996.64 881.91 457.1 1478.13 1007.08"/>
      <polygon class="cls-1" points="1447.4 1013.06 862.72 1531.11 290.25 1002.01 874.93 483.96 1447.4 1013.06"/>
      <polygon class="cls-1" points="1416.67 1019.04 855.06 1515.6 306.35 1007.37 867.95 510.82 1416.67 1019.04"/>
      <polygon class="cls-1" points="1385.94 1025.02 847.41 1500.08 322.44 1012.74 860.97 537.67 1385.94 1025.02"/>
      <polygon class="cls-1" points="1355.21 1031 839.75 1484.57 338.54 1018.11 854 564.53 1355.21 1031"/>
      <polygon class="cls-1" points="1324.48 1036.98 832.09 1469.05 354.63 1023.47 847.02 591.39 1324.48 1036.98"/>
      <polygon class="cls-1" points="1293.75 1042.96 824.44 1453.54 370.73 1028.84 840.04 618.25 1293.75 1042.96"/>
      <polygon class="cls-1" points="1263.02 1048.94 816.78 1438.02 386.82 1034.2 833.06 645.11 1263.02 1048.94"/>
      <polygon class="cls-1" points="1232.29 1054.91 809.13 1422.51 402.92 1039.57 826.08 671.97 1232.29 1054.91"/>
      <polygon class="cls-1" points="1201.56 1060.89 801.47 1406.99 419.02 1044.93 819.11 698.83 1201.56 1060.89"/>
      <polygon class="cls-1" points="1170.83 1066.87 793.81 1391.48 435.11 1050.3 812.13 725.69 1170.83 1066.87"/>
      <polygon class="cls-1" points="1140.1 1072.85 786.16 1375.96 451.21 1055.66 805.15 752.55 1140.1 1072.85"/>
      <polygon class="cls-1" points="1109.37 1078.83 778.5 1360.45 467.3 1061.03 798.17 779.41 1109.37 1078.83"/>
      <polygon class="cls-1" points="1078.64 1084.81 770.84 1344.94 483.4 1066.4 791.19 806.27 1078.64 1084.81"/>
      <polygon class="cls-1" points="1047.91 1090.79 763.19 1329.42 499.49 1071.76 784.22 833.13 1047.91 1090.79"/>
      <polygon class="cls-1" points="1017.18 1096.77 755.53 1313.91 515.59 1077.13 777.24 859.99 1017.18 1096.77"/>
      <polygon class="cls-1" points="986.45 1102.75 747.88 1298.39 531.68 1082.49 770.26 886.85 986.45 1102.75"/>
      <polygon class="cls-1" points="955.72 1108.73 740.22 1282.88 547.78 1087.86 763.28 913.71 955.72 1108.73"/>
      <polygon class="cls-1" points="924.99 1114.71 732.56 1267.36 563.88 1093.22 756.31 940.57 924.99 1114.71"/>
      <polygon class="cls-1" points="894.26 1120.69 724.91 1251.85 579.97 1098.59 749.33 967.43 894.26 1120.69"/>
      <polygon class="cls-1" points="863.53 1126.67 717.25 1236.33 596.07 1103.95 742.35 994.29 863.53 1126.67"/>
      <polygon class="cls-1" points="832.8 1132.65 709.59 1220.82 612.16 1109.32 735.37 1021.15 832.8 1132.65"/>
      <polygon class="cls-1" points="802.07 1138.63 701.94 1205.3 628.26 1114.69 728.39 1048.01 802.07 1138.63"/>
      <polygon class="cls-1" points="771.34 1144.61 694.28 1189.79 644.35 1120.05 721.42 1074.87 771.34 1144.61"/>
      <polygon class="cls-1" points="740.61 1150.59 686.63 1174.27 660.45 1125.42 714.44 1101.73 740.61 1150.59"/>
    </g>
  </g>
</svg>