<?xml version="1.0" encoding="UTF-8"?>
<svg id="Capa_2" data-name="Capa 2" xmlns="http://www.w3.org/2000/svg" viewBox="0 0 1500.45 1133.15">
  <defs>
    <style>
      .cls-1 {
        fill: #9600ff;
      }
    </style>
  </defs>
  <g id="Capa_1-2" data-name="Capa 1">
    <g>
      <path class="cls-1" d="m476.29,1080.93c-30.77-21.47-54.23-50.33-69.9-84.34-13.88-30.12-21.78-62.43-30.45-94.31-8.1-29.79-17.01-59.92-33.19-86.47-17.46-28.65-43.16-50.33-73.67-64.1-38.93-17.57-80.52-18.48-122.4-15.99-35.95,2.13-76.01,6.15-105.9-18.19-27.31-22.25-38.38-58.24-40.06-92.3-1.92-39.04,7.21-78.63,23.14-114.15,17.36-38.72,43.7-73.92,78.79-98.22,31.28-21.66,67.44-32.65,103.08-44.73,32.16-10.91,63.67-24.3,88.09-48.66,28.58-28.51,44.95-66.24,46.5-106.48,1.36-35.26-7.93-71.51.5-106.32,8.99-37.14,39.49-63.59,72.53-79.98C447.15,9.9,485.26,1.95,522.83.64c37.66-1.32,76.44,3.97,111.2,18.99,19.02,8.22,36.69,19.62,51.52,34.14,12.35,12.09,22.18,26.28,33.53,39.25,26.45,30.22,64.47,44.9,104.43,42.71,81.66-4.47,146.48-62.84,218.03-95.63,50.6-23.19,107.74-29.43,162.3-19.19,71.23,13.37,143.16,49.32,191.64,103.96,21.57,24.32,38.96,54.03,42.4,86.87,3.55,33.89-9.65,65.08-24.75,94.58-14.03,27.41-29.7,54.98-33.61,86.05-4.64,36.87,9,70.62,32.19,98.75,25.78,31.27,57.18,57.39,73.59,95.38,14.24,32.99,17.9,69.98,12.08,105.33-12.72,77.27-70.15,142.71-146.85,161.42-24.13,5.88-49.72,6.81-73.86.44-24.04-6.35-45.2-19.93-68.74-27.54-36.58-11.82-75.8-.66-109.09,15.73-31.13,15.33-62.53,34.68-86.72,59.68-24.11,24.92-38.82,55.53-54.81,85.84-17.21,32.62-38.88,61.15-69.03,82.86-28.41,20.46-61.01,34.78-94.48,44.7-72.02,21.34-151.55,24.23-224.58,6.17-32.92-8.14-64.86-20.98-92.93-40.19-.23-.16-.45.22-.22.37,59.4,40.67,135.2,53.77,206.02,51.62,71.12-2.16,146.24-19.62,205.01-61.32,28.51-20.23,50.15-46.53,66.86-77.07,17.36-31.73,31.81-64.58,57.03-91.18s58.54-47.1,91.45-62.75c19.04-9.06,39.38-16.11,60.45-18.29,25.06-2.6,46.72,4.03,69.32,14.24,20.95,9.47,41.68,18.88,64.84,21.23,23.26,2.36,46.9-1.15,68.98-8.59,36.05-12.15,68-34.75,91.38-64.75,41.89-53.73,55.63-129.19,30.35-193.12-14.61-36.94-42.84-62.99-68.59-92.16-14.68-16.63-28.03-34.7-34.61-56.16-5.61-18.31-7.02-37.56-3.74-56.44,11.02-63.5,67.56-113.15,56.63-181.29-10.58-65.99-70.5-115.72-125.85-145.94-61.22-33.42-136.52-54.07-206.12-39.46-19.97,4.19-39.64,9.16-58.42,17.27-30.28,13.09-58.83,30.41-87.34,46.87-42.91,24.76-87.85,49.36-138.58,51.38-24.32.97-48.42-4.15-69.72-16.09-16.54-9.27-29.15-22.63-40.88-37.27-11.69-14.6-23.42-28.91-38.28-40.46s-31.48-20.31-49.04-26.71c-34.4-12.54-71.87-16.51-108.28-14.29-35.91,2.19-72.12,10.47-104.25,26.94-30.19,15.48-58.34,39.61-68.63,72.98-10.47,33.92-1.85,70-2.01,104.67-.2,44.99-17.49,87.3-50.79,118.06-27.74,25.63-63.36,37.77-98.52,49.42-34.91,11.57-69.43,24.4-98.62,47.44C31.57,467.9-4.76,552.03.51,628.92c2.14,31.17,12.25,63.37,35.67,85.16,25.98,24.17,61.1,24.81,94.55,23.01,43.62-2.35,86.99-5.07,128.64,11.03,35.76,13.83,65.81,38.12,85.07,71.39,33.12,57.19,35.76,126.3,65.34,185.14,15.51,30.85,37.96,56.9,66.29,76.66.23.16.44-.21.22-.37Z"/>
      <path class="cls-1" d="m378.12,75.46c48.22-49.34,128.1-62.74,194.05-54.59,36.81,4.55,73.6,16.66,102.54,40.52,25.34,20.9,40.32,52.08,68.59,69.65,35.17,21.86,77.38,21.71,116.12,10.49,41.5-12.02,77.76-35.61,115.03-56.69,27.79-15.72,55.94-31.8,86.93-40.3s63.23-12.67,95.87-9.48c73.61,7.21,148.81,41.38,201.04,94.04,27.98,28.21,50.98,65.05,50.5,106.01-.37,31.65-14.95,60.06-29.16,87.52-13.28,25.67-26.64,52.25-28.2,81.65-1.9,35.61,13.7,66.17,36.5,92.46,25.15,29.01,53.49,54.42,67.96,90.9,12.31,31.05,15.05,65.5,9.34,98.32-12.61,72.45-66,133.74-137.59,152.75-22.71,6.03-46.88,7.58-69.92,2.43s-42.83-16.92-64.3-25.26c-34.7-13.48-71.98-5.35-104.77,9.69-28.97,13.29-58.54,31.06-81.97,52.66-24.71,22.79-40.61,51.22-55.81,80.77-15.6,30.32-33.31,58.47-59.91,80.43-25.28,20.87-55.13,35.84-85.97,46.58-66.89,23.28-141.39,28.6-211.02,15.85-67.29-12.32-132.61-44.02-168.1-104.96-31.02-53.27-35.04-116.28-60.13-171.86-12.02-26.64-29.68-50.09-53.74-66.98-32.23-22.62-70.82-32.23-109.82-32.65-34.86-.38-71.58,7.72-105.94-.61s-55.42-35.51-64.79-67.38c-9.91-33.7-7.37-70.49,1.19-104.18,9.49-37.34,27.15-73.13,52.21-102.49,25.78-30.21,59.08-50.14,95.98-63.84,30.34-11.26,62.24-19.07,90.77-34.75,31.29-17.19,56.43-44.7,69.83-77.93,13.55-33.59,10.38-68.47,8.28-103.71-.93-15.67-1.26-31.58,2.08-47.02,3.98-18.44,13.39-34.45,26.3-48.07.19-.2-.11-.51-.3-.3-11.71,12.35-20.74,26.74-25.2,43.26-4.12,15.26-4.34,31.18-3.59,46.86,1.82,37.77,6.34,74.91-8.83,110.87s-44.64,64.8-80.45,81.57c-30.73,14.39-64.11,21.95-95.29,35.26-35.14,15-65.41,37.61-88.49,68.22s-38.12,64.95-45.94,101.41c-12.01,56.01-5.96,138.38,58.18,160.31,32.28,11.04,68.39,3.83,101.63,3.02,42.9-1.04,85.45,7.17,121.25,31.99,54.9,38.08,67.35,103.56,84.47,163.69,8.51,29.91,18.96,59.58,36.27,85.64,18.41,27.72,43.92,49.56,73.2,65.16,60.57,32.28,133.14,40.61,200.75,34.76,64.85-5.61,132.98-24.74,184.25-66.42,26.33-21.4,44.27-48.73,59.69-78.57,16.27-31.48,32.82-61.84,59.63-85.79,13.93-12.44,29.56-22.4,45.46-32.07,13.98-8.5,28.39-16.31,43.56-22.5,18.25-7.44,37.8-12.56,57.61-12.58,23.95-.02,44.27,9.87,65.67,19.44,19.76,8.83,39.82,15.43,61.64,15.95,22.1.53,44.2-4.1,64.71-12.19,32.24-12.72,60.44-34.2,81.23-61.92,38.62-51.48,50.94-122.61,27.08-183.01-13.63-34.51-39.57-59.21-63.85-86.31-14.23-15.88-27.68-33.11-34.52-53.58-5.62-16.84-7.56-34.72-5.24-52.34,8.06-60.99,62.24-107.97,56.01-172.12-3.67-37.8-26.21-71.03-52.73-97-26.24-25.69-57.7-45.99-90.96-61.37s-68.62-26-104.91-29.91c-32.63-3.53-64.07.09-95.7,8.35-74.11,19.37-131.67,76.57-205.11,97.83-43.55,12.61-92.47,10.81-128.45-19.69-12.34-10.46-21.72-23.66-31.97-36.04-11.95-14.43-25.53-27.02-41.52-36.88-57.97-35.73-136.24-37.78-200.13-18.61-29.39,8.82-57.8,23.12-79.42,45.25-.19.2.11.5.3.3Z"/>
      <path class="cls-1" d="m388.69,91.62c46.41-47.46,123.28-60.33,186.74-52.47,35.42,4.39,70.7,16.05,98.56,38.97,24.37,20.05,38.73,50.03,65.88,66.91,33.43,20.78,73.52,20.9,110.44,10.44,40.29-11.42,75.45-34.26,111.57-54.67,26.7-15.08,53.73-30.51,83.49-38.65,30.4-8.32,61.01-12.16,92.49-9.02,70.77,7.06,143.09,40.02,193.19,90.8,26.84,27.2,48.76,62.72,48.04,102.11-.55,30.35-14.69,57.59-28.29,83.94-12.74,24.67-25.44,50.27-26.73,78.54-1.58,34.72,14.12,64.11,36.45,89.56,24.26,27.65,51.07,52.22,64.52,87.35,11.48,29.99,13.82,63.06,8.04,94.56-12.72,69.31-64.29,127.64-133.02,145.41-21.85,5.65-45.06,6.96-67.15,1.81-21.72-5.07-41.07-16.53-61.78-24.4-33.22-12.63-69.13-4.32-100.32,10.12-27.84,12.88-56.22,29.98-78.67,50.88-23.37,21.75-38.45,48.81-52.9,76.87s-32.01,56.14-57.57,77.22-53.48,34.68-83.4,45c-64.3,22.19-135.88,27.2-202.73,14.78-64.63-12.01-127.11-42.65-161-101.3-29.47-50.99-33.41-111.18-57.41-164.3-11.56-25.59-28.53-48.09-51.63-64.32-31.25-21.94-68.71-31.09-106.51-31.39-33.39-.27-68.69,7.46-101.56-.84-31.89-8.04-52.89-34.71-61.71-65.33-9.26-32.17-6.84-67.21,1.31-99.33,9.11-35.88,26.04-70.24,50.08-98.48,24.72-29.03,56.7-48.2,92.11-61.39,29.12-10.84,59.74-18.38,87.13-33.46,30.05-16.54,54.18-42.99,67.05-74.91,13.01-32.28,9.98-65.8,7.98-99.66-.89-15.06-1.19-30.34,2.02-45.17,3.83-17.72,12.88-33.09,25.29-46.18.19-.2-.11-.51-.3-.3-11.26,11.87-19.94,25.7-24.23,41.57-3.97,14.66-4.19,29.96-3.47,45.03,1.69,35.56,6,70.59-7.69,104.6-14.56,36.17-43.09,63.93-78.05,80.34-29.5,13.85-61.54,21.14-91.46,33.95-33.73,14.44-62.79,36.19-84.92,65.59-21.38,28.4-36.3,61.84-43.86,96.54-11.77,54.01-6.19,133.75,55.77,154.98,31.01,10.62,65.7,3.71,97.65,2.97,41.22-.96,82.08,6.9,116.48,30.75,52.48,36.39,64.62,98.89,80.96,156.4,8.16,28.71,18.11,57.21,34.63,82.29,17.73,26.93,42.41,48.14,70.78,63.25,57.92,30.85,127.25,38.88,191.92,33.45,62.36-5.25,127.85-23.51,177.3-63.37,25.59-20.63,43.01-47.03,57.97-75.92,15.47-29.9,31.18-58.82,56.54-81.68,13.43-12.11,28.52-21.78,43.91-31.16,13.33-8.12,27.06-15.64,41.51-21.58,17.5-7.19,36.19-12.25,55.2-12.42,22.99-.21,42.43,8.94,62.97,18.16,18.98,8.51,38.2,15.08,59.17,15.75,20.84.66,41.72-3.47,61.16-10.86,31.3-11.9,58.81-32.37,79.15-58.97,37.75-49.36,50.11-118.01,27.4-176.44-12.9-33.19-37.58-57-60.92-82.95-13.48-14.98-26.35-31.17-33.2-50.36-5.67-15.91-7.82-33.03-5.97-49.83,6.55-59.39,59.62-104.74,54.06-166.78-3.26-36.39-24.82-68.48-50.27-93.51-25.05-24.65-55.11-44.17-86.89-58.97-31.94-14.88-66.25-25.29-101.32-29.16-31.48-3.48-61.83-.02-92.35,7.94-71.53,18.66-127.05,74-198.09,94.13-41.54,11.77-88.04,9.74-122.27-19.27-11.85-10.05-20.86-22.73-30.71-34.62-11.48-13.86-24.53-25.96-39.89-35.43-55.76-34.38-131.04-36.36-192.51-17.94-28.29,8.48-55.63,22.23-76.45,43.53-.19.2.11.5.3.3Z"/>
      <path class="cls-1" d="m399.26,107.78c44.32-45.32,117.57-57.72,178.22-50.49,33.73,4.02,67.49,14.85,94.28,36.33,23.46,18.81,37.19,47.29,62.45,63.96,31.65,20.89,70.39,21.77,106.05,12.09,38.68-10.51,72.36-32.16,106.9-51.7,25.92-14.66,52.18-29.87,81.07-37.9s57.52-11.83,87.17-9.18c68.26,6.11,138.1,37.61,186.71,86.14,25.98,25.93,47.46,59.86,47.31,97.69-.12,29.35-13.6,55.73-26.73,81.19-12.16,23.59-24.4,48-25.88,74.99-1.83,33.28,12.92,61.68,34.27,86.17,23.2,26.62,49.13,50.12,62.19,83.79,11.14,28.72,13.53,60.42,8.11,90.67-11.91,66.46-61,122.5-126.69,140-20.91,5.57-43.16,6.98-64.38,2.27-20.87-4.63-39.45-15.54-59.23-23.21-31.97-12.39-66.3-4.9-96.5,8.95-26.69,12.23-53.93,28.59-75.52,48.48-22.77,20.98-37.44,47.14-51.47,74.34-14.27,27.68-30.44,53.41-54.66,73.54-23.41,19.45-51.12,33.37-79.76,43.33-61.6,21.43-130.22,26.33-194.33,14.6-61.8-11.3-121.83-40.32-154.61-96.16-28.86-49.17-32.54-107.46-55.86-158.8-11.19-24.64-27.64-46.28-50-61.8-29.89-20.75-65.54-29.4-101.57-29.71-32.04-.27-65.88,7.09-97.42-.87-30.58-7.72-50.75-33.32-59.2-62.69-8.97-31.15-6.56-65.07,1.43-96.15,8.77-34.08,24.88-66.75,47.73-93.6,23.69-27.84,54.3-46.26,88.24-58.94,27.91-10.43,57.25-17.69,83.49-32.17,28.8-15.89,51.93-41.27,64.26-71.89,12.47-30.96,9.58-63.13,7.68-95.61-.84-14.45-1.12-29.11,1.96-43.33,3.69-16.99,12.36-31.74,24.27-44.29.19-.2-.11-.51-.3-.3-10.8,11.39-19.13,24.65-23.26,39.88-3.81,14.06-4.04,28.74-3.36,43.2,1.6,34.11,5.72,67.72-7.41,100.35-13.84,34.4-40.89,60.98-74.08,76.76-28.46,13.53-59.45,20.57-88.36,32.99-32.32,13.88-60.16,34.76-81.36,62.97s-34.77,59.33-42,92.61c-11.21,51.63-5.97,127.6,52.85,148.44,29.6,10.48,62.89,3.97,93.45,3.19,39.87-1.01,79.44,6.44,112.72,29.55,50.52,35.07,62.03,95.35,77.85,150.69,7.9,27.65,17.62,55.07,33.72,79.12,17.1,25.54,40.76,45.6,67.85,59.9,55.68,29.39,122.17,36.95,184.21,31.61,59.73-5.14,122.49-22.79,169.73-61.14,24.47-19.87,41.05-45.29,55.39-72.99,14.88-28.75,30.13-56.41,54.63-78.26,12.84-11.45,27.23-20.62,41.88-29.52,12.88-7.83,26.15-15.02,40.13-20.71,16.79-6.84,34.82-11.6,53.05-11.59,22.06,0,40.75,9.06,60.47,17.86,18.21,8.12,36.68,14.16,56.78,14.64,19.99.48,39.99-3.65,58.58-10.85,29.87-11.57,56.07-31.29,75.41-56.83,35.99-47.52,47.62-113.39,25.56-169.36-12.54-31.81-36.42-54.58-58.77-79.56-12.88-14.39-25.12-29.98-31.48-48.46-5.29-15.36-7.25-31.77-5.32-47.92,6.84-56.93,57.74-100.63,51.45-160.4-3.67-34.89-24.7-65.45-49.31-89.33-24.22-23.51-53.2-42.08-83.8-56.14s-63.62-23.9-97.24-27.38c-30.17-3.12-59.35.42-88.53,8.22-68.52,18.33-121.75,71.62-190.27,90.23-39.77,10.8-84.17,8.06-116.35-20.17-11.19-9.82-19.75-22.04-29.26-33.39-11.23-13.41-24.13-24.94-39.18-33.93-53.7-32.07-125.6-33.63-184.26-15.68-26.7,8.17-52.46,21.28-72.14,41.4-.19.2.11.5.3.3Z"/>
      <path class="cls-1" d="m409.84,123.94c42.54-43.47,112.78-55.29,170.95-48.37,31.72,3.78,63.36,13.86,88.83,33.66,23.26,18.08,36.58,46.08,61.27,62.39,30.28,20,67.36,20.87,101.49,11.63,37.01-10.03,69.25-30.71,102.31-49.39,24.64-13.92,49.61-28.38,77.04-36.06,27.52-7.71,55.42-11.46,83.98-8.89,65.34,5.87,132.18,36.02,178.71,82.46,24.69,24.64,45.16,56.81,45.31,92.74.12,28.11-12.63,53.41-25.19,77.8-11.73,22.79-23.63,46.33-25.05,72.41-1.72,31.48,12.06,58.51,32.2,81.78,22.17,25.6,47.12,48.03,59.84,80.22,10.83,27.42,13.21,57.83,8.14,86.78-11.19,63.91-58.3,118-121.46,134.8-19.68,5.24-40.59,6.66-60.6,2.4-20-4.25-37.83-14.56-56.69-22-30.73-12.12-63.44-5.41-92.63,7.84-25.55,11.58-51.62,27.22-72.36,46.1-21.77,19.82-35.96,44.57-49.3,70.44s-29.15,51.68-52.48,71.21-48.79,32.06-76.14,41.65c-58.66,20.56-123.99,25.39-185.14,14.53-59.41-10.56-117.47-38.09-149.21-91.62-27.72-46.76-31.44-102.25-53.35-151.3-10.53-23.59-25.98-44.44-47.16-59.5-28.55-20.29-62.92-28.93-97.6-29.35-30.76-.38-63.17,6.67-93.48-.74-29.22-7.15-48.73-31.17-57.09-59.15-8.94-29.89-6.75-62.59.83-92.51,8.41-33.19,24.09-65.02,46.45-91.05,22.54-26.25,51.57-43.65,83.69-55.7,26.69-10.01,54.76-16.99,79.85-30.88,27.54-15.24,49.7-39.56,61.48-68.87,11.92-29.67,9.18-60.44,7.39-91.56-.8-13.84-1.06-27.87,1.91-41.49,3.54-16.27,11.85-30.39,23.25-42.4.19-.2-.11-.51-.3-.3-10.34,10.9-18.32,23.61-22.28,38.19-3.66,13.46-3.88,27.52-3.24,41.37,1.51,32.66,5.44,64.85-7.12,96.09-13.24,32.93-39.11,58.39-70.86,73.53-26.97,12.86-56.32,19.62-83.76,31.34-30.94,13.22-57.68,33.07-78.05,60-19.99,26.43-33.87,57.66-40.77,90.04-10.61,49.78-4.98,122.9,52.21,141.95,28.61,9.54,60.47,3.2,89.9,2.61,37.81-.75,75.34,6.74,106.75,28.8,48.09,33.77,58.92,91.53,74.12,144.41,7.61,26.45,17.01,52.67,32.53,75.62,16.48,24.35,39.22,43.43,65.19,57.01,53.66,28.06,117.67,35.14,177.32,29.73,57.05-5.17,117-22.26,161.9-59.25,23.09-19.02,38.68-43.29,52.28-69.58,14.27-27.57,29.06-54.02,52.68-74.84,12.25-10.8,25.96-19.48,39.88-27.91,12.41-7.52,25.22-14.44,38.7-19.84,16.15-6.46,33.41-10.92,50.9-10.77,21.12.18,39.06,9.14,57.96,17.51,17.45,7.72,35.17,13.28,54.39,13.56,19.15.28,38.24-3.79,56.01-10.79,28.45-11.22,53.35-30.21,71.71-54.66,34.12-45.43,45.06-108.21,24.06-161.56-11.99-30.46-34.84-52.27-56.24-76.19-12.53-14.01-24.39-29.2-30.42-47.24-4.84-14.46-6.62-29.84-4.81-45,6.55-54.74,55.55-96.75,49.04-154.28-3.77-33.36-24.09-62.53-47.73-85.29-23.3-22.43-51.09-40.15-80.44-53.54-29.38-13.4-60.93-22.72-93.11-25.95-28.59-2.87-56.24.54-83.89,7.91-65.56,17.49-116.53,68.44-182.09,86.2-38.06,10.31-80.55,7.66-111.33-19.36-10.71-9.4-18.9-21.1-28-31.96-10.75-12.84-23.09-23.88-37.5-32.48-51.49-30.76-120.41-32.25-176.67-15.08-25.62,7.82-50.34,20.39-69.22,39.69-.19.2.11.5.3.3Z"/>
      <path class="cls-1" d="m420.41,140.1c40.57-41.44,107.41-52.74,162.91-46.33,30.6,3.53,61.17,13.2,85.72,32.3,22.01,17.12,34.66,43.54,57.86,59.17,28.68,19.33,64.07,20.48,96.65,11.87,35.36-9.35,66.14-28.98,97.67-46.77,23.7-13.37,47.69-27.36,74.05-34.8,26.16-7.38,52.75-11.02,79.93-8.66,62.22,5.39,125.8,33.9,170.4,77.76,24.27,23.87,44.53,55.25,44.43,90.37-.07,26.57-12.13,50.51-23.99,73.59-11.18,21.76-22.54,44.27-23.87,69.17-1.61,30.08,11.53,55.89,30.78,78.12,21.17,24.46,45,45.89,57.14,76.66,10.34,26.21,12.6,55.27,7.75,82.93-10.65,60.73-55.23,112.19-115.12,128.56-19.08,5.22-39.4,6.7-58.84,2.58-18.76-3.98-35.52-13.54-53.18-20.6-29.79-11.92-61.2-5.72-89.59,7.18-24.62,11.18-49.75,26.26-69.65,44.56-20.64,18.98-34.06,42.65-46.79,67.27-13.19,25.5-28.02,49.26-50.38,67.8s-46.52,30.35-72.56,39.44c-56.52,19.71-119.5,24.22-178.34,13.41-56.63-10.4-111.5-37.09-141.39-88.35-26.1-44.77-29.59-97.74-50.84-144.41-10.25-22.52-25.31-42.28-45.75-56.46-27.34-18.97-59.96-26.89-92.91-27.21-29.3-.29-60.29,6.4-89.12-.94-27.84-7.09-46.26-30.31-54.09-57.05-8.39-28.64-6.21-59.93,1.14-88.53,8.15-31.73,23.23-62.15,44.73-86.97,21.59-24.91,49.32-41.34,79.92-52.8,25.48-9.54,52.26-16.28,76.14-29.68,26.03-14.6,46.87-37.73,58.06-65.5,11.42-28.33,8.78-57.79,7.09-87.51-.76-13.22-.99-26.64,1.85-39.65,3.39-15.54,11.34-29.03,22.23-40.52.19-.2-.11-.51-.3-.3-9.89,10.42-17.52,22.56-21.31,36.49-3.5,12.87-3.73,26.3-3.12,39.54,1.42,31.21,5.17,61.99-6.84,91.83-12.65,31.46-37.33,55.8-67.64,70.3-25.73,12.31-53.76,18.81-79.94,30.04-29.53,12.67-55.04,31.65-74.47,57.39-18.9,25.05-32.08,54.6-38.7,85.25-10.27,47.53-5.27,117.52,49.14,136.28,27.2,9.38,57.66,3.42,85.71,2.81,36.17-.78,72.06,6.15,102.24,27.09,45.96,31.88,56.67,86.59,71.08,136.96,7.23,25.25,16.05,50.31,30.68,72.32,15.57,23.42,37.15,41.86,61.91,55.01,51.03,27.09,112.09,34.05,169,29.14s112.42-20.94,155.67-56.26c22.14-18.08,37.17-41.15,50.2-66.26,13.63-26.25,27.61-51.52,50-71.48,11.77-10.49,24.98-18.89,38.42-27.03,11.96-7.25,24.29-13.93,37.28-19.14,15.59-6.25,32.3-10.56,49.2-10.3,20.32.3,37.57,9.11,55.77,17.11,16.67,7.33,33.66,12.43,51.99,12.53,18.29.1,36.5-3.9,53.43-10.71,27.05-10.88,50.66-29.08,68.06-52.47,32.27-43.37,42.57-103.05,22.61-153.82-11.44-29.11-33.26-49.96-53.7-72.82-11.77-13.16-22.95-27.42-28.77-44.31-4.84-14.04-6.64-29.03-4.89-43.79,6.19-52.02,52.61-92.02,46.8-146.62-3.45-32.43-23.26-60.73-46.28-82.74-22.35-21.36-48.97-38.22-77.06-50.96-28.09-12.73-58.24-21.54-88.98-24.53-27.2-2.65-53.56.68-79.85,7.74-62.7,16.84-111.44,65.69-174.34,82.29-36.35,9.6-76.79,6.69-105.91-19.29-10.16-9.06-17.95-20.27-26.68-30.62-10.38-12.31-22.34-22.83-36.25-31.01-49.16-28.91-114.64-30.26-168.17-13.94-24.54,7.48-48.22,19.5-66.31,37.98-.19.2.11.5.3.3Z"/>
      <path class="cls-1" d="m430.98,156.26c38.54-39.35,101.89-50.18,154.63-44.32,28.65,3.18,57.46,11.94,80.77,29.37,11.81,8.84,21.22,19.79,30.37,31.25,7.62,9.55,15.52,18.82,25.6,25.88,26.88,18.83,60.52,20.52,91.53,12.7,33.91-8.56,63.35-27.17,93.49-44.15,22.74-12.82,45.74-26.36,71-33.61,24.7-7.09,49.94-10.67,75.63-8.62,59.38,4.75,120.06,31.73,162.89,73.22,23.31,22.59,43,52.32,43.44,85.79.34,25.36-10.9,48.29-22.2,70.33-10.63,20.73-21.61,42.07-23.21,65.75-1.95,28.77,10.3,53.72,28.66,75.09,20.3,23.63,43.37,44.17,55.05,73.81,9.85,24.99,11.99,52.71,7.35,79.09-10.18,57.9-52.69,106.97-109.79,122.59-18.19,4.98-37.55,6.4-56.08,2.47s-33.86-12.88-50.69-19.6c-28.4-11.34-58.33-5.43-85.4,6.85-23.47,10.65-47.43,25.02-66.4,42.46-19.68,18.08-32.48,40.62-44.63,64.09-12.58,24.29-26.73,46.92-48.05,64.58-20.32,16.83-44.34,28.91-69.17,37.56-53.87,18.78-113.89,23.08-169.96,12.78-53.96-9.9-106.26-35.31-134.77-84.13-24.9-42.63-28.26-93.1-48.53-137.55-9.78-21.45-24.14-40.28-43.63-53.79-26.07-18.08-57.17-25.63-88.58-25.96-27.94-.29-57.49,6.05-84.98-.98-26.55-6.78-44.11-28.92-51.59-54.42-8.01-27.3-5.96-57.14,1.02-84.42,7.74-30.24,22.08-59.26,42.55-82.93,20.54-23.75,46.95-39.45,76.08-50.41,24.27-9.13,49.77-15.59,72.5-28.39,24.8-13.96,44.64-36.02,55.31-62.49,10.88-27.02,8.38-55.11,6.79-83.46-.71-12.61-.92-25.4,1.79-37.81,3.24-14.82,10.82-27.68,21.21-38.63.19-.2-.11-.51-.3-.3-9.43,9.94-16.71,21.52-20.34,34.8-3.35,12.27-3.57,25.08-3.01,37.7,1.33,29.76,4.89,59.11-6.55,87.58-12.05,29.98-35.55,53.21-64.43,67.08-24.5,11.77-51.19,18-76.12,28.73-28.12,12.11-52.41,30.23-70.9,54.78-17.99,23.9-30.53,52.08-36.81,81.3-9.76,45.36-4.93,112.06,46.94,129.99,25.93,8.96,54.98,3.31,81.73,2.76,34.48-.72,68.69,5.9,97.47,25.85,43.79,30.37,54.04,82.48,67.81,130.46,6.9,24.05,15.33,47.92,29.28,68.88,14.85,22.31,35.42,39.87,59.03,52.39,48.64,25.8,106.83,32.43,161.07,27.75s107.15-19.95,148.39-53.59c21.11-17.22,35.44-39.2,47.88-63.12,13.01-25.01,26.34-49.08,47.69-68.08,11.22-9.99,23.81-17.99,36.62-25.75,11.4-6.91,23.15-13.27,35.54-18.24,14.86-5.96,30.79-10.06,46.89-9.82,19.36.29,35.8,8.67,53.15,16.28,15.89,6.97,32.09,11.83,49.56,11.91,17.44.09,34.79-3.72,50.93-10.22,25.8-10.38,48.31-27.74,64.91-50.05,30.78-41.35,40.63-98.27,21.63-146.69-11.01-28.04-32.11-48.02-51.73-70.08-11.38-12.79-22.02-26.67-27.37-43.14-4.48-13.78-5.92-28.38-3.82-42.74,7.13-48.84,50.33-86.84,43.98-138.58-3.78-30.85-22.97-57.65-45.07-78.48-21.48-20.24-46.97-36.2-73.86-48.21-26.81-11.98-55.57-20.22-84.86-22.88-25.73-2.34-50.74.97-75.57,7.74-59.91,16.35-106.5,63.24-166.97,78.46-34.62,8.72-72.89,5.2-100.13-19.85-9.55-8.78-16.92-19.52-25.32-29.34-10.12-11.83-21.87-21.79-35.42-29.51-46.83-26.68-108.68-27.73-159.29-12.2-23.29,7.15-45.75,18.59-62.93,36.13-.19.2.11.5.3.3Z"/>
      <path class="cls-1" d="m441.55,172.43c36.76-37.5,97.17-47.79,147.45-42.18,27.28,3.04,54.71,11.38,76.89,27.98,11.23,8.4,20.18,18.82,28.88,29.72,7.25,9.08,14.76,17.9,24.34,24.62,25.55,17.91,57.52,19.54,87.01,12.13,32.23-8.1,60.22-25.76,88.88-41.88,21.63-12.16,43.48-25.02,67.49-31.89s47.48-10.11,71.91-8.14c56.45,4.54,114.14,30.2,154.87,69.64,22.17,21.47,40.9,49.72,41.35,81.55.34,24.1-10.32,45.9-21.03,66.85-10.08,19.72-20.5,40.01-22.01,62.51-1.83,27.36,9.81,51.08,27.26,71.41,19.29,22.46,41.26,42.01,52.31,70.21,9.33,23.81,11.38,50.13,6.95,75.24-9.71,55.07-50.15,101.75-104.46,116.62-17.29,4.73-35.69,6.09-53.31,2.37s-32.19-12.22-48.2-18.6c-27.01-10.77-55.46-5.15-81.2,6.53-22.32,10.13-45.1,23.78-63.16,40.35-18.71,17.18-30.9,38.6-42.48,60.9s-25.45,44.59-45.72,61.36c-19.33,15.99-42.17,27.47-65.77,35.69-51.21,17.84-108.28,21.93-161.59,12.16-51.29-9.41-101.01-33.53-128.15-79.92-23.69-40.5-26.93-88.46-46.22-130.69-9.32-20.39-22.98-38.28-41.5-51.12-24.8-17.19-54.38-24.38-84.25-24.71-26.58-.3-54.69,5.69-80.83-1.01-25.25-6.48-41.96-27.54-49.09-51.8-7.63-25.97-5.71-54.34.91-80.3,7.33-28.76,20.94-56.37,40.37-78.9s44.57-37.55,72.24-48.02c23.05-8.72,47.28-14.9,68.87-27.09,23.56-13.31,42.42-34.31,52.56-59.49,10.35-25.7,7.99-52.44,6.49-79.41-.67-12-.86-24.16,1.73-35.97,3.09-14.09,10.31-26.33,20.19-36.74.19-.2-.11-.51-.3-.3-8.98,9.46-15.9,20.47-19.36,33.11-3.19,11.67-3.42,23.86-2.89,35.87,1.25,28.32,4.61,56.24-6.27,83.32-11.45,28.51-33.77,50.62-61.21,63.85-23.27,11.22-48.62,17.18-72.29,27.42-26.71,11.56-49.79,28.81-67.32,52.17-17.08,22.75-28.97,49.56-34.92,77.35-9.25,43.19-4.58,106.6,44.74,123.7,24.67,8.55,52.3,3.21,77.74,2.71,32.79-.65,65.33,5.64,92.69,24.61,41.63,28.86,51.41,78.36,64.53,123.96,6.58,22.85,14.6,45.53,27.88,65.45,14.13,21.2,33.69,37.89,56.14,49.78,46.26,24.51,101.58,30.81,153.15,26.35,49.67-4.29,101.88-18.97,141.11-50.93,20.07-16.36,33.72-37.25,45.56-59.97,12.39-23.76,25.08-46.63,45.38-64.69,10.68-9.5,22.64-17.1,34.83-24.47,10.84-6.56,22.02-12.61,33.8-17.33,14.13-5.66,29.27-9.56,44.58-9.34,18.4.27,34.03,8.22,50.53,15.45,15.11,6.62,30.51,11.23,47.13,11.3,16.58.08,33.08-3.55,48.42-9.73,24.54-9.88,45.96-26.4,61.76-47.62,29.3-39.34,38.7-93.49,20.64-139.57-10.45-26.68-30.51-45.69-49.17-66.68-10.81-12.16-20.93-25.36-26.02-41.02-4.26-13.1-5.63-26.97-3.65-40.62,6.74-46.43,47.74-82.58,41.68-131.75-3.62-29.33-21.87-54.81-42.9-74.61-20.43-19.24-44.67-34.42-70.24-45.84-25.49-11.39-52.84-19.24-80.69-21.78-24.46-2.23-48.25.89-71.86,7.31-56.94,15.49-101.26,60-158.73,74.42-32.91,8.26-69.29,4.88-95.17-18.94-9.08-8.36-16.09-18.56-24.08-27.9-9.62-11.25-20.8-20.72-33.67-28.07-44.63-25.45-103.56-26.44-151.81-11.69-22.22,6.79-43.65,17.71-60.04,34.43-.19.2.11.5.3.3Z"/>
      <path class="cls-1" d="m452.13,188.59c34.77-35.45,91.77-45.25,139.34-40.15,25.74,2.76,51.48,10.45,72.65,25.74,10.89,7.87,19.6,17.75,27.93,28.19,6.99,8.75,14.12,17.36,23.3,23.92,23.76,16.98,53.69,18.98,81.4,12.36,30.74-7.34,57.37-23.99,84.62-39.27,20.79-11.66,41.77-24.12,64.84-30.76s44.42-9.59,67.25-7.9c53.6,3.96,108.38,28.12,147.27,65.24,21.18,20.21,39.28,46.84,40.19,77.01.7,23.09-9.34,44.01-19.57,64.08-9.53,18.7-19.45,37.89-21.03,59.2-1.91,25.84,8.89,48.45,25.32,67.73,18.24,21.4,39.23,39.9,49.85,66.62,8.89,22.34,10.97,47.09,7,70.74-8.8,52.44-46.96,97.2-98.52,111.67-16.36,4.59-33.8,6.03-50.54,2.67-16.14-3.24-30.58-11.33-45.71-17.44-25.73-10.39-52.55-5.48-77.21,5.6-21.17,9.51-42.78,22.42-59.96,38.01-17.88,16.23-29.59,36.5-40.6,57.68-11.37,21.87-24.05,42.34-43.22,58.31s-40.27,26.34-62.83,34.19c-48.36,16.84-102.2,20.74-152.56,11.65-48.63-8.78-95.95-31.45-121.88-75.3-22.65-38.31-25.8-83.76-43.99-123.84-8.77-19.33-21.61-36.34-39.09-48.6-23.61-16.56-51.91-23.49-80.45-23.83-25.04-.3-51.44,5.23-76.1-.9-24.24-6.02-40.33-26.08-47.17-49.32-7.26-24.63-5.46-51.54.79-76.18,6.85-27.01,19.54-52.95,37.64-74.22,18.53-21.77,42.46-36.21,68.95-46.28,21.64-8.22,44.37-14.1,64.68-25.49,22.59-12.66,40.67-32.7,50.36-56.8,9.81-24.39,7.59-49.76,6.19-75.36-.62-11.38-.79-22.93,1.68-34.13,2.95-13.37,9.79-24.97,19.17-34.85.19-.2-.11-.51-.3-.3-8.52,8.98-15.09,19.42-18.39,31.42-3.04,11.07-3.26,22.64-2.77,34.04,1.16,26.87,4.33,53.37-5.99,79.07-10.85,27.04-31.99,48.03-57.99,60.62-22.03,10.67-46.05,16.38-68.47,26.11-25.3,10.99-47.14,27.41-63.74,49.56-16.18,21.59-27.4,47.04-33.03,73.4-8.76,41.02-4.23,101.15,42.54,117.41,23.4,8.13,49.62,3.12,73.76,2.65,31.1-.6,61.97,5.39,87.92,23.37,39.65,27.47,48.85,74.65,61.42,118.03,6.27,21.66,13.97,43.14,26.65,61.96,13.5,20.03,32.13,35.75,53.45,46.93,43.97,23.08,96.45,28.95,145.37,24.61,47.05-4.18,96.51-18.17,133.59-48.58,18.98-15.57,31.83-35.46,43.07-57,11.78-22.58,23.97-44.23,43.37-61.28,10.1-8.88,21.39-16.01,32.87-22.93,10.35-6.25,21.04-11.99,32.29-16.44,13.45-5.31,27.83-8.91,42.37-8.58,17.44.4,32.31,8.17,47.97,14.96,14.35,6.22,28.98,10.38,44.73,10.33,15.72-.05,31.35-3.61,45.86-9.55,23.16-9.49,43.34-25.25,58.2-45.39,27.76-37.62,36.45-89.33,18.81-133.11-10.18-25.27-29.55-43.22-47.17-63.28-10.19-11.6-19.47-24.18-24.07-39.1-3.82-12.41-4.9-25.46-2.87-38.3,6.93-43.89,45.6-78.29,39.03-125.03-3.9-27.76-21.44-51.75-41.54-70.39-19.54-18.13-42.62-32.43-66.97-43.14-24.21-10.66-50.16-17.97-76.57-20.21-23.02-1.95-45.47,1.12-67.65,7.25-22.23,6.14-42.47,17.69-62.45,28.9-28.57,16.03-56.54,33.93-88.79,41.63-31.18,7.44-65.41,3.54-89.47-19.28-8.5-8.06-15.12-17.78-22.76-26.59-9.18-10.58-19.9-19.39-32.14-26.24-42.36-23.7-98.1-24.49-143.69-10.45-21,6.47-41.23,16.79-56.73,32.6-.19.2.11.5.3.3Z"/>
      <path class="cls-1" d="m462.7,204.75c32.99-33.61,87.09-42.87,132.21-38,24.37,2.63,48.75,9.92,68.79,24.4,10.13,7.32,18.29,16.49,26.04,26.21,6.59,8.26,13.27,16.44,21.87,22.71,22.49,16.39,51.06,18.4,77.46,12.13,28.81-6.85,53.84-22.33,79.37-36.66,19.7-11.06,39.67-22.86,61.5-29.21,20.63-6,41.84-9.12,63.33-7.6,50.7,3.59,102.52,26.36,139.43,61.32,20.13,19.06,37.41,44.17,38.49,72.72.82,21.79-8.5,41.58-18.13,60.53-9.04,17.8-18.53,36.04-20.07,56.31-1.86,24.51,8.37,45.96,23.95,64.24,17.24,20.24,37.07,37.75,47.1,63.03,8.39,21.14,10.35,44.56,6.58,66.93-8.31,49.34-44.05,91.45-92.44,105.42-15.44,4.45-31.91,5.94-47.76,2.92s-28.95-10.46-43.22-16.29c-24.43-9.97-49.64-5.74-73.2,4.73-20.01,8.89-40.47,21.08-56.77,35.7-17.03,15.28-28.24,34.41-38.7,54.48-10.68,20.49-22.45,39.78-40.32,54.87-17.28,14.6-37.84,25.08-59.08,32.6-45.63,16.14-96.5,20-144.14,11.65-46.06-8.07-91.16-29.21-116.01-70.53-21.79-36.24-24.8-79.42-42.02-117.48-8.22-18.17-20.21-34.22-36.56-45.83-22.22-15.78-48.96-22.5-75.94-22.94-23.92-.39-49.15,4.93-72.7-.95-22.72-5.67-37.9-24.38-44.48-46.14-6.95-23.01-5.46-48.19.18-71.31,6.29-25.76,18.2-50.56,35.29-70.91,17.41-20.74,39.96-34.61,65.02-44.24,20.43-7.86,41.91-13.42,61.14-24.14,21.19-11.81,38.22-30.36,47.59-52.83,9.7-23.26,7.78-47.48,6.43-72.01-.61-11.05-.8-22.28,1.65-33.14,2.83-12.52,9.29-23.39,18.09-32.66.19-.2-.11-.51-.3-.3-8.12,8.56-14.38,18.52-17.48,29.97-2.87,10.57-3.05,21.61-2.57,32.49,1.15,26.24,4.02,52.05-6.82,76.9-10.81,24.8-30.54,43.75-54.76,55.3-20.9,9.97-43.6,15.41-64.74,24.8-23.64,10.5-43.98,26.13-59.42,46.99s-25.68,44.61-30.88,69.56c-8.09,38.89-3.42,95.64,41.01,110.65,22.24,7.51,47.03,2.76,69.94,2.41,29.19-.45,58.16,5.3,82.51,22.18,37.63,26.09,46.24,70.94,58.25,112.08,6,20.56,13.42,40.93,25.61,58.71,12.95,18.88,30.76,33.61,51.03,44.06,41.77,21.53,91.42,26.88,137.7,22.58,44.23-4.11,90.67-17.43,125.45-46.14,17.9-14.78,29.96-33.64,40.6-54,11.18-21.39,22.86-41.8,41.33-57.86,9.52-8.28,20.14-14.94,30.92-21.42,9.86-5.93,20.04-11.36,30.77-15.55,12.74-4.97,26.38-8.3,40.14-7.86,16.47.53,30.59,8.06,45.41,14.43,13.58,5.84,27.45,9.58,42.32,9.4s29.08-3.52,42.55-9.04c21.92-8.98,41.01-23.9,55.07-42.95,26.28-35.59,34.53-84.51,17.87-125.95-9.62-23.91-27.91-40.89-44.58-59.87-9.63-10.97-18.41-22.87-22.76-36.98-3.64-11.82-4.63-24.21-2.69-36.43,6.56-41.41,42.92-73.84,36.72-117.95-3.72-26.46-20.58-49.3-39.79-66.98-18.55-17.08-40.42-30.56-63.49-40.64s-47.44-16.87-72.41-18.91c-21.67-1.77-42.86,1.16-63.73,6.99-20.83,5.82-39.86,16.65-58.62,27.12-27.03,15.09-53.44,31.98-83.93,39.23-29.47,7-61.82,3.28-84.56-18.29-8.03-7.62-14.29-16.82-21.53-25.15-8.69-10.01-18.82-18.33-30.39-24.81-40.15-22.49-93.02-23.25-136.24-9.98-19.93,6.12-39.14,15.91-53.86,30.91-.19.2.11.5.3.3Z"/>
      <path class="cls-1" d="m473.27,220.91c31.03-31.59,81.8-40.36,124.24-35.95,22.57,2.34,45.15,8.88,63.97,21.87,10.01,6.92,18.11,15.67,25.66,25.12,6.2,7.75,12.37,15.53,20.35,21.55,20.61,15.56,47.1,18.09,71.73,12.7,27.57-6.03,51.47-20.64,75.8-34.26,18.58-10.41,37.4-21.6,57.94-27.75,19.35-5.79,39.42-8.84,59.62-7.53,47.83,3.09,96.71,24.38,131.73,57.06,18.97,17.7,35.45,40.99,37.11,67.66,1.29,20.75-7.31,39.68-16.44,57.75-8.4,16.62-17.36,33.55-19.17,52.39-2.19,22.83,6.72,43.28,21.11,60.56,16.09,19.32,35.25,35.71,45.06,59.46,8.2,19.84,10.33,41.86,7.06,63.02-7.19,46.42-40.15,86.39-85.26,100.41-14.45,4.49-29.96,6.25-44.96,3.83-14.74-2.38-27.86-9.41-41.49-15.1-11.72-4.89-23.49-7.13-36.19-5.85-11.26,1.13-22.2,4.52-32.57,8.98-18.67,8.03-37.73,19.3-53.13,32.54-16.67,14.33-27.77,32.41-37.83,51.68-10.09,19.3-20.91,37.67-37.6,52.08-16.15,13.95-35.48,23.99-55.48,31.19-43.06,15.52-91.18,19.35-136.25,11.63-43.51-7.45-86.3-27.16-109.97-66.07-20.71-34.05-23.63-74.71-39.76-110.6-7.69-17.11-18.89-32.28-34.22-43.28-20.63-14.81-45.55-21.35-70.7-21.95-22.69-.55-46.47,4.46-68.84-.77-21.53-5.03-36.2-22.25-42.68-42.76-6.88-21.75-5.61-45.69-.37-67.65,5.74-24.03,16.65-47.16,32.33-66.32,16.33-19.95,37.63-33.42,61.45-42.71,19.34-7.55,39.71-12.84,57.95-22.98,20.27-11.27,36.54-29.11,45.33-50.67,8.86-21.75,7.06-44.38,5.83-67.25-.56-10.42-.73-21.01,1.6-31.25,2.68-11.8,8.78-22.05,17.07-30.79.19-.2-.11-.51-.3-.3-7.66,8.07-13.57,17.47-16.5,28.26-2.71,9.97-2.9,20.38-2.46,30.64,1.06,24.75,3.74,49.09-6.46,72.52-10.23,23.5-28.92,41.41-51.85,52.35-19.64,9.37-40.95,14.54-60.79,23.43-22.58,10.12-41.9,25.24-56.45,45.33s-23.81,42.25-28.49,65.8c-7.29,36.66-2.29,89.56,39.53,103.32,21.06,6.93,44.44,2.45,66.1,2.19,27.66-.33,55.16,5.36,78.05,21.6,35.06,24.88,42.91,67.25,54.32,105.88,5.67,19.18,12.72,38.16,24.19,54.7,12.31,17.74,29.18,31.53,48.35,41.3,39.63,20.21,86.65,25.11,130.46,20.84,41.72-4.06,85.6-16.85,118.15-44.31,16.73-14.11,27.83-32.1,37.86-51.28,10.62-20.31,22.06-39.45,39.83-54.41,8.88-7.48,18.74-13.56,28.69-19.49,9.48-5.64,19.29-10.77,29.63-14.64,12.11-4.53,25.07-7.42,38.06-6.63,14.99.91,27.99,8.05,41.55,13.8s26.37,8.87,40.62,8.46c13.76-.39,27.37-3.73,40.01-9.1,20.62-8.76,38.47-23.11,51.53-41.3,24.34-33.9,31.56-80.09,15.28-118.96-9.32-22.25-26.75-38.09-42.26-55.96-9.02-10.4-16.99-21.68-20.89-35.03-3.24-11.1-3.99-22.73-2.02-34.13,6.72-38.9,40.63-69.6,34.09-111.26-3.94-25.05-20.3-46.56-38.71-63.16s-38.44-28.5-60.3-37.85-44.37-15.41-67.67-17.16c-20.25-1.52-40.14,1.32-59.61,6.85s-38.43,16.31-56.53,26.42c-25.42,14.2-50.35,29.86-79.17,36.16-27.55,6.03-57.42,1.75-78.24-18.57-7.48-7.3-13.36-16-20.26-23.81-8.23-9.33-17.88-17.05-28.8-23.04-37.95-20.79-87.56-21.43-128.22-8.87-18.73,5.78-36.78,15.01-50.62,29.1-.19.2.11.5.3.3Z"/>
      <path class="cls-1" d="m483.85,237.07c29.1-29.6,76.58-37.86,116.39-33.89,21.07,2.11,42.15,8.05,59.86,19.94,9.7,6.51,17.56,14.82,24.83,23.89,5.89,7.36,11.71,14.78,19.27,20.54,19.55,14.9,44.81,17.22,68.2,11.99,25.8-5.76,48.2-19.46,71-32.19,17.53-9.78,35.29-20.26,54.7-25.9,18.31-5.32,37.17-8.05,56.24-6.67,44.85,3.24,90.66,23.39,123.34,54.29,17.68,16.73,32.92,38.71,34.11,63.75.93,19.43-7.31,37.1-15.84,54.02-7.88,15.61-16.12,31.58-17.57,49.31-1.76,21.6,7.09,40.65,20.76,56.85,15.2,18.02,32.85,33.48,41.83,55.84,7.51,18.69,9.3,39.46,6.02,59.28-7.22,43.66-38.62,81.06-81.34,93.72-13.42,3.98-27.67,5.39-41.52,3.08-13.81-2.3-26.14-9.03-38.94-14.3-21.53-8.86-43.48-5.61-64.39,3.47-17.53,7.61-35.43,18.21-49.85,30.73-15.54,13.48-25.86,30.47-35.3,48.49-9.49,18.1-19.76,35.26-35.48,48.71-15.1,12.92-33.1,22.23-51.72,28.93-40.42,14.56-85.58,18.14-127.89,10.92-40.64-6.94-80.69-25.28-102.97-61.49-19.61-31.86-22.45-70-37.5-103.72-7.17-16.06-17.6-30.33-31.91-40.73-19.56-14.2-43.32-20.42-67.25-20.96-21.27-.49-43.59,4.14-64.54-.88-20.28-4.86-33.98-21.27-39.99-40.63-6.36-20.49-5.12-43-.14-63.64,5.45-22.58,15.75-44.34,30.56-62.29s35.01-30.96,57.1-39.64c18.29-7.19,37.57-12.23,54.78-21.96,18.8-10.63,33.88-27.33,42.05-47.4,8.32-20.44,6.64-41.71,5.52-63.2-.51-9.8-.66-19.74,1.54-29.36,2.53-11.09,8.26-20.71,16.06-28.91.19-.2-.11-.51-.3-.3-7.2,7.58-12.75,16.41-15.53,26.55-2.56,9.37-2.75,19.15-2.35,28.79.94,22.79,3.42,45.23-5.6,66.92-9.34,22.44-26.96,39.71-48.65,50.23-18.53,8.98-38.7,13.9-57.45,22.36-20.97,9.46-38.95,23.52-52.53,42.17-13.28,18.25-22.44,39.63-26.89,61.74-6.94,34.5-2.42,84.36,36.82,97.6,19.9,6.71,42.08,2.46,62.58,2.26,26.09-.26,52.05,5.19,73.56,20.63,32.57,23.38,39.94,62.93,50.64,98.98,5.39,18.16,12.1,36.11,23.06,51.72,11.54,16.44,27.28,29.21,45.11,38.3,37.03,18.86,80.95,23.49,121.89,19.59,39.36-3.75,80.79-15.74,111.52-41.62,15.57-13.12,25.99-29.81,35.35-47.64,9.97-19,20.6-36.96,37.16-51.04,8.37-7.11,17.67-12.87,27.08-18.49,8.84-5.27,17.99-10.08,27.63-13.74,11.33-4.3,23.46-7.09,35.64-6.48,14.3.72,26.66,7.46,39.58,12.93,12.04,5.1,24.33,8.22,37.47,7.95,13.15-.28,26.17-3.43,38.25-8.56,19.21-8.16,35.89-21.5,48.14-38.39,22.92-31.6,29.98-74.74,15.16-111.26-8.51-20.96-24.56-35.9-39.19-52.58-8.51-9.71-16.27-20.24-20.13-32.72-3.22-10.44-4.11-21.39-2.42-32.2,5.72-36.62,37.7-65.34,32.16-104.33-3.33-23.39-18.3-43.58-35.29-59.2-16.43-15.11-35.78-27.03-56.19-35.96-20.09-8.79-41.59-14.84-63.48-16.73-19.3-1.67-38.17.84-56.79,5.97-19,5.24-36.34,15.15-53.45,24.67-23.83,13.26-47.19,27.93-74.14,33.95s-54.94,1.76-74.68-17.94c-7.05-7.04-12.63-15.36-19.29-22.75-7.86-8.72-17.12-15.88-27.5-21.37-35.7-18.91-81.84-19.41-119.83-7.62-17.55,5.45-34.45,14.1-47.43,27.31-.19.2.11.5.3.3Z"/>
      <path class="cls-1" d="m494.42,253.23c27.34-27.78,71.96-35.46,109.33-31.69,19.72,1.99,39.56,7.52,56.11,18.69,9.06,6.11,16.4,13.87,23.19,22.35,5.52,6.88,10.97,13.81,18.03,19.19,18.06,13.78,41.41,16.1,63.09,11.43,24.36-5.25,45.5-18.13,67-30.09,16.39-9.11,32.99-18.87,51.12-24.11,17.12-4.94,34.74-7.47,52.56-6.17,41.92,3.05,84.74,21.91,115.29,50.78,16.53,15.63,30.79,36.16,31.94,59.56.88,17.98-6.63,34.38-14.51,50.07-7.32,14.6-15.07,29.49-16.51,46.03-1.77,20.35,6.51,38.35,19.4,53.63,14.09,16.7,30.5,31.08,38.88,51.79,7.08,17.49,8.84,36.86,5.84,55.44-6.59,40.81-35.76,75.88-75.57,87.98-12.49,3.8-25.84,5.27-38.79,3.21-12.93-2.06-24.45-8.21-36.41-13.16-10.48-4.34-21-6.27-32.34-5.04-9.68,1.06-19.09,3.98-28.01,7.82-7.99,3.43-15.6,7.64-23.03,12.15-8.22,4.98-16.32,10.08-23.64,16.34-14.65,12.53-24.42,28.37-33.29,45.26-8.88,16.91-18.4,33.02-33.06,45.63-14.07,12.1-30.85,20.84-48.22,27.14-37.75,13.69-79.94,17.11-119.5,10.47s-75.63-23.41-96.63-57.22c-18.52-29.83-21.17-65.64-35.38-97.24-6.78-15.07-16.64-28.44-30.14-38.13-18.25-13.1-40.3-18.83-62.54-19.37-19.89-.49-40.78,3.81-60.37-.93-19.14-4.63-31.99-20.2-37.57-38.5-5.81-19.05-4.67-39.91-.08-59.09,5.05-21.11,14.64-41.48,28.46-58.29s32.63-29,53.24-37.17c17.07-6.77,35.07-11.54,51.11-20.67,17.56-9.99,31.64-25.63,39.27-44.4,7.77-19.13,6.23-39.04,5.2-59.15-.47-9.17-.59-18.47,1.48-27.47,2.38-10.37,7.75-19.37,15.04-27.04.19-.2-.11-.51-.3-.3-6.74,7.1-11.94,15.36-14.55,24.85-2.41,8.76-2.59,17.92-2.23,26.95.85,21.33,3.15,42.33-5.29,62.63-8.72,20.98-25.17,37.17-45.41,47.05-17.12,8.36-35.76,13-53.12,20.83-19.76,8.91-36.7,22.14-49.47,39.74s-20.91,37.11-25.03,57.78c-6.44,32.34-2.14,78.92,34.56,91.37,18.43,6.25,38.96,2.44,57.96,2.23,24.45-.27,48.78,4.7,69.02,19.06,30.72,21.81,37.69,58.9,47.79,92.74,5.09,17.03,11.42,33.88,21.77,48.48,10.88,15.36,25.68,27.26,42.43,35.7,34.87,17.57,76.13,21.78,114.58,17.95,36.58-3.64,75.05-14.91,103.54-39.06,14.52-12.31,24.19-27.97,32.94-44.64,9.35-17.8,19.42-34.55,35.03-47.64,7.8-6.54,16.48-11.85,25.21-17.04s16.93-9.44,26.01-12.83c10.44-3.9,21.6-6.42,32.79-5.86,13.37.67,24.93,6.96,37.01,12.06,11.46,4.84,23.17,7.73,35.67,7.37,12.07-.35,24.02-3.3,35.11-8.02,17.97-7.64,33.56-20.12,45.03-35.92,21.56-29.7,28.17-70.3,14.09-104.59-8.04-19.59-23.18-33.55-36.82-49.21-7.93-9.1-15.06-18.98-18.57-30.67-2.93-9.74-3.68-19.96-2.05-30,5.53-33.98,35.02-60.82,29.8-97.05-3.18-22.04-17.36-41.02-33.43-55.69-15.28-13.95-33.22-24.98-52.14-33.26-18.95-8.29-39.24-13.99-59.89-15.72-17.86-1.5-35.32.85-52.54,5.57-17.75,4.86-33.96,14.1-49.96,22.96-22.46,12.45-44.5,26.25-69.93,31.73s-50.85,1.23-69.12-16.98c-6.6-6.57-11.83-14.35-18.05-21.26-7.34-8.15-15.99-14.89-25.69-20.02-33.51-17.7-76.82-18.23-112.49-7.22-16.5,5.09-32.38,13.21-44.59,25.61-.19.2.11.5.3.3Z"/>
      <path class="cls-1" d="m504.99,269.39c25.33-25.71,66.5-32.9,101.13-29.65,18.37,1.72,36.91,6.69,52.46,16.88,8.47,5.55,15.43,12.6,21.77,20.43,5.34,6.6,10.48,13.37,17.23,18.62,16.48,12.81,37.87,15.3,57.86,11.28,22.58-4.54,42.18-16.27,62.06-27.28,15.42-8.54,31.01-17.8,48.02-22.84,15.92-4.72,32.45-7.15,49.05-6.01,39.09,2.68,79,20.14,107.6,46.9,15.5,14.5,28.94,33.58,30.19,55.4.97,16.84-6,32.2-13.35,46.91-6.9,13.81-14.18,27.91-15.34,43.57-1.4,18.92,6.5,35.47,18.49,49.61,13.15,15.5,28.24,28.92,35.94,48.22,6.51,16.31,8.02,34.4,5.14,51.66-6.34,38-33.73,70.62-70.92,81.65-11.66,3.46-24.04,4.71-36.08,2.73-12-1.97-22.73-7.79-33.86-12.34-18.73-7.66-37.82-4.83-56.01,3.06-7.37,3.2-14.4,7.11-21.26,11.27-7.71,4.68-15.3,9.47-22.15,15.38-13.54,11.68-22.55,26.42-30.79,42.07-8.28,15.71-17.23,30.62-30.91,42.28-13.15,11.2-28.81,19.28-45,25.09-35,12.57-74.04,15.72-110.69,9.57-35.54-5.96-70.62-21.87-90.13-53.51-17.04-27.63-19.6-60.72-32.78-89.93-6.32-14.01-15.51-26.42-28.07-35.44-17.15-12.31-37.89-17.6-58.77-18.07-18.46-.42-37.93,3.51-56.08-1.08-17.61-4.46-29.4-18.91-34.57-35.79-5.43-17.73-4.4-37.15-.17-55.01,4.66-19.65,13.54-38.62,26.35-54.29s30.53-27.2,49.83-34.88c15.71-6.25,32.25-10.74,47-19.2,16.32-9.35,29.39-23.93,36.48-41.41,7.23-17.82,5.81-36.36,4.89-55.1-.42-8.54-.52-17.2,1.42-25.58,2.23-9.65,7.23-18.03,14.03-25.17.19-.2-.11-.51-.3-.3-6.28,6.61-11.13,14.3-13.57,23.14-2.25,8.16-2.44,16.69-2.12,25.1.76,19.86,2.87,39.42-4.97,58.33-8.1,19.52-23.37,34.62-42.18,43.87-15.89,7.82-33.2,12.19-49.3,19.52-18.33,8.35-34.08,20.69-45.89,37.09-11.38,15.8-19.23,34.24-23.07,53.32-6.07,30.12-2.21,73.55,31.78,85.51,17.24,6.06,36.57,2.5,54.39,2.33,22.75-.21,45.39,4.42,64.23,17.78,28.56,20.26,35.1,54.7,44.54,86.14,4.71,15.68,10.56,31.18,20.04,44.65,10.16,14.44,24.04,25.63,39.75,33.53,32.29,16.24,70.47,20.18,106.08,16.71,34.07-3.32,69.88-13.73,96.52-36.07,13.68-11.48,22.78-26.13,31.01-41.75,8.62-16.36,17.89-31.79,32.2-43.88,7.29-6.16,15.4-11.14,23.58-16.01,7.69-4.58,15.65-8.76,24.03-11.93,9.68-3.67,20.03-6.07,30.43-5.66,12.64.5,23.53,6.38,34.95,11.19,10.48,4.41,21.17,7.1,32.59,6.84s22.76-3.01,33.26-7.48c16.6-7.07,31.03-18.55,41.7-33.09,20.13-27.44,26.53-65.02,13.84-96.95-7.34-18.47-21.37-31.59-34.19-46.26-7.39-8.45-14.14-17.62-17.5-28.47-2.82-9.12-3.6-18.7-2.13-28.14,4.96-31.72,32.45-56.71,27.57-90.48-2.97-20.56-16.26-38.25-31.26-51.91-14.45-13.16-31.46-23.53-49.37-31.26s-36.42-12.79-55.56-14.31c-16.65-1.32-33.02.95-49.06,5.45-16.46,4.62-31.54,13.28-46.41,21.5-20.93,11.57-41.53,24.31-65.31,29.09s-47,.3-63.68-16.77c-6.07-6.21-10.95-13.46-16.82-19.86-6.86-7.49-14.98-13.65-24-18.31-31.3-16.18-71.49-16.62-104.67-6.34-15.34,4.75-30.1,12.31-41.46,23.83-.19.2.11.5.3.3Z"/>
      <path class="cls-1" d="m515.57,285.55c23.46-23.78,61.49-30.45,93.56-27.55,16.66,1.5,33.5,5.86,47.79,14.79,8.22,5.13,15.02,11.74,21.11,19.21,4.85,5.96,9.45,12.16,15.43,17.06,14.82,12.13,34.43,15,52.87,11.67,21.02-3.8,39.25-14.46,57.69-24.63,14.52-8.01,29.2-16.78,45.18-21.58,14.43-4.34,29.5-6.64,44.57-5.75,36.2,2.12,73.2,18.11,99.92,42.58,14.49,13.27,27.24,30.73,28.91,50.87,1.29,15.59-4.86,29.91-11.62,43.56-6.26,12.66-13.04,25.47-14.49,39.75-1.74,17.23,4.85,32.8,15.65,45.91,11.82,14.36,26.06,26.52,33.59,43.95,6.56,15.18,8.37,32.17,5.92,48.48-5.23,34.88-29.57,65.22-63.22,76.43-10.48,3.49-21.75,5.14-32.78,3.88-11.77-1.35-22.16-6.58-32.94-11.12-8.75-3.68-17.45-5.7-26.98-4.96-8.7.67-17.18,3.17-25.21,6.53-13.86,5.81-27.97,14.07-39.59,23.58-12.95,10.59-21.77,24.1-29.53,38.72-7.76,14.61-15.78,28.72-28.39,39.78-12.12,10.64-26.7,18.3-41.77,23.81-32.42,11.87-68.67,14.91-102.7,9.35-32.86-5.36-65.46-19.85-83.74-48.93-16.05-25.54-18.47-56.28-30.7-83.4-5.87-13.01-14.39-24.55-26.05-32.92-15.74-11.29-34.77-16.24-53.94-16.78-17.14-.48-35.18,3.13-52.04-1.04-16.41-4.06-27.49-17.36-32.37-33.07-5.13-16.5-4.22-34.62-.29-51.27,4.32-18.33,12.6-36.04,24.58-50.63,12.15-14.79,27.96-24.85,45.56-31.95,14.5-5.84,29.76-10.05,43.37-17.91,15.07-8.71,27.14-22.23,33.7-38.41s5.4-33.69,4.57-51.05c-.37-7.91-.44-15.93,1.36-23.69,2.08-8.93,6.72-16.69,13.01-23.3.19-.2-.11-.51-.3-.3-5.82,6.12-10.32,13.25-12.59,21.43-2.1,7.56-2.29,15.46-2.01,23.25.66,18.4,2.6,36.52-4.65,54.03-7.42,17.91-21.36,31.88-38.56,40.5-14.76,7.4-30.89,11.52-45.87,18.41-16.78,7.72-31.19,19.05-42.04,34.07s-17.92,31.91-21.48,49.68c-5.61,28.1-1.87,68.55,29.94,79.47,16.03,5.5,33.93,2.23,50.49,2.15,20.9-.1,41.69,4.25,58.99,16.52,26.51,18.81,32.52,50.82,41.38,79.97,4.42,14.55,9.94,28.91,18.86,41.36,9.55,13.32,22.54,23.57,37.19,30.78,30.01,14.79,65.33,18.27,98.27,14.92,31.55-3.21,64.75-13.02,89.24-33.99,12.65-10.83,20.89-24.66,28.58-39.19,8.17-15.43,17.28-29.7,31.08-40.76,6.65-5.34,14-9.75,21.35-14.05s14.97-8.15,23-10.97c9.08-3.19,18.77-5.1,28.42-4.25,11.27.99,21.18,6.67,31.49,10.85,19.83,8.04,40.84,6.74,60.31-1.83,15.59-6.87,29.03-18,38.8-31.95,18-25.7,23.28-60.4,11.01-89.63-7.15-17.03-20.58-29.08-32.33-42.86-6.75-7.91-12.54-16.48-15.35-26.6-2.29-8.27-2.74-16.89-1.25-25.34,5.18-29.35,30.44-52.74,24.81-84.23-3.38-18.91-16-35.04-30.06-47.49-13.46-11.91-29.15-21.29-45.68-28.28-16.31-6.89-33.73-11.56-51.43-12.79-15.21-1.06-30.27,1.12-44.88,5.33-15.35,4.42-29.42,12.59-43.32,20.24-19.27,10.6-38.26,22.12-60.19,26.23-21.21,3.97-43.44-.62-58.6-16.71-5.54-5.88-10.08-12.61-15.63-18.48-6.31-6.68-13.77-12.16-21.97-16.31-29.09-14.72-66.21-15.08-96.93-5.54-14.2,4.41-27.86,11.41-38.38,22.07-.19.2.11.5.3.3Z"/>
      <path class="cls-1" d="m526.14,301.71c21.48-21.74,56.16-27.92,85.52-25.49,14.99,1.24,30.22,4.94,43.28,12.61,7.87,4.62,14.53,10.62,20.34,17.63,4.5,5.43,8.63,11.2,13.96,15.87,13.09,11.45,30.87,14.78,47.73,12.2,19.43-2.98,36.35-12.54,53.32-21.85,13.57-7.45,27.26-15.68,42.13-20.31,12.99-4.04,26.73-6.25,40.34-5.63,33.31,1.51,67.4,16,92.26,38.12,13.51,12.02,25.59,27.85,27.73,46.31,1.67,14.43-3.69,27.81-9.9,40.51-5.73,11.72-12.09,23.51-13.61,36.67-1.83,15.76,3.91,30.22,13.72,42.34,10.78,13.31,24.06,24.48,31.13,40.45,6.11,13.82,7.94,29.27,5.87,44.2-4.44,32.17-26.56,60.43-57.41,71.16-9.61,3.34-19.91,4.98-30.07,4.04-10.84-1-20.41-5.63-30.29-9.83-8.08-3.44-16.04-5.56-24.89-5.02-8.03.49-15.87,2.7-23.29,5.73-12.75,5.21-25.68,12.75-36.44,21.35-12.08,9.65-20.4,21.99-27.62,35.48-7.17,13.4-14.45,26.42-25.95,36.67-11.03,9.83-24.39,16.92-38.18,22.04-29.72,11.04-63.01,13.94-94.28,9.01s-60.32-17.81-77.37-44.33c-15-23.32-17.35-51.53-28.46-76.48-5.32-11.95-13.02-22.61-23.62-30.39-14.3-10.5-31.74-15.25-49.3-15.89-15.86-.58-32.45,2.69-48.08-.94-15.18-3.53-25.6-15.48-30.32-29.93-4.92-15.08-4.25-31.71-.81-47.02,3.79-16.83,11.19-33.13,21.98-46.64s25.61-23.42,41.91-30.14c13.36-5.5,27.46-9.43,40.03-16.72,13.91-8.07,25.05-20.56,31.09-35.52,6.14-15.2,4.98-31.02,4.26-47-.33-7.28-.37-14.66,1.3-21.8,1.93-8.22,6.2-15.35,11.99-21.43.19-.2-.11-.51-.3-.3-5.36,5.63-9.51,12.2-11.62,19.73-1.94,6.96-2.14,14.23-1.9,21.41.57,16.93,2.32,33.62-4.33,49.73-6.84,16.55-19.7,29.45-35.56,37.45-13.63,6.87-28.52,10.73-42.31,17.22-15.44,7.27-28.64,17.94-38.5,31.94s-16.16,29.5-19.25,45.87c-4.92,25.99-.91,62.97,28.58,72.57,14.88,4.84,31.35,1.83,46.67,1.87,19.15.05,38.23,4.29,53.95,15.7,24.08,17.47,29.45,46.91,37.69,73.59,4.12,13.35,9.32,26.5,17.64,37.85,8.9,12.13,20.94,21.41,34.43,27.93,27.7,13.38,60.17,16.46,90.46,13.24s59.39-12.18,81.73-31.57c11.55-10.03,19.02-22.81,26.12-36.15,7.58-14.24,16.19-27.28,29.05-37.35,6.07-4.75,12.75-8.73,19.41-12.59,6.83-3.95,13.93-7.49,21.41-10.03,8.38-2.85,17.33-4.48,26.2-3.53,10.35,1.11,19.49,6.49,29.02,10.24,33.34,13.09,71.05-3.84,90.59-32.24,16.24-23.59,20.99-55.24,9.78-81.92-6.69-15.94-19.38-27.16-30.29-40.13-6.15-7.31-11.29-15.24-13.73-24.57-1.99-7.62-2.26-15.55-.78-23.29,2.67-14,10.29-26.26,16.07-39.09,5.57-12.36,8.92-25.48,6.03-39.02-3.68-17.26-15.56-31.85-28.66-43.12-12.34-10.62-26.59-19-41.6-25.25-15.25-6.35-31.55-10.6-48.08-11.53-13.74-.77-27.47,1.33-40.64,5.25-14.26,4.25-27.37,11.95-40.34,19.05-17.76,9.72-35.37,20.14-55.69,23.37-19.51,3.09-39.3-1.99-52.77-16.92-5.02-5.56-9.26-11.76-14.53-17.1-5.87-5.94-12.78-10.78-20.29-14.42-26.86-13.02-60.71-13.26-88.85-4.43-12.98,4.07-25.46,10.5-35.09,20.25-.2.2.11.5.3.3Z"/>
      <path class="cls-1" d="m536.71,317.88c19.62-19.91,51.33-25.54,78.19-23.37,13.52,1.09,27.29,4.32,39.17,11.06,7.26,4.11,13.49,9.49,18.86,15.84,4.15,4.92,7.87,10.22,12.63,14.59,11.68,10.72,27.86,14.19,43.29,12.08,17.93-2.46,33.56-11.14,49.2-19.66,12.45-6.78,24.99-14.3,38.61-18.53,11.77-3.66,24.24-5.65,36.57-5.12,30.37,1.31,61.48,14.49,84.21,34.56,12.11,10.7,22.99,24.66,25.45,41.04,2,13.37-2.7,25.86-8.42,37.7-5.16,10.7-10.99,21.4-12.51,33.36-1.81,14.25,3.12,27.53,11.92,38.61,9.75,12.27,21.98,22.43,28.59,36.97,5.61,12.34,7.41,26.21,5.77,39.64-3.58,29.4-23.37,55.59-51.31,65.9-8.56,3.16-17.73,4.85-26.86,4.34-10.09-.57-18.98-4.51-28.13-8.45-7.33-3.16-14.51-5.46-22.57-5.21-7.44.23-14.76,2.14-21.66,4.86-11.77,4.63-23.66,11.53-33.62,19.31-11.17,8.72-18.97,19.9-25.63,32.25s-13.06,24.01-23.41,33.4c-9.86,8.95-21.85,15.43-34.23,20.15-27.1,10.33-57.55,13.14-86.18,8.82-27.62-4.16-55.4-15.85-71.23-39.96-13.86-21.13-16.14-46.81-26.19-69.56-4.83-10.94-11.8-20.73-21.46-27.9-13.06-9.7-29.07-14.12-45.17-14.77-14.49-.58-29.63,2.33-43.91-.98s-23.52-14.17-27.86-27.42c-4.51-13.76-3.95-28.95-.85-42.94,3.4-15.35,10.09-30.25,19.88-42.6,9.81-12.37,22.62-21.08,37.04-27.22,12.33-5.24,25.4-8.9,37.04-15.66,12.69-7.37,22.89-18.73,28.47-32.37,5.73-14.01,4.68-28.59,4.06-43.34-.28-6.58-.3-13.26,1.21-19.72,1.77-7.56,5.7-14.12,11.04-19.7.19-.2-.11-.51-.3-.3-4.95,5.17-8.77,11.21-10.71,18.15-1.75,6.29-1.95,12.87-1.75,19.36.48,15.47,2.07,30.71-3.96,45.44s-18.29,27.29-33.01,34.66c-12.2,6.12-25.49,9.7-37.8,15.57-14.16,6.76-26.22,16.67-35.18,29.6-8.65,12.5-14.53,27.02-17.25,41.97-4.32,23.77-.41,57.27,26.44,66,13.59,4.42,28.63,1.73,42.62,1.82,17.55.11,35.09,4.05,49.43,14.6,21.8,16.03,26.66,42.82,34.26,67.08,3.83,12.21,8.66,24.21,16.39,34.52,8.25,11.02,19.35,19.38,31.75,25.24,25.48,12.04,55.24,14.7,82.98,11.56,26.26-2.97,53.97-11.4,74.09-29.25,10.34-9.18,17-20.82,23.46-32.85,7.15-13.32,15.43-25.29,27.66-34.47,5.33-4,11.14-7.42,16.92-10.73,6.28-3.59,12.81-6.78,19.69-9.03,8.16-2.67,16.94-4.07,25.48-2.62,8.97,1.52,17,6.34,25.45,9.48,30.41,11.3,64.6-5.15,81.9-30.97,14.57-21.75,18.59-50.68,8.01-74.95-6.26-14.36-17.92-24.5-27.72-36.34-5.55-6.7-10.05-13.98-12.15-22.49-1.71-6.93-1.83-14.11-.43-21.11,2.52-12.6,9.37-23.66,14.52-35.27,5.03-11.34,7.95-23.38,5.15-35.72-3.53-15.54-14.24-28.65-26.09-38.84-11.37-9.77-24.5-17.47-38.33-23.19-13.91-5.75-28.78-9.6-43.84-10.42-12.44-.68-24.91,1.23-36.83,4.77-31.42,9.34-56.43,34.53-89.72,38.61-17.5,2.15-34.62-3.24-46.37-16.62-4.54-5.17-8.48-10.84-13.41-15.67-5.4-5.28-11.73-9.55-18.56-12.76-24.6-11.55-55.35-11.76-81-3.7-11.88,3.73-23.29,9.62-32.09,18.55-.19.2.11.5.3.3Z"/>
      <path class="cls-1" d="m547.28,334.04c17.65-17.88,46-23.02,70.15-21.29,12.34.88,24.9,3.68,35.84,9.62,6.53,3.54,12.26,8.22,17.13,13.81,3.88,4.46,7.25,9.37,11.52,13.49,10.48,10.13,25.23,13.65,39.44,11.87,16.08-2.02,30.15-9.65,44.18-17.22,11.34-6.12,22.74-12.93,35.11-16.81,10.68-3.35,22.06-5.16,33.25-4.68,27.48,1.18,55.61,13.08,76.2,31.21,10.98,9.67,20.88,22.29,23.14,37.12,1.85,12.13-2.42,23.46-7.57,34.22-4.66,9.73-9.88,19.49-11.11,30.38-1.46,12.87,3.15,24.75,11.12,34.7,8.84,11.05,19.79,20.27,25.67,33.44,5.04,11.3,6.56,23.98,4.93,36.21-3.5,26.36-21.34,49.74-46.41,59.03-7.85,2.91-16.3,4.45-24.68,3.92-8.93-.56-16.85-4.07-24.96-7.54-6.63-2.83-13.11-4.89-20.39-4.67-6.84.21-13.57,2.01-19.91,4.53-10.51,4.19-21.15,10.33-30.07,17.28-10.09,7.86-17.16,17.92-23.22,29.06s-11.72,21.42-20.93,29.83c-9,8.23-20.01,14.16-31.37,18.46-24.48,9.27-51.95,11.79-77.8,7.89s-49.97-14.29-64.27-36.03c-12.57-19.11-14.65-42.37-23.9-62.9-4.46-9.91-10.91-18.72-19.76-25.14-11.86-8.6-26.26-12.46-40.76-13.04-13.17-.53-27.02,2.1-39.95-1.18-12.42-3.15-20.87-13.14-24.72-25.02-4.04-12.48-3.53-26.23-.72-38.91,3.08-13.89,9.12-27.38,17.98-38.56s20.35-18.96,33.3-24.54c11.09-4.78,22.85-8.17,33.28-14.38,11.32-6.73,20.37-16.99,25.37-29.21,5.18-12.68,4.25-25.9,3.73-39.26-.23-5.96-.23-12.01,1.15-17.84,1.62-6.84,5.19-12.76,10.03-17.81.19-.2-.11-.51-.3-.3-4.49,4.68-7.96,10.15-9.73,16.42-1.6,5.7-1.8,11.65-1.64,17.53.38,14,1.8,27.81-3.64,41.15-5.63,13.78-16.3,24.56-29.43,31.31-11.05,5.67-23.11,9-34.27,14.42-12.62,6.13-23.38,15.03-31.38,26.6-7.81,11.31-13.11,24.44-15.57,37.95-3.9,21.45-.51,51.61,23.43,59.97,12.18,4.26,25.79,1.95,38.39,2.01,15.94.07,31.82,3.47,44.97,12.89,19.97,14.32,24.54,38.54,31.49,60.54,3.49,11.05,7.88,21.91,14.89,31.24,7.43,9.89,17.39,17.42,28.52,22.69,23.09,10.94,50.07,13.35,75.22,10.5,23.7-2.68,48.74-10.28,66.92-26.36,9.43-8.34,15.49-18.93,21.41-29.87,6.44-11.89,13.93-22.59,24.89-30.77,4.82-3.6,10.07-6.69,15.3-9.67,5.67-3.24,11.58-6.11,17.79-8.15,7.36-2.41,15.28-3.67,22.99-2.38,8.1,1.35,15.35,5.69,22.98,8.5,27.41,10.11,58.18-4.67,73.88-27.83,13.3-19.63,17.12-45.82,7.7-67.87-5.56-13.01-15.99-22.23-24.87-32.89-4.95-5.95-9.07-12.4-11.06-19.94-1.69-6.4-1.89-13.06-.63-19.56,2.22-11.45,8.41-21.51,13.03-32.07,4.54-10.36,7.1-21.37,4.4-32.59-3.35-13.9-12.97-25.6-23.63-34.72s-22.09-15.72-34.55-20.88c-12.63-5.24-26.14-8.73-39.83-9.48-11.23-.61-22.51,1.1-33.27,4.29-28.62,8.49-51.53,31.55-82.03,34.56-15.93,1.57-30.92-3.92-41.33-16.15-4.06-4.77-7.7-9.86-12.29-14.16-5.02-4.71-10.89-8.47-17.17-11.26-22.42-9.99-50.07-10.07-73.24-2.65-10.6,3.39-20.76,8.7-28.64,16.67-.19.2.11.5.3.3Z"/>
      <path class="cls-1" d="m557.86,350.2c15.8-15.98,41.08-20.6,62.7-19.17,11.04.73,22.28,3.14,32.15,8.28,5.81,3.03,11.01,7.05,15.39,11.92,3.56,3.94,6.57,8.36,10.29,12.16,9,9.19,21.85,12.88,34.48,11.7,14.21-1.33,26.8-7.76,39.18-14.38,10.44-5.59,20.93-11.85,32.26-15.51,9.25-2.99,19.21-4.65,28.93-4.39,24.57.66,49.75,11.11,68.4,26.95,10.04,8.53,19.23,19.69,21.73,32.95,2.03,10.79-1.4,20.99-5.92,30.67-4.09,8.77-8.85,17.48-10.14,27.21-1.51,11.4,2.24,22.14,9.21,31.1,7.78,10,17.72,18.21,23.13,29.91,4.59,9.91,6.12,21.08,4.89,31.9-2.7,23.58-18.18,44.78-40.33,53.65-6.82,2.73-14.18,4.31-21.55,4.17-7.98-.15-15.1-2.82-22.34-5.93-5.95-2.56-11.78-4.85-18.35-4.94-6.04-.08-12.02,1.29-17.67,3.36-9.76,3.58-19.53,9.18-27.84,15.42-9.12,6.86-15.68,15.68-21.16,25.58s-10.41,19.18-18.53,26.8-17.8,12.88-27.94,16.8c-21.79,8.42-46.27,10.79-69.35,7.49-22.27-3.17-44.85-12.31-57.9-31.52-11.53-16.97-13.5-37.79-21.76-56.19-3.94-8.78-9.58-16.64-17.36-22.41-10.58-7.86-23.57-11.44-36.6-12.05-11.73-.55-24,1.67-35.54-1.12-11.32-2.73-19.1-11.66-22.66-22.45s-3.32-23.39-.91-34.73c2.64-12.41,7.94-24.41,15.72-34.46s18.09-17.29,29.72-22.42c9.85-4.34,20.31-7.45,29.58-13.05,10.08-6.09,18.15-15.29,22.59-26.24s3.82-23.2,3.4-35.18c-.19-5.34-.16-10.75,1.09-15.97,1.47-6.11,4.67-11.41,9.01-15.93.19-.2-.11-.51-.3-.3-3.96,4.12-7.04,8.92-8.67,14.42-1.53,5.18-1.74,10.62-1.62,15.99.29,12.54,1.53,24.92-3.33,36.86-5.01,12.32-14.49,21.99-26.18,28.1-9.81,5.13-20.54,8.18-30.45,13.1-11.12,5.52-20.55,13.45-27.63,23.69-7.03,10.18-11.76,22.01-13.92,34.18-3.46,19.48-.13,46.74,21.71,54.03,10.99,3.67,23.17,1.64,34.52,1.8,14.2.2,28.4,3.4,40.01,11.93,17.6,12.93,21.6,34.53,27.92,54.06,3.17,9.8,7.18,19.41,13.5,27.63,6.79,8.84,15.88,15.5,25.96,20.13,20.74,9.54,44.85,11.54,67.32,8.85,21.24-2.54,43.82-9.52,59.87-24.28,8.11-7.46,13.32-16.83,18.55-26.37,5.99-10.91,13.13-20.51,23.42-27.76,8.94-6.31,19.14-12.15,29.65-15.28,6.66-1.98,13.8-2.82,20.64-1.31,7.21,1.6,13.71,5.55,20.7,7.85,24.46,8.03,51.49-6.18,64.89-26.76,11.52-17.7,14.62-41.04,5.94-60.57-5.09-11.46-14.44-19.61-22.24-29.14-4.44-5.43-8.02-11.34-9.67-18.22-1.35-5.64-1.4-11.47-.24-17.15,2.11-10.23,7.66-19.24,11.68-28.76s5.95-19.61,3.05-29.75c-3.51-12.28-12.32-22.52-22-30.52s-20-13.79-31.22-18.27-23.38-7.49-35.57-7.96c-9.81-.38-19.79,1.21-29.16,4.11-25.47,7.87-46.22,28.45-73.68,30.25-7.77.51-15.5-.8-22.49-4.29-5.39-2.69-9.73-6.62-13.55-11.22s-7-8.91-11.26-12.71c-4.52-4.02-9.73-7.21-15.29-9.59-20.18-8.64-44.84-8.68-65.57-2-9.48,3.05-18.57,7.8-25.62,14.94-.2.2.11.5.3.3Z"/>
      <path class="cls-1" d="m568.43,366.36c13.91-14.04,36.05-18.15,55.09-17.06,9.66.56,19.47,2.53,28.22,6.77,5.08,2.46,9.72,5.76,13.65,9.82,3.3,3.41,6,7.33,9.18,10.84,7.43,8.21,18.05,12.25,29.06,11.85,12.71-.46,24.26-5.87,35.29-11.7,9.44-4.99,18.91-10.6,29.08-13.99,8.05-2.69,16.83-4.19,25.31-4.05,21.66.36,43.89,9.45,60.48,23.2,8.96,7.43,17.21,17.13,19.76,28.76,2.09,9.53-.69,18.62-4.63,27.26-3.55,7.78-7.75,15.46-8.95,24.05-1.41,10.12,1.87,19.68,8.04,27.66,6.85,8.86,15.62,16.13,20.37,26.49,4.02,8.76,5.34,18.63,4.22,28.18-2.42,20.56-15.83,39.13-35.05,47.1-5.97,2.48-12.42,3.97-18.91,3.97-7,0-13.31-2.16-19.67-4.86-5.36-2.27-10.6-4.45-16.5-4.57-5.32-.11-10.6,1.07-15.58,2.86-8.52,3.07-16.97,7.9-24.27,13.24-8.08,5.91-14,13.53-18.88,22.18-4.72,8.36-9.1,16.78-16.11,23.52-6.98,6.71-15.66,11.56-24.62,15.08-18.96,7.44-40.26,9.63-60.42,7-19.73-2.58-39.96-10.37-51.78-27.18-10.42-14.83-12.29-33.18-19.56-49.41-3.47-7.75-8.42-14.7-15.25-19.83-9.2-6.89-20.52-10.14-31.88-10.8-10.48-.61-21.43,1.31-31.73-1.16-9.92-2.37-16.84-10.06-20.12-19.48-3.39-9.74-3.23-20.54-1.24-30.56,2.14-10.74,6.52-21.15,12.99-30.01s15.78-15.94,26.12-20.69c8.66-3.98,17.88-6.81,26.06-11.78,8.92-5.42,16.06-13.54,20.04-23.22s3.51-20.5,3.18-31.09c-.15-4.76-.12-9.57,1-14.23,1.31-5.44,4.16-10.15,8.02-14.16.19-.2-.11-.5-.3-.3-3.53,3.66-6.28,7.94-7.73,12.84-1.36,4.62-1.56,9.47-1.46,14.25.23,11.2,1.21,22.24-3.25,32.86-4.52,10.76-12.82,19.17-23.06,24.57-8.58,4.53-17.94,7.31-26.57,11.75-9.85,5.07-18.13,12.36-24.25,21.62-6.01,9.08-10,19.57-11.71,30.32-2.75,17.28.7,40.93,19.99,47.1,9.68,3.1,20.33,1.42,30.3,1.63,12.48.27,25.02,3.17,35.19,10.74,15.43,11.48,18.94,30.51,24.64,47.69,2.85,8.56,6.47,16.93,12.09,24.06,6.08,7.72,14.17,13.48,23.09,17.49,18.34,8.22,39.54,9.88,59.31,7.43,18.68-2.32,38.55-8.53,52.59-21.62,7.11-6.64,11.65-14.97,16.33-23.36,5.39-9.65,11.95-18,21.18-24.27,7.87-5.35,16.65-10.36,25.83-12.98,5.78-1.65,11.96-2.3,17.87-.94,6.46,1.49,12.27,5.03,18.59,6.98,21.51,6.62,45.03-6.14,56.69-24.15,10.1-15.6,12.85-36.11,5.27-53.32-4.55-10.33-13.03-17.61-19.96-26.26-3.84-4.8-6.86-10.03-8.21-16.07-1.11-4.98-1.08-10.1,0-15.08,1.93-8.88,6.71-16.72,10.13-25.04,3.54-8.65,4.97-17.73,2.08-26.79-3.41-10.68-11.29-19.54-19.88-26.47s-17.7-11.95-27.6-15.82c-10.01-3.91-20.7-6.47-31.48-6.77-8.56-.24-17.36,1.2-25.52,3.81-22.63,7.23-41.58,25.8-66.36,25.95-6.73.04-13.35-1.58-19.18-4.98-4.45-2.59-7.9-6.24-11.11-10.21s-6.58-8.15-10.72-11.45c-3.83-3.06-8.11-5.48-12.64-7.33-17.93-7.32-39.65-7.3-57.96-1.34-8.34,2.71-16.32,6.91-22.53,13.18-.2.2.11.5.3.3Z"/>
      <path class="cls-1" d="m579,382.52c11.97-12.04,30.85-15.66,47.22-14.94,8.37.37,16.87,1.93,24.57,5.34,4.34,1.92,8.39,4.5,11.86,7.75,3.12,2.91,5.61,6.35,8.36,9.6,6.13,7.23,14.6,11.41,24.13,11.64,10.5.25,20.68-3.66,29.85-8.45,8.56-4.47,17.13-9.44,26.25-12.7,6.68-2.39,14.1-3.77,21.18-3.86,18.64-.25,37.84,7.29,52.46,18.62,7.85,6.08,15.16,13.94,18.29,23.54,2.7,8.3,1.11,16.49-2.21,24.32-2.93,6.93-6.76,13.6-8.13,21.09-1.53,8.39.55,16.78,5.45,23.72,5.57,7.89,13.36,14.05,17.86,22.72,3.86,7.44,5.37,15.93,4.74,24.26-1.32,17.45-11.89,33.76-27.59,41.63-5.25,2.63-11.01,4.37-16.88,4.79s-11.5-.78-16.98-2.96c-4.91-1.96-9.69-4.39-15.04-4.83-4.66-.38-9.35.45-13.77,1.9-7.51,2.45-14.79,6.57-21.28,11.05-7.27,5.02-12.73,11.57-17.13,19.16-4.16,7.17-7.89,14.5-13.88,20.38-5.93,5.82-13.29,10.06-20.96,13.15-16.43,6.64-34.96,8.62-52.5,6.44s-34.81-8.74-45.19-23.24c-9.08-12.69-10.82-28.46-17.14-42.4-3-6.63-7.25-12.59-13.09-17.01-7.92-6-17.72-8.86-27.54-9.53-9.04-.61-18.44.92-27.34-1.14-8.66-2.01-14.81-8.55-17.79-16.75-3.07-8.45-3.05-17.87-1.41-26.62,1.76-9.37,5.47-18.47,11.03-26.23,5.78-8.07,13.51-13.95,22.42-18.19,7.39-3.52,15.27-6.07,22.24-10.44,7.7-4.83,13.85-12,17.23-20.47s2.93-17.8,2.72-26.97c-.09-4.05-.02-8.15.96-12.11,1.16-4.71,3.65-8.78,7-12.25.19-.2-.11-.5-.3-.3-3.07,3.18-5.47,6.88-6.75,11.14-1.18,3.93-1.4,8.06-1.36,12.14.11,9.8.98,19.46-2.9,28.76-3.87,9.28-10.95,16.6-19.71,21.39-7.38,4.03-15.46,6.56-22.88,10.53-17.05,9.12-27.75,26.47-30.55,45.39-2.24,15.11,1.04,35.49,17.8,40.83,8.42,2.68,17.66,1.32,26.33,1.58,10.71.33,21.47,2.88,30.2,9.36,13.36,9.91,16.44,26.34,21.51,41.16,2.5,7.32,5.69,14.46,10.56,20.54,5.33,6.65,12.39,11.58,20.16,15,16.03,7.05,34.51,8.4,51.73,6.15,16.23-2.12,33.39-7.66,45.43-19.22,6-5.76,9.8-12.95,13.88-20.08,4.86-8.49,10.91-15.63,19.2-20.95,6.99-4.48,14.5-8.75,22.61-10.74,5.14-1.26,10.58-1.52,15.68.05,5.65,1.74,10.82,4.76,16.62,6.07,18.88,4.27,38.51-7.66,47.92-23.6,8.17-13.83,9.91-31.6,2.72-46.21-4.38-8.9-12.21-15.15-17.95-23.08-5.63-7.78-7.56-17.17-5.14-26.48,1.97-7.59,6.14-14.34,8.82-21.67,2.87-7.87,3.25-16.01,0-23.84-3.6-8.66-10.38-15.76-17.72-21.42s-15.84-10.2-24.65-13.41c-15.62-5.69-32.45-6.93-48.33-1.54-19.4,6.58-36.41,22.57-57.97,21.37-5.7-.32-11.3-2.09-16.03-5.3-3.71-2.52-6.49-5.95-9.27-9.4s-5.91-6.87-9.62-9.56c-3.37-2.44-7.09-4.35-10.99-5.81-15.61-5.84-34.16-5.74-49.93-.55-7.2,2.37-14.07,6.01-19.44,11.42-.2.2.11.5.3.3Z"/>
      <path class="cls-1" d="m589.58,398.68c10.06-10.09,25.79-13.21,39.56-12.81,7.01.21,14.09,1.36,20.63,3.92,3.6,1.41,7.01,3.3,10.03,5.73s5.29,5.25,7.65,8.17c2.15,2.66,4.43,5.18,7.31,7.08,3.43,2.26,7.39,3.67,11.45,4.19,8.92,1.14,17.94-1.74,25.89-5.57,7.62-3.66,15-8.01,22.94-10.97,5.49-2.04,11.58-3.24,17.43-3.46,15.64-.59,31.81,5.55,44.31,14.71,6.75,4.94,13.1,11.32,16.28,19.18,2.83,7,2.07,14.11-.62,21-2.32,5.95-5.58,11.59-6.86,17.91-1.45,7.1.07,14.31,4.13,20.3,4.6,6.78,11.22,11.99,15.1,19.29,3.3,6.21,4.65,13.33,4.21,20.33-.93,14.7-9.63,28.6-22.67,35.55-8.74,4.66-18.72,6.04-28.12,2.6-4.23-1.55-8.32-3.77-12.85-4.34-3.97-.5-8,.09-11.81,1.24-6.44,1.94-12.59,5.4-18.19,9.1-6.2,4.1-10.99,9.49-14.8,15.83-3.56,5.93-6.65,12.09-11.57,17.06s-11.28,8.71-17.82,11.39c-13.78,5.65-29.36,7.39-44.11,5.67-14.41-1.68-29.36-7.07-38.33-19.07-7.87-10.54-9.48-23.83-14.84-35.55-2.6-5.68-6.25-10.77-11.29-14.53-6.76-5.04-15.07-7.43-23.4-8.03-7.57-.55-15.46.6-22.9-1.21s-12.53-7.34-15.1-14.28-2.71-15.11-1.4-22.53c1.38-7.85,4.38-15.49,8.91-22.06,4.73-6.86,11.1-11.96,18.49-15.68,6.09-3.06,12.59-5.32,18.35-9.01,6.47-4.13,11.64-10.15,14.56-17.27s2.69-15.24,2.57-23.12c-.05-3.46.03-6.97.88-10.34,1.01-4.01,3.13-7.48,6-10.44.19-.2-.11-.5-.3-.3-2.63,2.72-4.69,5.88-5.8,9.51-1.03,3.36-1.23,6.9-1.22,10.39.03,8.24.68,16.38-2.54,24.2-3.25,7.9-9.24,14.19-16.61,18.36-6.14,3.47-12.88,5.74-19.02,9.21-14.12,7.97-22.82,22.67-25.01,38.56-1.78,12.9,1.19,30.06,15.34,34.73,7.11,2.35,14.94,1.31,22.3,1.6,9.05.36,18.15,2.53,25.54,8,11.26,8.34,13.93,22.15,18.34,34.6,2.19,6.18,4.99,12.19,9.22,17.26,4.62,5.52,10.68,9.58,17.27,12.38,13.47,5.72,28.9,6.76,43.29,4.84s28.52-6.64,38.65-16.65c4.93-4.87,8.08-10.92,11.57-16.82,4.19-7.09,9.5-12.95,16.57-17.29,6.02-3.7,12.35-7.29,19.32-8.79,4.49-.97,9.07-.93,13.42.61,4.68,1.65,9.12,4.01,14.05,4.85,15.95,2.72,31.97-7.48,39.69-21,6.77-11.83,8.09-26.92,1.8-39.24-3.82-7.48-10.54-12.75-15.24-19.6-4.57-6.67-5.83-14.63-3.67-22.4,1.76-6.35,5.23-12.05,7.27-18.3,2.25-6.89,2.01-13.92-1.17-20.5-3.44-7.12-9.32-12.92-15.63-17.54-6.43-4.71-13.65-8.39-21.19-10.97-13.06-4.47-27.18-5.24-40.3-.53-16.44,5.9-32.15,19.89-50.71,16.51-4.52-.82-8.89-2.82-12.36-5.85-2.65-2.31-4.7-5.18-6.95-7.87-4.75-5.66-10.78-9.65-17.76-12.01-13.34-4.5-28.91-4.34-42.23.16-6,2.03-11.72,5.1-16.22,9.62-.2.2.11.5.3.3Z"/>
      <path class="cls-1" d="m600.15,414.84c8.19-8.17,20.81-10.79,32-10.65,5.72.07,11.5.88,16.93,2.72,5.9,2,10.85,5.42,14.82,10.23,1.76,2.13,3.41,4.36,5.52,6.17,2.46,2.11,5.45,3.63,8.59,4.45,7.19,1.88,14.81.09,21.51-2.71,6.54-2.74,12.7-6.35,19.32-8.93,4.44-1.73,9.29-2.75,14.05-3.05,12.75-.82,26.01,4.06,36.36,11.28,5.47,3.81,10.61,8.65,13.64,14.67s2.88,11.87.76,17.88c-1.73,4.93-4.35,9.55-5.45,14.7-1.22,5.74-.15,11.65,3.04,16.58,3.64,5.61,9.03,9.87,12.25,15.77,2.74,5.03,3.9,10.8,3.6,16.49-.62,11.92-7.45,23.25-17.78,29.25-6.81,3.95-15.05,5.63-22.67,3.2-3.64-1.16-7.09-3.1-10.89-3.7-3.11-.49-6.29-.14-9.32.66-5.21,1.39-10,4.08-14.59,6.86-5.33,3.24-9.6,7.57-12.93,12.82-2.99,4.72-5.48,9.73-9.4,13.8s-8.98,7.14-14.23,9.36c-11.28,4.78-24.09,6.3-36.23,4.99-11.68-1.26-23.88-5.45-31.35-14.99-6.67-8.52-8.1-19.44-12.67-28.99-2.21-4.62-5.3-8.73-9.49-11.74-5.56-3.99-12.31-5.86-19.07-6.4-6.2-.49-12.71.33-18.77-1.36s-10.13-6.35-12.21-12.04c-4.3-11.82-1.01-26.32,5.84-36.51,3.77-5.61,8.86-9.81,14.79-12.97,4.88-2.6,10.09-4.61,14.65-7.77,5.17-3.58,9.28-8.67,11.54-14.56s2.01-12.36,2.01-18.71c0-2.8.13-5.64.86-8.36.87-3.24,2.62-6.04,4.95-8.43.19-.2-.11-.5-.3-.3-2.14,2.2-3.83,4.75-4.78,7.69-.88,2.71-1.11,5.58-1.14,8.41-.09,6.65.43,13.25-2,19.59s-7.27,11.88-13.2,15.52c-4.88,2.99-10.29,4.99-15.21,7.92-11.24,6.69-18.11,18.54-19.85,31.37-1.45,10.71.95,24.85,12.44,29.1,5.72,2.11,12.11,1.44,18.09,1.72,7.42.34,14.87,2.02,21.02,6.38,9.37,6.65,11.71,17.89,15.47,28.03,1.86,5.02,4.22,9.89,7.75,13.96,3.79,4.38,8.7,7.58,14.02,9.79,11.12,4.63,23.84,5.41,35.67,3.74,11.29-1.59,23.3-5.59,31.47-13.89,3.92-3.99,6.46-8.91,9.38-13.61,3.64-5.85,8.31-10.44,14.3-13.89,4.94-2.85,9.98-5.65,15.67-6.64,3.83-.67,7.44-.24,11.07,1.11s7.18,3,11.08,3.47c13.09,1.58,25.83-7.03,31.95-18.19,5.33-9.73,6.29-21.99,1.07-31.98-3.17-6.06-8.65-10.38-12.37-16.04-3.62-5.5-4.42-12.02-2.63-18.31,1.47-5.18,4.25-9.87,5.69-15.06,1.64-5.88.87-11.77-2.14-17.1s-7.99-10.06-13.18-13.68-11.34-6.65-17.57-8.65c-10.58-3.4-22-3.79-32.51.13-13.45,5.02-27.56,16.56-42.71,11.45-3.38-1.14-6.38-3.09-8.81-5.7-1.99-2.13-3.65-4.54-5.66-6.66-4.02-4.22-9.17-6.96-14.73-8.6-10.98-3.24-23.52-3.04-34.36.68-4.91,1.69-9.58,4.22-13.27,7.9-.2.2.11.5.3.3Z"/>
      <path class="cls-1" d="m610.72,431c6.35-6.27,15.93-8.39,24.59-8.48s18.51,1.73,24.88,8.1c3.2,3.2,5.39,7.07,9.54,9.21,5,2.57,10.77,2.39,16.07.91s10.41-4.27,15.57-6.44c3.53-1.49,7.03-2.44,10.81-2.96,9.87-1.35,20.16,1.93,28.52,7.07,4.33,2.66,8.44,6.01,11.37,10.21s4.24,9.37,2.91,14.57c-1.01,3.95-3,7.57-4.01,11.53-1.09,4.28-.73,8.81,1.37,12.73,2.48,4.63,6.74,7.96,9.46,12.42,2.36,3.88,3.47,8.41,3.38,12.94-.18,9.25-5.19,18.18-12.91,23.25-4.96,3.26-11.31,5.1-17.21,3.75-2.92-.67-5.6-2.1-8.5-2.82-2.34-.58-4.81-.49-7.16,0-4.15.85-7.85,2.86-11.5,4.92-4.25,2.4-7.81,5.48-10.6,9.5-2.41,3.47-4.3,7.27-7.17,10.4-3.05,3.33-6.94,5.78-11.06,7.58-8.71,3.81-18.63,5.07-28.06,4.17-9.1-.86-18.68-3.97-24.64-11.29-5.32-6.53-6.53-15.03-10.36-22.33-1.84-3.5-4.37-6.55-7.68-8.76-4.42-2.95-9.66-4.27-14.9-4.72-4.64-.4-9.52,0-14.01-1.39s-7.92-5.21-9.57-9.71c-3.35-9.14-1.14-20.31,3.95-28.38,2.81-4.45,6.67-7.84,11.19-10.49,3.64-2.14,7.52-3.89,10.88-6.49,3.84-2.97,6.89-7.03,8.52-11.62s1.5-9.41,1.59-14.23,1.13-9.47,4.73-13.15c.19-.2-.11-.5-.3-.3-3.34,3.42-4.64,7.59-4.82,12.29-.21,5.17.18,10.31-1.6,15.28-1.88,5.24-5.55,9.61-10.15,12.67-3.66,2.44-7.74,4.19-11.4,6.64-8.3,5.56-13.2,14.79-14.31,24.62-.94,8.34,1.09,19.05,9.68,22.72,4.19,1.79,8.93,1.57,13.39,1.81,5.83.31,11.67,1.41,16.65,4.63,7.72,4.98,9.77,13.75,12.96,21.76,1.52,3.82,3.44,7.49,6.23,10.55,2.99,3.28,6.81,5.65,10.91,7.28,8.73,3.49,18.66,3.99,27.88,2.59,8.69-1.31,17.92-4.48,24.15-10.95,2.99-3.11,4.96-6.92,7.35-10.47,2.96-4.39,6.75-7.55,11.33-10.16,4.21-2.39,8.71-4.69,13.63-4.94,3.06-.15,5.73.84,8.55,1.88s5.57,1.81,8.57,1.76c9.91-.18,18.85-6.99,23.16-15.66,3.81-7.66,4.27-17.08.01-24.66-2.64-4.7-7.05-8.09-9.68-12.78-2.54-4.53-2.57-9.64-1-14.49,1.29-4,3.35-7.78,3.94-11.99.71-5.05-1.13-9.82-4.21-13.78-5.9-7.62-15.23-12.7-24.41-15.2-8.34-2.27-16.99-1.87-25,1.38-10.44,4.23-22.94,12.37-33.94,5-4.05-2.72-6.3-7.32-10.19-10.26-3.33-2.51-7.31-4.02-11.35-4.94-8.5-1.94-17.91-1.66-26.16,1.28-3.76,1.34-7.3,3.32-10.15,6.13-.2.2.11.5.3.3Z"/>
      <path class="cls-1" d="m621.3,447.16c4.48-4.35,10.99-5.98,17.06-6.27,5.69-.27,11.97.48,17.02,3.29,1.59.89,3.01,2.04,4.24,3.38,1.1,1.2,2.04,2.55,3.18,3.72,2.49,2.55,5.93,3.86,9.47,3.91,7.3.11,13.41-4.56,20.44-5.71,6.88-1.13,13.7.37,19.87,3.52s13.72,8.93,13.32,16.65c-.15,2.98-1.45,5.72-2.23,8.56-.84,3.04-.9,6.17.3,9.13,1.37,3.37,4.23,5.81,6.27,8.75,1.87,2.69,2.9,5.86,3.01,9.13.23,6.52-2.93,12.97-7.99,17.02-3.17,2.54-7.19,4.24-11.28,4.19s-7.67-2.61-11.84-2.16c-3.11.34-5.98,1.68-8.69,3.16-2.88,1.57-5.49,3.31-7.61,5.86-1.86,2.24-3.25,4.83-5.14,7.04-2.09,2.44-4.74,4.27-7.63,5.63-6.16,2.9-13.29,3.92-20.05,3.43s-13.57-2.5-18.01-7.65c-3.87-4.48-4.92-10.44-7.94-15.4-3.52-5.78-9.68-8.25-16.19-8.98-3.31-.37-6.81-.31-9.96-1.53-3.32-1.29-5.58-4.16-6.77-7.44-2.36-6.5-1.16-14.39,2.24-20.31,1.85-3.22,4.43-5.75,7.46-7.86,2.35-1.64,4.83-3.1,6.95-5.05,2.53-2.32,4.52-5.29,5.6-8.56s1.06-6.58,1.24-9.94c.19-3.63,1.05-6.85,3.66-9.51.19-.2-.11-.5-.3-.3-2.33,2.37-3.4,5.22-3.7,8.49-.33,3.62-.11,7.25-1.19,10.77-1.16,3.78-3.55,7.11-6.59,9.61-2.4,1.98-5.15,3.48-7.6,5.39-5.55,4.35-8.7,10.92-9.28,17.89-.49,5.98,1.01,13.34,6.67,16.53,2.79,1.57,6.07,1.76,9.19,2.02,4.18.36,8.32.99,12.05,3.03,5.88,3.23,7.72,9.24,10.26,14.98,1.2,2.72,2.69,5.32,4.8,7.44s4.96,3.79,7.88,4.86c6.29,2.31,13.36,2.55,19.93,1.46,6.25-1.04,12.83-3.42,17.18-8.22,2.03-2.24,3.47-4.93,5.36-7.28,2.24-2.77,5.09-4.62,8.19-6.29,3.37-1.81,7.33-3.51,11.24-2.75,2.14.42,4.13,1.42,6.28,1.83,1.81.34,3.67.29,5.48-.06,6.64-1.3,12.19-6.33,14.83-12.46,2.37-5.52,2.43-12.08-.74-17.3-2.04-3.36-5.33-5.92-6.84-9.61-1.41-3.44-.96-6.91.15-10.35.92-2.86,2.04-5.73,1.77-8.79-.32-3.55-2.33-6.65-4.77-9.15-4.91-5.03-11.79-8.42-18.66-9.76-3.12-.61-6.21-.63-9.35-.22s-5.83,1.46-8.65,2.57c-4.04,1.59-8.19,3.34-12.61,3.26s-7.93-2.16-10.69-5.53c-2.08-2.55-4.32-4.71-7.35-6.1-2.56-1.17-5.33-1.87-8.1-2.28-6.03-.89-12.51-.53-18.23,1.7-2.56.99-4.94,2.4-6.91,4.31-.2.19.11.5.3.3Z"/>
      <path class="cls-1" d="m631.87,463.33c5.15-4.84,13.9-5.01,20.34-3.15,1.33.38,2.66.88,3.84,1.62,1.82,1.14,2.87,2.88,4.37,4.34,3.12,3.05,7.26,2.67,11.18,1.86,1.92-.4,3.78-.96,5.75-1s3.77.18,5.6.66c4.03,1.07,8.18,3.17,10.99,6.31,1.7,1.9,2.6,4.08,2.33,6.63-.19,1.8-.73,3.55-.61,5.37.28,4.36,4.31,6.79,5.35,10.84s-.32,8.05-2.81,11.08c-1.33,1.61-3.01,2.97-4.92,3.82-1.27.56-2.65.92-4.04.93s-2.58-.39-3.86-.66c-3.5-.72-7.58,1.25-10.38,3.25-2.97,2.12-4.64,5.45-7.9,7.26-3.56,1.98-7.8,2.76-11.83,2.72s-8.41-.92-11.43-3.73c-2.48-2.31-3.49-5.61-5.54-8.23-2.49-3.18-6.28-4.33-10.1-5.05-1.95-.37-3.97-.67-5.72-1.66-1.87-1.05-3.17-2.84-3.95-4.81-1.52-3.85-1.33-8.43.2-12.24s4.58-6.1,6.93-9.25c1.21-1.62,2.17-3.44,2.72-5.39s.64-4.05.94-6.09,1.04-3.91,2.55-5.43c.2-.2-.11-.5-.3-.3-3.08,3.1-2.51,7.21-3.46,11.14-.59,2.46-1.83,4.69-3.44,6.63-1.2,1.45-2.6,2.73-3.79,4.2-2.56,3.16-3.86,7.13-3.81,11.19.04,3.7,1.21,7.82,4.29,10.14,3.26,2.45,7.83,2.13,11.53,3.56,2.21.85,4.06,2.19,5.44,4.13,1.02,1.43,1.77,3.03,2.67,4.53,1.96,3.25,4.79,5.38,8.46,6.36s7.98.96,11.84.14,7.3-2.4,9.88-5.32c1.28-1.45,2.45-2.97,4.03-4.11,1.75-1.26,3.96-2.32,6.03-2.94,1.33-.4,2.65-.54,4.02-.26,1.12.22,2.21.57,3.35.65,2.22.15,4.46-.58,6.34-1.74,3.14-1.94,5.52-5.13,6.43-8.72.99-3.9-.03-7.39-2.43-10.53-1.57-2.06-2.91-4.09-2.88-6.79.02-1.9.67-3.74.69-5.64.04-4.21-3.42-7.34-6.74-9.39s-7.43-3.57-11.46-3.68-8.18,1.96-12.37,1.63c-2.86-.23-4.96-1.63-6.74-3.78-1.14-1.38-2.38-2.6-3.98-3.43-2.84-1.47-6.16-2.06-9.33-2.22-3.55-.18-7.26.23-10.55,1.64-1.49.64-2.86,1.51-4.04,2.62-.2.19.1.49.3.3Z"/>
      <path class="cls-1" d="m642.44,479.49c2-1.69,4.71-2.17,7.25-2.1,2.05.05,4.47.37,6.25,1.49,1.14.72,1.85,2.01,2.63,3.07.86,1.17,1.79,2.17,2.97,3.02,2.63,1.88,6.46,3.17,7.7,6.45,1.38,3.65-2.13,6.74-5.2,7.89s-6.84,1.58-10.2,1.67c-2.73.07-5.38-.42-7.61-2.07-1.89-1.4-3.34-3.34-4.39-5.43-2.07-4.12-3.23-10.46.59-13.97.2-.19-.1-.49-.3-.3-3.5,3.22-2.97,8.8-1.4,12.83,1.92,4.94,5.79,8.96,11.28,9.34,3.65.25,7.84-.28,11.34-1.37,2.86-.9,5.85-2.82,6.49-5.96s-1.8-5.45-4.19-7c-1.73-1.12-3.63-2.01-5.14-3.44-1.38-1.3-2.22-3.03-3.53-4.39-1.58-1.65-4.37-2.05-6.53-2.2-2.9-.2-6.05.26-8.33,2.19-.21.18.09.48.3.3Z"/>
    </g>
  </g>
</svg>