<?xml version="1.0" encoding="UTF-8"?>
<svg id="Capa_2" data-name="Capa 2" xmlns="http://www.w3.org/2000/svg" viewBox="0 0 30 30.01">
  <defs>
    <style>
      .cls-1 {
        fill: #fff;
      }
    </style>
  </defs>
  <g id="Capa_1-2" data-name="Capa 1">
    <g>
      <path class="cls-1" d="m6.62,0h16.74c.64.13,1.27.26,1.89.5,2.74,1.05,4.73,3.86,4.74,6.79.02,5.13,0,10.26,0,15.39,0,.46-.06.91-.16,1.36-.75,3.5-3.91,5.99-7.45,5.96-4.94-.03-9.87,0-14.81,0-.37,0-.74,0-1.11-.06-2.65-.43-4.56-1.85-5.77-4.23C.33,24.96.15,24.17,0,23.36,0,17.78,0,12.2,0,6.62c.03-.13.06-.27.09-.4C.57,3.7,1.97,1.88,4.25.72c.75-.38,1.55-.57,2.37-.72ZM2.54,14.99c0,2.48,0,4.96,0,7.43,0,.33.03.66.09.99.47,2.37,2.47,4.02,4.89,4.03,4.99,0,9.97,0,14.96,0,.16,0,.31,0,.47-.01,2.68-.33,4.5-2.38,4.5-5.08,0-4.91,0-9.81,0-14.72,0-.26-.01-.52-.05-.79-.33-2.44-2.4-4.29-4.86-4.3-5.03,0-10.07,0-15.1,0-.29,0-.58.03-.87.09-2.37.48-4.01,2.47-4.02,4.9,0,2.49,0,4.98,0,7.46Z"/>
      <path class="cls-1" d="m22.5,15c0,4.16-3.36,7.51-7.53,7.5-4.16,0-7.51-3.36-7.5-7.53,0-4.16,3.36-7.51,7.53-7.5,4.16,0,7.51,3.36,7.5,7.53Zm-7.52,4.94c2.73,0,4.96-2.22,4.96-4.95,0-2.74-2.21-4.96-4.94-4.97-2.75,0-4.98,2.21-4.98,4.96,0,2.73,2.22,4.95,4.95,4.95Z"/>
      <path class="cls-1" d="m25.01,6.86c0,1.03-.85,1.9-1.89,1.91-1.05,0-1.92-.86-1.91-1.91,0-1.04.87-1.9,1.9-1.9,1.03,0,1.9.87,1.91,1.9Z"/>
    </g>
  </g>
</svg>