<?xml version="1.0" encoding="UTF-8"?>
<svg id="Capa_2" data-name="Capa 2" xmlns="http://www.w3.org/2000/svg" viewBox="0 0 30 30.02">
  <defs>
    <style>
      .cls-1 {
        fill: #fff;
      }
    </style>
  </defs>
  <g id="Capa_1-2" data-name="Capa 1">
    <path class="cls-1" d="m30,2.04v25.99c-.37.95-1.04,1.62-1.99,1.99H2.02C.82,29.5,0,28.69,0,27.29,0,19.12,0,10.94,0,2.77,0,1.43.91.33,2.17.08c.34-.07.7-.06,1.05-.06C11.04.02,18.86.04,26.68,0c1.6,0,2.71.55,3.32,2.04Zm-13.45,10.91c-.2-.35-.13-.61-.14-.85-.03-.75-.24-.99-.98-1-.97-.02-1.95-.02-2.93,0-.65.02-.89.25-.89.9,0,4.58,0,9.17,0,13.75,0,.69.19.86.88.88.94.02,1.87.01,2.81,0,.94,0,1.1-.16,1.1-1.09,0-2.24-.01-4.49,0-6.73,0-1.01.19-1.99.83-2.81,1.17-1.5,3.5-1.24,4.24.47.28.64.36,1.31.36,2,0,2.38,0,4.76,0,7.14,0,.8.22,1.01,1.01,1.02.98.01,1.95.01,2.93,0,.83,0,1.04-.21,1.04-1.05,0-1.66,0-3.32,0-4.97,0-1.66.04-3.32-.24-4.96-.25-1.48-.73-2.85-2.01-3.77-1.55-1.12-3.31-1.15-5.1-.84-1.21.21-2.15.88-2.91,1.91Zm-7.29,5.94c0-2.24,0-4.48,0-6.73,0-.78-.28-1.06-1.06-1.08-.82-.02-1.64,0-2.46,0-1.11,0-1.34.24-1.34,1.34,0,2.69,0,5.38,0,8.07,0,1.62,0,3.24,0,4.85,0,1.07.21,1.28,1.25,1.28.8,0,1.6,0,2.4,0,1.02,0,1.2-.18,1.21-1.19,0-2.18,0-4.37,0-6.55ZM6.86,3.44c-1.76-.01-3.16,1.35-3.16,3.07,0,1.75,1.36,3.12,3.11,3.13,1.76.01,3.14-1.34,3.15-3.08,0-1.75-1.34-3.11-3.1-3.13Z"/>
  </g>
</svg>