<?xml version="1.0" encoding="UTF-8"?>
<svg id="Capa_2" data-name="Capa 2" xmlns="http://www.w3.org/2000/svg" viewBox="0 0 152.4 62.38">
  <defs>
    <style>
      .cls-1, .cls-2, .cls-3 {
        fill: #fff;
      }

      .cls-4 {
        letter-spacing: -.01em;
      }

      .cls-5 {
        fill: #c22bf5;
      }

      .cls-2 {
        font-family: Roboto-Black, Roboto;
        font-size: 49px;
        font-weight: 800;
      }

      .cls-6 {
        fill: #761ccc;
      }

      .cls-7 {
        fill: #037ae1;
      }

      .cls-8 {
        letter-spacing: .05em;
      }

      .cls-3 {
        font-family: Chillax-Medium, Chillax;
        font-size: 14px;
        font-weight: 500;
      }

      .cls-9 {
        letter-spacing: .06em;
      }

      .cls-10 {
        fill: #41b2fa;
      }
    </style>
  </defs>
  <g id="Capa_1-2" data-name="Capa 1">
    <g>
      <g>
        <path class="cls-6" d="m152.4,31.01c0,.65-.25,1.31-.75,1.81l-28.46,28.46c-.5.5-1.15.75-1.81.75l4.02-17.97c-1.34-1.64-1.77-3.78-3.02-5.5-2.22-3.05-4.77-5.53-8.62-6.38-.64-.14-1.31-.5-1.68-1.16v-.02h40.32Z"/>
        <path class="cls-7" d="m152.4,31.01h-40.32v-.02c.38-.65,1.05-1.02,1.68-1.16,3.84-.84,6.4-3.33,8.62-6.38,1.25-1.72,1.68-3.85,3.02-5.5L121.39,0c.65,0,1.31.25,1.81.75l28.46,28.46c.5.5.75,1.15.75,1.81Z"/>
        <path class="cls-5" d="m125.41,44.06l-4.02,17.97c-.65,0-1.31-.25-1.81-.75l-28.46-28.46c-.5-.5-.75-1.15-.75-1.81h21.71v.02c.38.65,1.05,1.02,1.68,1.16,3.84.84,6.4,3.33,8.62,6.38,1.25,1.72,1.68,3.86,3.02,5.5Z"/>
        <path class="cls-10" d="m125.41,17.97c-1.34,1.65-1.77,3.78-3.02,5.5-2.22,3.05-4.77,5.54-8.62,6.38-.64.14-1.31.5-1.68,1.16v.02h-21.71c0-.65.25-1.31.75-1.81L119.58.75c.5-.5,1.15-.75,1.81-.75l4.02,17.97Z"/>
        <path class="cls-1" d="m125.4,17.36c-1.4,1.72-1.85,3.96-3.16,5.75-1.29,1.78-2.85,3.47-4.7,4.74-.94.65-1.96,1.18-3.04,1.58s-2.39.44-3.05,1.57c0,0,0,.03,0,.03.77,1.34,2.83,1.41,4.14,2.02,2.78,1.3,4.85,3.41,6.64,5.86,1.31,1.8,1.76,4.03,3.16,5.75h.03c1.4-1.72,1.85-3.96,3.16-5.75,2.32-3.19,5-5.79,9.02-6.67.67-.15,1.37-.53,1.76-1.21,0,0,0-.03,0-.03-.56-.97-1.64-1.14-2.62-1.43-3.48-1.02-6.07-3.59-8.16-6.45-1.31-1.8-1.76-4.03-3.16-5.75"/>
      </g>
      <text class="cls-3" transform="translate(2 58.67)"><tspan class="cls-9" x="0" y="0">SO</tspan><tspan class="cls-8" x="20.86" y="0">L</tspan><tspan class="cls-9" x="29.25" y="0">UTIONS</tspan></text>
      <text class="cls-2" transform="translate(0 43.45)"><tspan class="cls-4" x="0" y="0">B</tspan><tspan x="30.96" y="0">TL</tspan></text>
    </g>
  </g>
</svg>