<?xml version="1.0" encoding="UTF-8"?>
<svg id="Capa_2" data-name="Capa 2" xmlns="http://www.w3.org/2000/svg" viewBox="0 0 300 51.57">
  <defs>
    <style>
      .cls-1 {
        fill: #fff;
      }
    </style>
  </defs>
  <g id="Capa_1-2" data-name="Capa 1">
    <g>
      <path class="cls-1" d="m26.06,0c6.33,3.44,12.64,6.9,19,10.29,2.54,1.36,3.8,3.39,3.8,6.25,0,6.1-.02,12.19.01,18.29.02,3.11-1.41,5.16-4.12,6.63-6.08,3.31-12.28,6.39-18.13,10.11h-4.44c-5.49-3.02-10.98-6.04-16.47-9.06-2.1-1.16-4.26-2.23-5.72-4.25V13.31c1.45-2.03,3.62-3.09,5.72-4.25C11.2,6.03,16.69,3.02,22.18,0c1.29,0,2.59,0,3.88,0Zm13.27,25.8s0,0,.01,0c0-1.66-.02-3.32,0-4.98.02-1.62-.07-3.06-1.81-3.97-3.68-1.91-7.31-3.93-10.92-5.98-1.72-.98-3.24-.84-4.92.16-1.65.98-1.41,1.66.04,2.45,2.34,1.29,4.7,2.55,7.02,3.88.84.48,2.04.94.79,2.24-2.35,2.44-5.42,2.89-8.49,1.23-2.52-1.36-5.01-2.75-7.56-4.05-1.77-.9-3.16.05-3.96,1.46-.92,1.62.81,1.97,1.75,2.51,2.56,1.47,5.14,2.91,7.78,4.22,1.97.97,2.89,2.33,2.8,4.58-.12,3.04-.01,6.09-.02,9.13,0,1.6.57,2.74,2.34,2.78,1.79.04,2.37-1.08,2.34-2.71-.03-2.12.3-4.29-.06-6.35-.85-4.92,1.79-7.25,5.81-8.97,1.93-.83,2.58-.25,2.61,1.6.04,2.58,0,5.17.05,7.75.02.87-.45,2.07.54,2.52,1,.45,1.86-.53,2.73-1.01,1.04-.58,1.11-1.63,1.12-2.66.01-1.94,0-3.87,0-5.81Zm-25.61,4.76c0-.83-.12-1.67.02-2.48.44-2.57-1.15-3.63-3.14-4.48-.81-.35-1.51-.46-1.52.69-.02,2.75-.14,5.53.11,8.26.17,1.94,2.07,2.86,3.6,2.84,1.73-.02.66-1.88.9-2.91.14-.61.03-1.28.03-1.92Z"/>
      <path class="cls-1" d="m300,37.15c-4.34,1.27-5.68.88-8.39-2.45-1.17-1.43-2.27-2.91-3.48-4.31-.68-.8-1.22-2.22-2.52-1.74-1.38.51-2.52,1.58-2.73,3.21-.12.91-.1,1.84-.09,2.76.04,2.05-.88,3.05-2.99,3.06-2.07,0-3.08-.88-3.07-2.98.02-6,.01-11.99.01-17.99,0-1.95.97-2.82,2.91-2.84,2.03-.02,3.16.77,3.14,2.9-.01,1.9,0,3.79,0,6.23,3.32-2.19,5.64-4.54,7.9-6.89,1.87-1.94,4-2.48,6.51-2.22.71.08,1.57,0,1.83.91.21.73-.36,1.2-.82,1.64-1.93,1.85-3.81,3.76-5.84,5.5-1.59,1.36-1.73,2.49-.32,4.14,2.75,3.23,5.3,6.62,7.94,9.95v1.11Z"/>
      <path class="cls-1" d="m67.01,25.85c0-2.86-.02-5.73,0-8.59.01-1.18-.19-2.56,1.27-3.06,1.32-.46,2.86-.75,3.93.35.88.91,1.48.64,2.38.26,3.86-1.63,7.6-1.44,10.99,1.14,1.04.79,1.75.64,2.68-.02,1.77-1.26,3.8-1.88,5.95-2.08,5.97-.54,10.25,2.99,10.61,9.05.24,4.05.05,8.12.1,12.19.02,2.15-1.25,2.62-3.06,2.6-1.78-.02-2.77-.71-2.74-2.63.04-3.32.06-6.65-.03-9.97-.11-4.06-1.4-5.6-4.51-5.66-3.5-.07-5.45,1.8-5.63,5.73-.15,3.23-.1,6.46-.05,9.69.03,2.01-.88,2.83-2.84,2.85-2.06.03-3.08-.75-3.03-2.93.07-3.41.06-6.83-.02-10.25-.08-3.29-1.34-4.84-3.91-5.07-3.36-.3-5.4,1.05-6,4.34-.63,3.47-.22,7-.23,10.5,0,2.02-.36,3.42-2.82,3.42-2.5,0-3.14-1.32-3.06-3.53.09-2.77.02-5.54.02-8.31Z"/>
      <path class="cls-1" d="m205.55,13.82c7.04.06,12.09,5.31,11.97,12.46-.1,6.58-5.5,11.6-12.35,11.51-7.15-.1-12.06-5.21-11.93-12.45.12-6.68,5.35-11.57,12.31-11.51Zm-.59,18.35c3.91.14,6.54-2.25,6.7-6.09.16-3.88-2.12-6.54-5.72-6.69-4.13-.17-6.59,1.96-6.76,5.88-.18,4.09,2.06,6.77,5.79,6.9Z"/>
      <path class="cls-1" d="m137.4,25.73c0-3.05.04-6.09-.01-9.14-.04-2.09,1.07-2.72,2.95-2.72,1.93,0,2.95.75,2.88,2.79-.05,1.47-.01,2.95.02,4.43.01.53-.11,1.21.52,1.46.62.25.99-.32,1.38-.68,2.32-2.12,4.63-4.24,6.94-6.37.75-.69,1.48-1.47,2.56-1.52,1.62-.06,3.8-.83,4.65.69.81,1.45-1.28,2.38-2.26,3.35q-6.03,6.01-.77,12.61c1.26,1.59,2.52,3.19,3.74,4.8.84,1.11.6,1.96-.82,2.14-2.43.3-4.77.37-6.41-2.07-1.18-1.75-2.58-3.38-4-4.95-.73-.81-1.21-2.51-2.69-1.82-1.39.65-2.64,1.75-2.82,3.51-.07.64-.08,1.29-.04,1.94.16,2.17-.41,3.54-2.99,3.53-2.69-.02-2.9-1.63-2.85-3.68.06-2.77.02-5.54.02-8.31,0,0,0,0,0,0Z"/>
      <path class="cls-1" d="m235.9,13.89c2.95,0,5.9.02,8.84,0,2.01-.01,2.76.99,2.73,2.94-.04,1.83-.79,2.61-2.65,2.72-5.82.34-5.81.39-5.82,6.27,0,2.95-.04,5.9,0,8.84.02,2.27-1.13,3.09-3.29,3.04-2.12-.05-2.93-1.05-2.9-3.12.06-4.05-.07-8.11.04-12.16.06-2.12-.64-3.12-2.85-2.9-.91.09-1.84-.03-2.76.02-1.91.1-2.88-.59-2.9-2.69-.02-2.18.95-2.99,2.99-2.97,2.86.03,5.71,0,8.57.02Z"/>
      <path class="cls-1" d="m170.77,25.64c0-2.77-.02-5.53.01-8.3.01-1.18-.13-2.55,1.25-3.11,1.31-.53,2.91-.78,3.92.31.97,1.05,1.67.69,2.62.29,1.54-.64,3.14-1.03,4.84-1.04,2.01-.01,3.04.79,3.09,2.95.04,2.24-.98,2.8-3.04,2.83-5,.06-6.5,1.69-6.54,6.75-.02,2.21,0,4.43,0,6.64-.01,3.94-.48,4.67-3.01,4.7-2.6.03-3.12-.71-3.13-4.57,0-2.49,0-4.98,0-7.47Z"/>
      <path class="cls-1" d="m124.21,25.89c0,2.94-.02,5.89,0,8.83.01,2.09-1.02,2.97-3.07,2.97-2.1,0-3-.99-3-3.04.02-5.89.02-11.78,0-17.67,0-2,.79-3.08,2.93-3.11,2.24-.03,3.18,1,3.15,3.18-.04,2.94,0,5.89-.02,8.83Z"/>
      <path class="cls-1" d="m263.51,25.66c0,3.14-.03,6.28.01,9.42.02,1.93-1,2.59-2.77,2.61-1.83.02-3.05-.48-3.03-2.63.04-6.19.04-12.38,0-18.57-.01-2.16,1.24-2.62,3.05-2.61,1.79.01,2.78.71,2.75,2.63-.04,3.05-.01,6.1-.01,9.15Z"/>
    </g>
  </g>
</svg>