<?xml version="1.0" encoding="UTF-8"?>
<svg id="Capa_2" data-name="Capa 2" xmlns="http://www.w3.org/2000/svg" viewBox="0 0 40 40">
  <defs>
    <style>
      .cls-1 {
        fill: #fff;
      }
    </style>
  </defs>
  <g id="Capa_1-2" data-name="Capa 1">
    <path class="cls-1" d="m20,0C8.95,0,0,8.95,0,20s8.95,20,20,20,20-8.95,20-20S31.05,0,20,0Zm11.37,26.17c-.31,1.35-.62,2.7-.93,4.05-.23,1-.49,1.21-1.53,1.21-4.88-.14-9.23-1.72-12.96-4.87-3.9-3.3-6.27-7.49-7.12-12.53-.18-1.06-.26-2.12-.27-3.19,0-.68.28-1.04.94-1.2,1.47-.35,2.95-.69,4.43-1.02.65-.15,1.09.07,1.36.68.69,1.6,1.38,3.2,2.06,4.8.26.61.14,1.03-.38,1.45-.73.6-1.45,1.2-2.19,1.78-.3.24-.37.44-.19.8,1.67,3.2,4.11,5.63,7.31,7.29.3.15.49.13.71-.15.59-.75,1.2-1.48,1.81-2.22.47-.56.88-.67,1.55-.38,1.54.66,3.09,1.32,4.63,1.98.74.32.95.72.77,1.52Z"/>
  </g>
</svg>