<?xml version="1.0" encoding="UTF-8"?>
<svg id="Capa_2" data-name="Capa 2" xmlns="http://www.w3.org/2000/svg" viewBox="0 0 236.51 50">
  <defs>
    <style>
      .cls-1 {
        fill: #fff;
      }
    </style>
  </defs>
  <g id="Capa_1-2" data-name="Capa 1">
    <g>
      <path class="cls-1" d="m118.58,31.67c0-.24,0-.48,0-.71,0-5.24,0-10.48,0-15.72,0-.82-.16-1.01,1-.95,1.76.1,3.51.22,5.27.33,2.14.14,4.29.32,6.43.49.5.04.59.14.62.64.01.22,0,.43,0,.65,0,5.33,0,10.65,0,15.98,0,.7.08,1.38.29,2.06.42,1.38,2.4,2.48,3.63,2.46,2.52-.03,5.04,0,7.56,0,4.74,0,9.48,0,14.22,0,.89,0,1.73-.12,2.49-.61,1.27-.81,1.74-2.06,1.91-3.47.04-.37.04-.74.04-1.11,0-4.46,0-8.91,0-13.37,0-1.14,0-1.14,1.1-1.04.35.03.69.04,1.04.04,2.52.02,5.03.29,7.54.42.93.05,1.87.06,2.79.19.64.09.67.09.68.76.01,1.2.03,2.39.03,3.59,0,2.91.02,5.83,0,8.74-.02,1.65.15,3.3.12,4.95-.01.56.07.61.66.63.13,0,.26,0,.39,0,14.76,0,29.52,0,44.28,0,.64,0,1.26-.07,1.86-.26,1.11-.35,1.63-.96,1.68-2.35.04-1.15-.69-2.03-1.81-2.32-.7-.18-1.42-.16-2.13-.23-2.66-.27-5.33-.37-7.98-.64-2.25-.22-4.5-.38-6.75-.58-2.21-.19-4.41-.45-6.62-.58-1.37-.08-2.73-.18-4.09-.3-2.36-.21-4.72-.35-7.07-.66-2.45-.33-4.69-1.29-6.64-2.83-1.09-.86-2.11-1.81-2.94-2.93-.95-1.29-1.58-2.75-2.06-4.27-.16-.51-.03-.68.53-.67.78.02,1.56.09,2.34.14,1.26.08,2.51.16,3.77.24,1.73.11,3.46.26,5.2.34,1.3.06,2.6.14,3.9.18,1.84.06,3.68.24,5.52.35,1.06.07,2.13.11,3.19.17,1.65.11,3.29.23,4.94.34,1.06.07,2.13.11,3.19.18,2.25.15,4.5.32,6.76.47.32.02.65.01.98.02,1.8.04,3.6.21,5.39.36.61.05,1.21.09,1.82.15,2.23.19,4.28.9,6.15,2.13,1.36.9,2.48,2.02,3.49,3.28,1.24,1.54,2.16,3.26,2.74,5.14.5,1.62.43,3.31.34,4.98-.09,1.63-.58,3.16-1.14,4.67-.13.35-.31.67-.48,1-.71,1.38-1.57,2.67-2.65,3.77-.99,1.01-2.13,1.84-3.41,2.48-2.03,1.03-4.19,1.56-6.46,1.56-15.33,0-30.65,0-45.98,0-1.09,0-1.17.16-1.15-1.12.04-2.98.09-5.95.13-8.93,0-.35,0-.69-.05-1.04-.17.67-.36,1.33-.53,2-.41,1.57-1.21,2.92-2.25,4.14-2.08,2.41-4.76,3.79-7.79,4.57-1.04.27-2.08.4-3.15.4-9.67-.02-19.35-.01-29.02,0-1.23,0-2.41-.22-3.6-.52-1.44-.37-2.72-1.06-3.95-1.82-.99-.62-1.87-1.4-2.66-2.28-1.95-2.17-3.02-4.74-3.63-7.54,0-.04-.04-.07-.07-.13-.17,1.55-.74,2.95-1.39,4.33-1.09,2.33-2.74,4.17-4.84,5.59-1.13.76-2.35,1.41-3.69,1.76-.25.06-.5.16-.75.23-.75.23-1.51.36-2.31.36-19.91,0-39.82,0-59.74,0-1.33,0-1.17-.04-1.17-1.17,0-9.46,0-18.92,0-28.37,0-1.2.01-2.39.03-3.59,0-.61.09-.69.69-.64,1.95.15,3.89.31,5.84.47,1.26.1,2.51.19,3.77.28.71.05,1.43.1,2.14.16.54.05.59.1.61.63,0,.2,0,.39,0,.59,0,5.83,0,11.65,0,17.48q0,.98.95.98c14.96,0,29.91,0,44.87,0,.13,0,.26,0,.39,0,1.75-.05,2.7-1.37,2.49-3.04-.17-1.29-.93-2.02-2.24-2.12-1.9-.15-3.8-.36-5.71-.45-1.71-.08-3.42-.3-5.13-.45-1.12-.1-2.25-.19-3.38-.29-1.84-.16-3.67-.36-5.51-.49-1.39-.1-2.76-.27-4.16-.31-1.3-.04-2.6-.19-3.9-.3-1.21-.1-2.42-.27-3.63-.32-1.71-.08-3.37-.41-4.96-.99-2.02-.74-3.89-1.78-5.39-3.33-1.87-1.94-3.05-4.26-3.54-6.92-.08-.42.02-.51.44-.49,2.82.13,5.63.41,8.44.63,3.1.24,6.19.49,9.28.79,1.77.17,3.55.21,5.33.37,2.31.21,4.63.41,6.94.61,1.8.15,3.59.29,5.39.44,1.21.1,2.42.24,3.63.32.93.07,1.86.07,2.8.17,2.1.21,4.21.29,6.29.62,2.34.37,4.36,1.44,6.12,3,2.15,1.91,3.67,4.27,4.78,6.9.08.18.13.37.19.55.03,0,.06,0,.09,0Z"/>
      <path class="cls-1" d="m58.34,11.34c.25-.67.5-1.34.75-2.01.63-1.66,1.49-3.17,2.76-4.44.68-.68,1.35-1.36,2.1-1.95,1.27-.99,2.64-1.82,4.23-2.23,1.05-.27,2.1-.54,3.19-.65.33-.03.65-.05.97-.05,14.32,0,28.65,0,42.97,0q1.07,0,1.07,1.1c0,3.76,0,7.52,0,11.28,0,1.04,0,1.05-1.06,1.05-30.36,0-60.73,0-91.09,0-.31,0-.74.16-.89-.18-.13-.28.21-.54.37-.79,1.29-2.14,2.59-4.27,3.91-6.39.73-1.16,1.48-2.31,2.27-3.42,1.21-1.68,2.84-2.55,4.95-2.55,7.46.01,14.91,0,22.37,0q1.04,0,1.04,1.04c0,3.17,0,6.35,0,9.52v.65s.06.01.1.02Z"/>
      <path class="cls-1" d="m175.33,11.6c.18-.51.38-1.01.53-1.53.4-1.32,1.05-2.53,1.79-3.68.6-.94,1.39-1.73,2.22-2.46.76-.68,1.53-1.34,2.41-1.88,1.76-1.08,3.68-1.64,5.7-1.93C188.59.02,189.22,0,189.85,0c15.13,0,30.25,0,45.38,0,.28,0,.57,0,.85.02.25.01.4.16.41.42.01.17.02.35.02.52,0,3.83,0,7.65,0,11.48,0,.11,0,.22,0,.33-.03.55-.11.64-.65.66-.22.01-.43,0-.65,0-19.6,0-39.21,0-58.81,0-4.43,0-8.87,0-13.3,0-.11,0-.22,0-.33,0-.85,0-.88-.03-.88-.88,0-3.89,0-7.78,0-11.67,0-.04,0-.09,0-.13.01-.68.06-.74.75-.74,3.91,0,7.82,0,11.74,0,.77,0,.83.07.83.88,0,3.33,0,6.65,0,9.98,0,.24,0,.48,0,.71.04,0,.08.02.12.02Z"/>
      <path class="cls-1" d="m7.78,49.96c-2.22,0-4.43,0-6.65,0-.15,0-.3,0-.46,0-.23-.02-.52.07-.65-.19-.11-.23.14-.39.25-.57,1.15-1.81,2.31-3.63,3.46-5.44,1.01-1.6,2.02-3.19,3.04-4.79,1.1-1.72,2.21-3.43,3.31-5.15.72-1.14,1.41-2.29,2.13-3.43.84-1.32,1.71-2.62,2.55-3.93.58-.9,1.13-1.81,1.69-2.71.82-1.3,1.65-2.6,2.48-3.91,1.07-1.69,2.17-3.36,3.21-5.06.36-.59.77-.76,1.45-.66,1.11.17,2.25.21,3.37.33,2.09.23,4.19.47,6.28.7,1.1.12,2.2.24,3.3.36.95.1.95.13.46.9-.75,1.17-1.48,2.36-2.22,3.53-.7,1.1-1.42,2.19-2.13,3.28-.66,1.02-1.32,2.04-1.97,3.07-.96,1.5-1.92,3-2.88,4.5-.94,1.46-1.88,2.92-2.82,4.38-1.14,1.77-2.29,3.54-3.42,5.31-.8,1.24-1.57,2.5-2.37,3.75-1.11,1.74-2.25,3.46-3.36,5.2-.26.4-.58.53-1.03.52-2.35-.01-4.7,0-7.04,0Z"/>
      <path class="cls-1" d="m131.91,6.72c0,1.87,0,3.74,0,5.61,0,.17,0,.35,0,.52-.04.47-.12.55-.6.58-.13,0-.26,0-.39,0-3.82,0-7.65,0-11.47,0-.98,0-.98,0-.98-.97,0-3.83,0-7.65,0-11.48,0-.15,0-.3,0-.46.03-.41.1-.47.52-.51.17-.02.35,0,.52,0,3.78,0,7.56,0,11.34,0,.02,0,.04,0,.07,0,.97,0,1,.03,1,.98,0,1.91,0,3.83,0,5.74Z"/>
    </g>
  </g>
</svg>