<?xml version="1.0" encoding="UTF-8"?>
<svg id="Capa_2" data-name="Capa 2" xmlns="http://www.w3.org/2000/svg" viewBox="0 0 120 120">
  <defs>
    <style>
      .cls-1 {
        fill: #fff;
      }
    </style>
  </defs>
  <g id="Capa_1-2" data-name="Capa 1">
    <path class="cls-1" d="m60,120c-.6,0-1.19-.01-1.78-.03l12.26-33.7h16.88c2.96,0,6.21-2.28,7.23-5.06l13.3-36.54c2.18-5.98-1.25-10.88-7.62-10.88h-23.41l-19.64,53.98h0l-11.14,30.6C19.65,112.09,0,88.34,0,60S18.53,9.28,43.8,2.22l-11.49,31.58h0l-19.1,52.48h12.72s16.24-44.59,16.24-44.59h9.56l-16.24,44.59h12.71s15.14-41.6,15.14-41.6c2.18-5.98-1.25-10.88-7.61-10.88h-10.69L57.3.06c.89-.04,1.79-.06,2.7-.06,33.14,0,60,26.86,60,60s-26.86,60-60,60h0Zm36.3-78.35h-9.55l-13.38,36.71h9.55l13.38-36.71Z"/>
  </g>
</svg>