<?xml version="1.0" encoding="UTF-8"?>
<svg id="Capa_2" data-name="Capa 2" xmlns="http://www.w3.org/2000/svg" viewBox="0 0 241.46 50">
  <defs>
    <style>
      .cls-1 {
        fill: #fff;
      }
    </style>
  </defs>
  <g id="Capa_1-2" data-name="Capa 1">
    <g>
      <path class="cls-1" d="m35.2,30.36c.03-4.55,1.36-8.67,4.19-12.27,1.56-1.98,3.46-3.55,5.66-4.78,2.5-1.39,5.18-2.2,8.01-2.47,3.63-.35,7.18.05,10.58,1.41,3.99,1.61,6.97,4.35,8.95,8.17,1.07,2.07,1.75,4.27,2.14,6.56.01.06.02.13.03.19.04.4.03.44-.33.6-.63.27-1.26.53-1.89.79-6.82,2.83-13.64,5.66-20.45,8.49-1.08.45-2.16.9-3.24,1.35-.09.04-.18.07-.27.12-.13.07-.14.18-.05.28.11.12.23.23.36.33,1.54,1.26,3.31,1.99,5.26,2.29,2.07.32,4.15.27,6.2-.17,1.71-.36,3.26-1.11,4.72-2.04.67-.43,1.32-.89,1.98-1.34.39-.27.4-.28.76,0,1.99,1.52,3.97,3.05,5.95,4.58.31.24.31.29.05.57-.9.98-1.91,1.81-3.01,2.55-2.37,1.59-4.95,2.74-7.7,3.49-1.89.51-3.8.85-5.77.92-2.45.08-4.87-.13-7.25-.73-3.99-1.01-7.47-2.93-10.22-6.03-2.36-2.66-3.78-5.77-4.38-9.27-.2-1.19-.32-2.38-.3-3.59Zm20.22-11.24c-.49,0-.98.04-1.46.1-1.68.22-3.22.78-4.57,1.8-2.06,1.56-3.24,3.69-3.79,6.18-.28,1.29-.37,2.6-.23,3.92.07.69.05.7.69.43,3.81-1.58,7.62-3.17,11.43-4.75,1.83-.76,3.66-1.52,5.49-2.28.44-.18.45-.21.24-.64-.04-.07-.07-.15-.11-.22-1.71-2.96-4.26-4.5-7.69-4.55Z"/>
      <path class="cls-1" d="m221.4,49.99c-4.76,0-8.73-1.12-12.29-3.54-4.01-2.72-6.63-6.46-7.86-11.15-.5-1.9-.71-3.84-.61-5.8.13-2.47.65-4.86,1.7-7.12,2.43-5.23,6.44-8.68,11.86-10.55,1.72-.59,3.48-.91,5.29-1.05,3.94-.29,7.69.39,11.2,2.19,5.52,2.82,8.96,7.29,10.3,13.35.33,1.51.52,3.05.44,4.6-.22,4.28-1.54,8.16-4.25,11.51-3.01,3.72-6.89,6.02-11.55,7.05-1.55.34-3.11.53-4.23.49Zm-.29-9.02c.49,0,.97-.03,1.46-.1,3.1-.45,5.44-2.05,7.01-4.74,1.22-2.08,1.62-4.36,1.41-6.76-.2-2.3-1-4.35-2.5-6.12-1.17-1.37-2.59-2.36-4.29-2.95-1.68-.58-3.41-.69-5.14-.37-3.25.6-5.59,2.43-7,5.41-.93,1.97-1.21,4.06-.99,6.23.25,2.48,1.21,4.65,2.95,6.43,1.94,1.98,4.32,2.95,7.08,2.97Z"/>
      <path class="cls-1" d="m140.64,49.99c-2.32.03-4.85-.44-7.29-1.35-2.88-1.08-5.39-2.73-7.49-4.98-2.75-2.94-4.41-6.4-4.99-10.38-.44-2.99-.22-5.94.69-8.82.79-2.48,2.04-4.7,3.73-6.68,1.68-1.97,3.68-3.53,5.98-4.71,2.26-1.17,4.67-1.88,7.2-2.18,1.13-.13,2.27-.21,3.41-.16,4.63.21,8.84,1.62,12.46,4.58,3.69,3.02,5.98,6.9,6.8,11.61.69,3.98.24,7.84-1.46,11.52-1.88,4.07-4.85,7.12-8.82,9.19-3.1,1.62-6.41,2.38-10.21,2.36Zm-9.6-19.72c0,.65.01,1.3.12,1.95.45,2.71,1.7,4.97,3.87,6.67,2.2,1.72,4.72,2.36,7.47,1.98,3.34-.46,5.81-2.21,7.32-5.2,1.46-2.89,1.64-5.93.61-9-.89-2.66-2.62-4.65-5.14-5.91-1.59-.8-3.29-1.07-5.07-.95-3.16.22-5.66,1.6-7.43,4.23-1.27,1.88-1.78,3.99-1.76,6.24Z"/>
      <path class="cls-1" d="m89,16.58c.26-.29.5-.55.73-.81.96-1.1,2.1-1.99,3.34-2.74,1.95-1.17,4.06-1.9,6.31-2.19,2.27-.3,4.51-.06,6.71.55,1.95.54,3.73,1.44,5.29,2.73,2.32,1.91,3.85,4.33,4.66,7.22.41,1.45.59,2.93.59,4.43,0,7.61,0,15.22,0,22.83q0,.77-.79.77c-2.98,0-5.95,0-8.93,0q-.77,0-.77-.79c0-6.89,0-13.79,0-20.68,0-1.19-.2-2.33-.72-3.41-.81-1.67-2.09-2.9-3.75-3.69-2.53-1.22-5.16-1.4-7.75-.32-3.01,1.25-4.66,3.57-4.94,6.84-.06.7-.05,1.4-.05,2.1,0,6.39,0,12.78,0,19.17q0,.78-.77.79c-2.99,0-5.98,0-8.98,0-.73,0-.74,0-.74-.73,0-12.18,0-24.36,0-36.54,0-.73,0-.73.73-.73,3.02,0,6.05,0,9.07,0,.72,0,.74.02.74.74-.01,1.32-.04,2.63-.05,3.95,0,.16-.03.32.06.51Z"/>
      <path class="cls-1" d="m181.07,36.95c.19-.52.35-.92.5-1.33,1.77-4.86,3.53-9.72,5.3-14.58,1.11-3.06,2.23-6.11,3.34-9.17.17-.48.19-.5.7-.5,3.61,0,7.22,0,10.83,0,.59,0,.62.04.38.62-1.46,3.55-2.92,7.1-4.38,10.65-2.53,6.15-5.05,12.3-7.58,18.45-1.06,2.57-2.12,5.14-3.18,7.71-.23.55-.23.55-.82.55-3.42,0-6.83,0-10.25,0-.59,0-.61-.02-.83-.55-2.83-6.87-5.65-13.74-8.47-20.62-2.21-5.38-4.42-10.77-6.64-16.15-.27-.66-.26-.67.44-.67,3.55,0,7.09,0,10.64,0,.07,0,.13,0,.2,0,.3-.03.51.08.58.39.01.06.04.12.07.18,1.26,3.45,2.52,6.91,3.77,10.36,1.35,3.7,2.69,7.39,4.04,11.09.34.93.67,1.87,1.01,2.8.08.22.15.46.35.76Z"/>
      <path class="cls-1" d="m0,24.66C0,16.77,0,8.89,0,1c0-.18,0-.36,0-.54C.03.08.09.03.48,0c.1,0,.2,0,.29,0,3.06,0,6.11,0,9.17,0,.78,0,.79,0,.79.79,0,12.67,0,25.33,0,38,0,.99-.05.9.89.9,7.29,0,14.57,0,21.86,0q.86,0,.86.86c0,2.67,0,5.33,0,8q0,.83-.85.83c-10.9,0-21.79,0-32.69,0q-.81,0-.81-.81c0-7.97,0-15.93,0-23.9Z"/>
    </g>
  </g>
</svg>