<?xml version="1.0" encoding="UTF-8"?>
<svg id="Capa_2" data-name="Capa 2" xmlns="http://www.w3.org/2000/svg" viewBox="0 0 189.67 93.24">
  <defs>
    <style>
      .cls-1 {
        fill: #fff;
      }
    </style>
  </defs>
  <g id="Capa_1-2" data-name="Capa 1">
    <g>
      <path class="cls-1" d="m189.67.21c-.79.32-1.6.26-2.37.34-17.8,1.81-35.28,5.28-52.52,10.05-14.05,3.89-27.74,8.76-41.07,14.66-20.41,9.05-39.4,20.41-56.61,34.68-4.72,3.92-9.28,8.03-13.6,12.4-.54.55-1.1.78-1.87.77-6.68-.02-13.37-.01-20.05-.02-.33,0-.81.18-.96-.2-.16-.38.3-.59.53-.82,10.92-10.82,23.09-20.04,36.15-28.09,15.98-9.85,32.91-17.72,50.56-24.04,14.99-5.37,30.31-9.54,45.91-12.73,8.56-1.75,17.17-3.18,25.82-4.34,6.17-.83,12.35-1.54,18.56-2.01,3.65-.28,7.29-.57,10.94-.85.18-.01.37-.06.56.2Z"/>
      <path class="cls-1" d="m75.06,73.1c-3.31,0-6.62,0-9.92,0-.6,0-1.12-.12-1.61-.48-6.04-4.42-12.09-8.82-18.13-13.23-.92-.68-.92-.73-.03-1.43,3.12-2.43,6.3-4.77,9.52-7.05.64-.45,1.07-.42,1.69.04,9.6,7.1,19.22,14.19,28.83,21.28.24.18.71.33.61.65-.13.41-.62.2-.94.2-3.34.02-6.68,0-10.02,0Z"/>
      <path class="cls-1" d="m1.94,26.91c.42-.27.75-.19,1.06-.19,6.68,0,13.36,0,20.03-.01.64,0,1.17.17,1.69.54,4.74,3.41,9.5,6.81,14.25,10.21,1,.72,1,.76-.05,1.38-3.51,2.08-6.98,4.22-10.35,6.51-.59.4-1.01.44-1.62,0-8.12-5.98-16.25-11.93-24.38-17.89-.2-.15-.38-.32-.64-.54Z"/>
      <path class="cls-1" d="m70.8,88.49c0-1.54.02-3.08-.01-4.61-.02-.75.26-1.02,1.01-1.03.78,0,1.08.26,1.07,1.07-.04,2.7,0,5.4-.02,8.1,0,.41.19,1-.47,1.09-.62.09-1.29.22-1.71-.5-.91-1.59-1.85-3.16-2.78-4.74-.08-.14-.17-.27-.27-.44-.28.21-.17.48-.18.69-.01,1.25,0,2.51,0,3.76,0,1.25-.15,1.35-1.4,1.29-.56-.03-.82-.25-.82-.82,0-2.89,0-5.78,0-8.67,0-.38.07-.76.53-.77.64-.02,1.37-.28,1.82.49.79,1.36,1.6,2.71,2.4,4.07.21.36.43.71.65,1.06.06-.01.12-.02.18-.04Z"/>
      <path class="cls-1" d="m34.52,87.96c0-1.38.03-2.76-.01-4.14-.02-.71.27-.99.96-.96,1.25.06,2.5-.12,3.75.12,1.25.24,2.1.92,2.41,2.19.31,1.27.04,2.38-1.03,3.17-.5.37-.43.68-.2,1.13.51.97.98,1.95,1.47,2.93.26.52.15.74-.47.78-1.5.09-1.55.08-2.18-1.29-.33-.73-.71-1.44-1-2.19-.23-.58-.67-.63-1.17-.57-.57.07-.46.53-.47.89-.01.61-.02,1.22,0,1.83.02.72.03,1.31-1.01,1.32-1,0-1.07-.51-1.05-1.27.03-1.32,0-2.63,0-3.95Zm3.15-3.29c-.75-.15-1.16.13-1.11,1.12.07,1.35.05,1.39,1.72,1.38.79,0,1.28-.48,1.28-1.23,0-.89-.51-1.26-1.88-1.27Z"/>
      <path class="cls-1" d="m80.56,86.87c.83-1.1,1.65-2.21,2.48-3.3.49-.65,1.8-1.01,2.5-.7.46.21.17.47.01.67-.73.94-1.46,1.88-2.24,2.78-.42.47-.4.85-.09,1.37.88,1.46,1.73,2.93,2.57,4.41.47.82.37.94-.58,1.02-.86.07-1.46-.16-1.85-1.01-.42-.93-1-1.79-1.46-2.71-.32-.64-.54-.49-.95-.07-.73.74-.64,1.63-.65,2.52,0,1.16-.25,1.36-1.36,1.26-.56-.05-.8-.3-.8-.86,0-2.86.01-5.72,0-8.58,0-.8.47-.84,1.08-.85.6,0,1.1.05,1.09.84-.02,1.05,0,2.1,0,3.15.08.02.17.04.25.06Z"/>
      <path class="cls-1" d="m3.45,93.24c-1.86,0-2.84-.66-3.28-2.22-.11-.41-.41-.98.22-1.14.56-.14,1.26-.38,1.68.42.51.99,1.45,1.28,2.42.82.45-.21.71-.56.7-1.06-.01-.44-.23-.8-.66-.98-.48-.21-.98-.29-1.49-.37-2.07-.32-3.03-1.48-2.82-3.4.17-1.55,1.74-2.75,3.5-2.64,1.36.09,2.53.54,3.03,1.96.13.37.44.94-.05,1.1-.54.17-1.31.44-1.71-.31-.37-.69-.92-.99-1.65-.9-.56.07-1.05.3-1.1,1-.05.64.21,1.06.83,1.23.53.14,1.06.24,1.59.37,1.84.44,2.58,1.46,2.43,3.34-.12,1.53-1.19,2.54-2.87,2.7-.26.02-.51.05-.77.07Z"/>
      <path class="cls-1" d="m22.48,93.11c-1.19,0-1.28-.11-.91-1.14.97-2.72,1.94-5.44,2.89-8.17.21-.6.45-.99,1.19-.99.74,0,1,.36,1.21.97.95,2.73,1.94,5.44,2.88,8.17.12.35.6.93-.15,1.09-.6.13-1.36.37-1.8-.43-.25-.46-.12-1.25-.75-1.35-.88-.13-1.79-.08-2.68-.03-.53.03-.59.55-.67.94-.15.75-.57,1.03-1.21.94Zm3.26-6.89c-.13.12-.2.15-.21.2-.19.57-.39,1.14-.57,1.72-.39,1.25-.31,1.34,1.02,1.25.49-.04.73-.18.56-.7-.26-.8-.52-1.61-.79-2.46Z"/>
      <path class="cls-1" d="m15.96,88.87c0,1.16-.02,2.31,0,3.47.02.83-.52.81-1.1.82-.58.01-.99-.09-.98-.83.02-2.21-.02-4.43.02-6.65.01-.75-.22-1.08-.99-.99-.25.03-.51-.01-.77,0-.66.05-.91-.25-.92-.9,0-.69.25-.98.96-.97,1.83.03,3.66.03,5.49,0,.69-.01.9.3.9.93,0,.61-.17.93-.88.95-1.74.04-1.73.07-1.73,1.85,0,.77,0,1.54,0,2.31h0Z"/>
      <path class="cls-1" d="m46.69,87.91c0-1.35.03-2.7-.01-4.05-.02-.76.29-1.01,1.03-1.01.7,0,1.06.19,1.05.98-.04,2.12.01,4.24-.02,6.36-.01.76.27,1.04,1.01,1,.87-.04,1.73,0,2.6,0,.7-.01.84.38.84.99,0,.61-.15.98-.85.97-1.57-.02-3.15-.02-4.72,0-.65,0-.93-.25-.92-.91.02-1.44,0-2.89,0-4.34Z"/>
      <path class="cls-1" d="m60.07,88.06c0,1.38-.02,2.76,0,4.14.02.79-.37.97-1.07.97-.66,0-1.11-.11-1.11-.93.02-2.82.02-5.64,0-8.46,0-.83.47-.91,1.12-.92.71-.01,1.08.2,1.06.98-.03,1.41,0,2.82,0,4.23Z"/>
    </g>
  </g>
</svg>